<mxfile host="app.diagrams.net" agent="Mozilla/5.0 (X11; Linux x86_64) AppleWebKit/537.36 (KHTML, like Gecko) Chrome/131.0.0.0 Safari/537.36" version="26.0.14">
  <diagram id="XAqKNRt9OL2XOIvm3X6s" name="Page-1">
    <mxGraphModel dx="1839" dy="1265" grid="1" gridSize="10" guides="1" tooltips="1" connect="1" arrows="1" fold="1" page="1" pageScale="1" pageWidth="850" pageHeight="1100" math="0" shadow="0" extFonts="Roboto^https://fonts.googleapis.com/css?family=Roboto|Roboto Mono^https://fonts.googleapis.com/css?family=Roboto+Mono">
      <root>
        <mxCell id="0" />
        <mxCell id="1" parent="0" />
        <mxCell id="Ws0JKRpnU8jsVFA6yoCU-628" value="" style="rounded=0;whiteSpace=wrap;html=1;fontFamily=Roboto;fontSize=16;rotation=270;horizontal=0;container=0;" parent="1" vertex="1">
          <mxGeometry x="42.39" y="364.38" width="140" height="491.25" as="geometry" />
        </mxCell>
        <mxCell id="Ws0JKRpnU8jsVFA6yoCU-568" value="" style="rounded=0;whiteSpace=wrap;html=1;fontFamily=Roboto;fontSize=16;rotation=270;horizontal=0;" parent="1" vertex="1">
          <mxGeometry x="43.24" y="738.98" width="140" height="492.04" as="geometry" />
        </mxCell>
        <mxCell id="Ws0JKRpnU8jsVFA6yoCU-697" value="" style="group" parent="1" vertex="1" connectable="0">
          <mxGeometry x="392" y="180" width="140" height="420" as="geometry" />
        </mxCell>
        <mxCell id="Ws0JKRpnU8jsVFA6yoCU-25" value="" style="rounded=0;whiteSpace=wrap;html=1;fontFamily=Roboto;fontSize=16;" parent="Ws0JKRpnU8jsVFA6yoCU-697" vertex="1">
          <mxGeometry y="-70" width="140" height="490" as="geometry" />
        </mxCell>
        <mxCell id="Ws0JKRpnU8jsVFA6yoCU-6" value="1" style="ellipse;whiteSpace=wrap;html=1;aspect=fixed;fillColor=#e51400;strokeColor=#B20000;fontColor=#ffffff;fontSize=16;fontFamily=Roboto;" parent="Ws0JKRpnU8jsVFA6yoCU-697" vertex="1">
          <mxGeometry x="20" y="370" width="30" height="30" as="geometry" />
        </mxCell>
        <mxCell id="Ws0JKRpnU8jsVFA6yoCU-7" value="2" style="ellipse;whiteSpace=wrap;html=1;aspect=fixed;fillColor=#e51400;strokeColor=#B20000;fontColor=#ffffff;fontSize=16;fontFamily=Roboto;" parent="Ws0JKRpnU8jsVFA6yoCU-697" vertex="1">
          <mxGeometry x="90" y="370" width="30" height="30" as="geometry" />
        </mxCell>
        <mxCell id="Ws0JKRpnU8jsVFA6yoCU-53" style="edgeStyle=none;rounded=0;orthogonalLoop=1;jettySize=auto;html=1;exitX=1;exitY=0.5;exitDx=0;exitDy=0;entryX=0;entryY=0.5;entryDx=0;entryDy=0;endArrow=none;endFill=0;fontFamily=Roboto;fontSize=16;strokeColor=#00CC00;strokeWidth=2;" parent="Ws0JKRpnU8jsVFA6yoCU-697" source="Ws0JKRpnU8jsVFA6yoCU-6" target="Ws0JKRpnU8jsVFA6yoCU-7" edge="1">
          <mxGeometry relative="1" as="geometry" />
        </mxCell>
        <mxCell id="Ws0JKRpnU8jsVFA6yoCU-47" style="edgeStyle=none;rounded=0;orthogonalLoop=1;jettySize=auto;html=1;exitX=0.5;exitY=1;exitDx=0;exitDy=0;entryX=0.5;entryY=0;entryDx=0;entryDy=0;endArrow=none;endFill=0;fontFamily=Roboto;fontSize=16;strokeWidth=2;strokeColor=#FF8000;" parent="Ws0JKRpnU8jsVFA6yoCU-697" source="Ws0JKRpnU8jsVFA6yoCU-8" target="Ws0JKRpnU8jsVFA6yoCU-6" edge="1">
          <mxGeometry relative="1" as="geometry" />
        </mxCell>
        <mxCell id="Ws0JKRpnU8jsVFA6yoCU-51" style="edgeStyle=none;rounded=0;orthogonalLoop=1;jettySize=auto;html=1;exitX=1;exitY=1;exitDx=0;exitDy=0;entryX=0;entryY=0;entryDx=0;entryDy=0;endArrow=none;endFill=0;fontFamily=Roboto;fontSize=16;strokeWidth=2;strokeColor=#FF8000;" parent="Ws0JKRpnU8jsVFA6yoCU-697" source="Ws0JKRpnU8jsVFA6yoCU-8" target="Ws0JKRpnU8jsVFA6yoCU-7" edge="1">
          <mxGeometry relative="1" as="geometry" />
        </mxCell>
        <mxCell id="Ws0JKRpnU8jsVFA6yoCU-8" value="3" style="ellipse;whiteSpace=wrap;html=1;aspect=fixed;fontSize=16;fontFamily=Roboto;" parent="Ws0JKRpnU8jsVFA6yoCU-697" vertex="1">
          <mxGeometry x="20" y="310" width="30" height="30" as="geometry" />
        </mxCell>
        <mxCell id="Ws0JKRpnU8jsVFA6yoCU-50" style="edgeStyle=none;rounded=0;orthogonalLoop=1;jettySize=auto;html=1;exitX=0.5;exitY=1;exitDx=0;exitDy=0;entryX=0.5;entryY=0;entryDx=0;entryDy=0;endArrow=none;endFill=0;fontFamily=Roboto;fontSize=16;strokeWidth=2;strokeColor=#FF8000;" parent="Ws0JKRpnU8jsVFA6yoCU-697" source="Ws0JKRpnU8jsVFA6yoCU-9" target="Ws0JKRpnU8jsVFA6yoCU-7" edge="1">
          <mxGeometry relative="1" as="geometry" />
        </mxCell>
        <mxCell id="Ws0JKRpnU8jsVFA6yoCU-9" value="4" style="ellipse;whiteSpace=wrap;html=1;aspect=fixed;fontSize=16;fontFamily=Roboto;" parent="Ws0JKRpnU8jsVFA6yoCU-697" vertex="1">
          <mxGeometry x="90" y="310" width="30" height="30" as="geometry" />
        </mxCell>
        <mxCell id="Ws0JKRpnU8jsVFA6yoCU-52" style="edgeStyle=none;rounded=0;orthogonalLoop=1;jettySize=auto;html=1;exitX=1;exitY=0;exitDx=0;exitDy=0;endArrow=none;endFill=0;fontFamily=Roboto;fontSize=16;entryX=0;entryY=1;entryDx=0;entryDy=0;strokeWidth=2;strokeColor=#FF8000;" parent="Ws0JKRpnU8jsVFA6yoCU-697" source="Ws0JKRpnU8jsVFA6yoCU-6" target="Ws0JKRpnU8jsVFA6yoCU-9" edge="1">
          <mxGeometry relative="1" as="geometry">
            <mxPoint x="90" y="340" as="targetPoint" />
          </mxGeometry>
        </mxCell>
        <mxCell id="Ws0JKRpnU8jsVFA6yoCU-54" style="edgeStyle=none;rounded=0;orthogonalLoop=1;jettySize=auto;html=1;exitX=1;exitY=0.5;exitDx=0;exitDy=0;entryX=0;entryY=0.5;entryDx=0;entryDy=0;endArrow=none;endFill=0;fontFamily=Roboto;fontSize=16;strokeColor=#00CC00;strokeWidth=2;" parent="Ws0JKRpnU8jsVFA6yoCU-697" source="Ws0JKRpnU8jsVFA6yoCU-8" target="Ws0JKRpnU8jsVFA6yoCU-9" edge="1">
          <mxGeometry relative="1" as="geometry" />
        </mxCell>
        <mxCell id="Ws0JKRpnU8jsVFA6yoCU-44" style="edgeStyle=none;rounded=0;orthogonalLoop=1;jettySize=auto;html=1;exitX=0.5;exitY=1;exitDx=0;exitDy=0;entryX=0.5;entryY=0;entryDx=0;entryDy=0;endArrow=none;endFill=0;fontFamily=Roboto;fontSize=16;strokeWidth=2;strokeColor=#FF8000;" parent="Ws0JKRpnU8jsVFA6yoCU-697" source="Ws0JKRpnU8jsVFA6yoCU-11" target="Ws0JKRpnU8jsVFA6yoCU-8" edge="1">
          <mxGeometry relative="1" as="geometry" />
        </mxCell>
        <mxCell id="Ws0JKRpnU8jsVFA6yoCU-57" style="edgeStyle=none;rounded=0;orthogonalLoop=1;jettySize=auto;html=1;exitX=1;exitY=1;exitDx=0;exitDy=0;entryX=0;entryY=0;entryDx=0;entryDy=0;endArrow=none;endFill=0;fontFamily=Roboto;fontSize=16;strokeWidth=2;strokeColor=#FF8000;" parent="Ws0JKRpnU8jsVFA6yoCU-697" source="Ws0JKRpnU8jsVFA6yoCU-11" target="Ws0JKRpnU8jsVFA6yoCU-9" edge="1">
          <mxGeometry relative="1" as="geometry" />
        </mxCell>
        <mxCell id="Ws0JKRpnU8jsVFA6yoCU-11" value="5" style="ellipse;whiteSpace=wrap;html=1;aspect=fixed;fontSize=16;fontFamily=Roboto;" parent="Ws0JKRpnU8jsVFA6yoCU-697" vertex="1">
          <mxGeometry x="20" y="250" width="30" height="30" as="geometry" />
        </mxCell>
        <mxCell id="Ws0JKRpnU8jsVFA6yoCU-46" style="edgeStyle=none;rounded=0;orthogonalLoop=1;jettySize=auto;html=1;exitX=0.5;exitY=1;exitDx=0;exitDy=0;entryX=0.5;entryY=0;entryDx=0;entryDy=0;endArrow=none;endFill=0;fontFamily=Roboto;fontSize=16;strokeWidth=2;strokeColor=#FF8000;" parent="Ws0JKRpnU8jsVFA6yoCU-697" source="Ws0JKRpnU8jsVFA6yoCU-12" target="Ws0JKRpnU8jsVFA6yoCU-9" edge="1">
          <mxGeometry relative="1" as="geometry" />
        </mxCell>
        <mxCell id="Ws0JKRpnU8jsVFA6yoCU-12" value="6" style="ellipse;whiteSpace=wrap;html=1;aspect=fixed;fontSize=16;fontFamily=Roboto;" parent="Ws0JKRpnU8jsVFA6yoCU-697" vertex="1">
          <mxGeometry x="90" y="250" width="30" height="30" as="geometry" />
        </mxCell>
        <mxCell id="Ws0JKRpnU8jsVFA6yoCU-55" style="edgeStyle=none;rounded=0;orthogonalLoop=1;jettySize=auto;html=1;exitX=1;exitY=0;exitDx=0;exitDy=0;entryX=0;entryY=1;entryDx=0;entryDy=0;endArrow=none;endFill=0;fontFamily=Roboto;fontSize=16;strokeWidth=2;strokeColor=#FF8000;" parent="Ws0JKRpnU8jsVFA6yoCU-697" source="Ws0JKRpnU8jsVFA6yoCU-8" target="Ws0JKRpnU8jsVFA6yoCU-12" edge="1">
          <mxGeometry relative="1" as="geometry" />
        </mxCell>
        <mxCell id="Ws0JKRpnU8jsVFA6yoCU-56" style="edgeStyle=none;rounded=0;orthogonalLoop=1;jettySize=auto;html=1;exitX=1;exitY=0.5;exitDx=0;exitDy=0;entryX=0;entryY=0.5;entryDx=0;entryDy=0;endArrow=none;endFill=0;fontFamily=Roboto;fontSize=16;strokeColor=#00CC00;strokeWidth=2;" parent="Ws0JKRpnU8jsVFA6yoCU-697" source="Ws0JKRpnU8jsVFA6yoCU-11" target="Ws0JKRpnU8jsVFA6yoCU-12" edge="1">
          <mxGeometry relative="1" as="geometry" />
        </mxCell>
        <mxCell id="Ws0JKRpnU8jsVFA6yoCU-42" style="edgeStyle=none;rounded=0;orthogonalLoop=1;jettySize=auto;html=1;exitX=0.5;exitY=1;exitDx=0;exitDy=0;entryX=0.5;entryY=0;entryDx=0;entryDy=0;endArrow=none;endFill=0;fontFamily=Roboto;fontSize=16;strokeWidth=2;strokeColor=#FF8000;" parent="Ws0JKRpnU8jsVFA6yoCU-697" source="Ws0JKRpnU8jsVFA6yoCU-13" target="Ws0JKRpnU8jsVFA6yoCU-11" edge="1">
          <mxGeometry relative="1" as="geometry" />
        </mxCell>
        <mxCell id="Ws0JKRpnU8jsVFA6yoCU-58" style="edgeStyle=none;rounded=0;orthogonalLoop=1;jettySize=auto;html=1;exitX=1;exitY=1;exitDx=0;exitDy=0;entryX=0;entryY=0;entryDx=0;entryDy=0;endArrow=none;endFill=0;fontFamily=Roboto;fontSize=16;strokeWidth=2;strokeColor=#FF8000;" parent="Ws0JKRpnU8jsVFA6yoCU-697" source="Ws0JKRpnU8jsVFA6yoCU-13" target="Ws0JKRpnU8jsVFA6yoCU-12" edge="1">
          <mxGeometry relative="1" as="geometry" />
        </mxCell>
        <mxCell id="Ws0JKRpnU8jsVFA6yoCU-13" value="7" style="ellipse;whiteSpace=wrap;html=1;aspect=fixed;fontSize=16;fontFamily=Roboto;" parent="Ws0JKRpnU8jsVFA6yoCU-697" vertex="1">
          <mxGeometry x="20" y="190" width="30" height="30" as="geometry" />
        </mxCell>
        <mxCell id="Ws0JKRpnU8jsVFA6yoCU-39" style="edgeStyle=none;rounded=0;orthogonalLoop=1;jettySize=auto;html=1;exitX=0.5;exitY=1;exitDx=0;exitDy=0;entryX=0.5;entryY=0;entryDx=0;entryDy=0;endArrow=none;endFill=0;fontFamily=Roboto;fontSize=16;strokeWidth=2;strokeColor=#FF8000;" parent="Ws0JKRpnU8jsVFA6yoCU-697" source="Ws0JKRpnU8jsVFA6yoCU-14" target="Ws0JKRpnU8jsVFA6yoCU-12" edge="1">
          <mxGeometry relative="1" as="geometry" />
        </mxCell>
        <mxCell id="Ws0JKRpnU8jsVFA6yoCU-60" style="edgeStyle=none;rounded=0;orthogonalLoop=1;jettySize=auto;html=1;exitX=0;exitY=0.5;exitDx=0;exitDy=0;entryX=1;entryY=0.5;entryDx=0;entryDy=0;endArrow=none;endFill=0;fontFamily=Roboto;fontSize=16;strokeColor=#00CC00;strokeWidth=2;" parent="Ws0JKRpnU8jsVFA6yoCU-697" source="Ws0JKRpnU8jsVFA6yoCU-14" target="Ws0JKRpnU8jsVFA6yoCU-13" edge="1">
          <mxGeometry relative="1" as="geometry" />
        </mxCell>
        <mxCell id="Ws0JKRpnU8jsVFA6yoCU-14" value="8" style="ellipse;whiteSpace=wrap;html=1;aspect=fixed;fontSize=16;fontFamily=Roboto;" parent="Ws0JKRpnU8jsVFA6yoCU-697" vertex="1">
          <mxGeometry x="90" y="190" width="30" height="30" as="geometry" />
        </mxCell>
        <mxCell id="Ws0JKRpnU8jsVFA6yoCU-59" style="edgeStyle=none;rounded=0;orthogonalLoop=1;jettySize=auto;html=1;exitX=1;exitY=0;exitDx=0;exitDy=0;entryX=0;entryY=1;entryDx=0;entryDy=0;endArrow=none;endFill=0;fontFamily=Roboto;fontSize=16;strokeWidth=2;strokeColor=#FF8000;" parent="Ws0JKRpnU8jsVFA6yoCU-697" source="Ws0JKRpnU8jsVFA6yoCU-11" target="Ws0JKRpnU8jsVFA6yoCU-14" edge="1">
          <mxGeometry relative="1" as="geometry" />
        </mxCell>
        <mxCell id="Ws0JKRpnU8jsVFA6yoCU-35" style="edgeStyle=none;rounded=0;orthogonalLoop=1;jettySize=auto;html=1;exitX=0.5;exitY=1;exitDx=0;exitDy=0;entryX=0.5;entryY=0;entryDx=0;entryDy=0;endArrow=none;endFill=0;fontFamily=Roboto;fontSize=16;strokeWidth=2;strokeColor=#FF8000;" parent="Ws0JKRpnU8jsVFA6yoCU-697" source="Ws0JKRpnU8jsVFA6yoCU-15" target="Ws0JKRpnU8jsVFA6yoCU-13" edge="1">
          <mxGeometry relative="1" as="geometry" />
        </mxCell>
        <mxCell id="Ws0JKRpnU8jsVFA6yoCU-61" style="edgeStyle=none;rounded=0;orthogonalLoop=1;jettySize=auto;html=1;exitX=1;exitY=1;exitDx=0;exitDy=0;endArrow=none;endFill=0;fontFamily=Roboto;fontSize=16;entryX=0;entryY=0;entryDx=0;entryDy=0;strokeWidth=2;strokeColor=#FF8000;" parent="Ws0JKRpnU8jsVFA6yoCU-697" source="Ws0JKRpnU8jsVFA6yoCU-15" target="Ws0JKRpnU8jsVFA6yoCU-14" edge="1">
          <mxGeometry relative="1" as="geometry">
            <mxPoint x="90" y="200" as="targetPoint" />
          </mxGeometry>
        </mxCell>
        <mxCell id="Ws0JKRpnU8jsVFA6yoCU-15" value="9" style="ellipse;whiteSpace=wrap;html=1;aspect=fixed;fontSize=16;fontFamily=Roboto;" parent="Ws0JKRpnU8jsVFA6yoCU-697" vertex="1">
          <mxGeometry x="20" y="130" width="30" height="30" as="geometry" />
        </mxCell>
        <mxCell id="Ws0JKRpnU8jsVFA6yoCU-38" style="edgeStyle=none;rounded=0;orthogonalLoop=1;jettySize=auto;html=1;exitX=0.5;exitY=1;exitDx=0;exitDy=0;entryX=0.5;entryY=0;entryDx=0;entryDy=0;endArrow=none;endFill=0;fontFamily=Roboto;fontSize=16;strokeWidth=2;strokeColor=#FF8000;" parent="Ws0JKRpnU8jsVFA6yoCU-697" source="Ws0JKRpnU8jsVFA6yoCU-16" target="Ws0JKRpnU8jsVFA6yoCU-14" edge="1">
          <mxGeometry relative="1" as="geometry" />
        </mxCell>
        <mxCell id="Ws0JKRpnU8jsVFA6yoCU-16" value="10" style="ellipse;whiteSpace=wrap;html=1;aspect=fixed;fontSize=16;fontFamily=Roboto;" parent="Ws0JKRpnU8jsVFA6yoCU-697" vertex="1">
          <mxGeometry x="90" y="130" width="30" height="30" as="geometry" />
        </mxCell>
        <mxCell id="Ws0JKRpnU8jsVFA6yoCU-62" style="edgeStyle=none;rounded=0;orthogonalLoop=1;jettySize=auto;html=1;exitX=1;exitY=0;exitDx=0;exitDy=0;entryX=0;entryY=1;entryDx=0;entryDy=0;endArrow=none;endFill=0;fontFamily=Roboto;fontSize=16;strokeWidth=2;strokeColor=#FF8000;" parent="Ws0JKRpnU8jsVFA6yoCU-697" source="Ws0JKRpnU8jsVFA6yoCU-13" target="Ws0JKRpnU8jsVFA6yoCU-16" edge="1">
          <mxGeometry relative="1" as="geometry" />
        </mxCell>
        <mxCell id="Ws0JKRpnU8jsVFA6yoCU-65" style="edgeStyle=none;rounded=0;orthogonalLoop=1;jettySize=auto;html=1;exitX=1;exitY=0.5;exitDx=0;exitDy=0;entryX=0;entryY=0.5;entryDx=0;entryDy=0;endArrow=none;endFill=0;fontFamily=Roboto;fontSize=16;strokeColor=#00CC00;strokeWidth=2;" parent="Ws0JKRpnU8jsVFA6yoCU-697" source="Ws0JKRpnU8jsVFA6yoCU-15" target="Ws0JKRpnU8jsVFA6yoCU-16" edge="1">
          <mxGeometry relative="1" as="geometry" />
        </mxCell>
        <mxCell id="Ws0JKRpnU8jsVFA6yoCU-31" style="edgeStyle=none;rounded=0;orthogonalLoop=1;jettySize=auto;html=1;exitX=0.5;exitY=1;exitDx=0;exitDy=0;entryX=0.5;entryY=0;entryDx=0;entryDy=0;endArrow=none;endFill=0;fontFamily=Roboto;fontSize=16;strokeWidth=2;strokeColor=#FF8000;" parent="Ws0JKRpnU8jsVFA6yoCU-697" source="Ws0JKRpnU8jsVFA6yoCU-17" target="Ws0JKRpnU8jsVFA6yoCU-15" edge="1">
          <mxGeometry relative="1" as="geometry" />
        </mxCell>
        <mxCell id="Ws0JKRpnU8jsVFA6yoCU-64" style="edgeStyle=none;rounded=0;orthogonalLoop=1;jettySize=auto;html=1;exitX=1;exitY=1;exitDx=0;exitDy=0;entryX=0;entryY=0;entryDx=0;entryDy=0;endArrow=none;endFill=0;fontFamily=Roboto;fontSize=16;strokeWidth=2;strokeColor=#FF8000;" parent="Ws0JKRpnU8jsVFA6yoCU-697" source="Ws0JKRpnU8jsVFA6yoCU-17" target="Ws0JKRpnU8jsVFA6yoCU-16" edge="1">
          <mxGeometry relative="1" as="geometry" />
        </mxCell>
        <mxCell id="Ws0JKRpnU8jsVFA6yoCU-17" value="11" style="ellipse;whiteSpace=wrap;html=1;aspect=fixed;fontSize=16;fontFamily=Roboto;" parent="Ws0JKRpnU8jsVFA6yoCU-697" vertex="1">
          <mxGeometry x="20" y="70" width="30" height="30" as="geometry" />
        </mxCell>
        <mxCell id="Ws0JKRpnU8jsVFA6yoCU-34" style="edgeStyle=none;rounded=0;orthogonalLoop=1;jettySize=auto;html=1;entryX=0.5;entryY=0;entryDx=0;entryDy=0;endArrow=none;endFill=0;fontFamily=Roboto;fontSize=16;strokeWidth=2;strokeColor=#FF8000;" parent="Ws0JKRpnU8jsVFA6yoCU-697" source="Ws0JKRpnU8jsVFA6yoCU-18" target="Ws0JKRpnU8jsVFA6yoCU-16" edge="1">
          <mxGeometry relative="1" as="geometry" />
        </mxCell>
        <mxCell id="Ws0JKRpnU8jsVFA6yoCU-18" value="12" style="ellipse;whiteSpace=wrap;html=1;aspect=fixed;fontSize=16;fontFamily=Roboto;" parent="Ws0JKRpnU8jsVFA6yoCU-697" vertex="1">
          <mxGeometry x="90" y="70" width="30" height="30" as="geometry" />
        </mxCell>
        <mxCell id="Ws0JKRpnU8jsVFA6yoCU-63" style="edgeStyle=none;rounded=0;orthogonalLoop=1;jettySize=auto;html=1;exitX=1;exitY=0;exitDx=0;exitDy=0;entryX=0;entryY=1;entryDx=0;entryDy=0;endArrow=none;endFill=0;fontFamily=Roboto;fontSize=16;strokeWidth=2;strokeColor=#FF8000;" parent="Ws0JKRpnU8jsVFA6yoCU-697" source="Ws0JKRpnU8jsVFA6yoCU-15" target="Ws0JKRpnU8jsVFA6yoCU-18" edge="1">
          <mxGeometry relative="1" as="geometry" />
        </mxCell>
        <mxCell id="Ws0JKRpnU8jsVFA6yoCU-66" style="edgeStyle=none;rounded=0;orthogonalLoop=1;jettySize=auto;html=1;exitX=1;exitY=0.5;exitDx=0;exitDy=0;entryX=0;entryY=0.5;entryDx=0;entryDy=0;endArrow=none;endFill=0;fontFamily=Roboto;fontSize=16;strokeColor=#00CC00;strokeWidth=2;" parent="Ws0JKRpnU8jsVFA6yoCU-697" source="Ws0JKRpnU8jsVFA6yoCU-17" target="Ws0JKRpnU8jsVFA6yoCU-18" edge="1">
          <mxGeometry relative="1" as="geometry" />
        </mxCell>
        <mxCell id="Ws0JKRpnU8jsVFA6yoCU-27" style="rounded=0;orthogonalLoop=1;jettySize=auto;html=1;exitX=0.5;exitY=1;exitDx=0;exitDy=0;entryX=0.5;entryY=0;entryDx=0;entryDy=0;fontFamily=Roboto;fontSize=16;endArrow=none;endFill=0;strokeWidth=2;strokeColor=#FF8000;" parent="Ws0JKRpnU8jsVFA6yoCU-697" source="Ws0JKRpnU8jsVFA6yoCU-19" target="Ws0JKRpnU8jsVFA6yoCU-17" edge="1">
          <mxGeometry relative="1" as="geometry" />
        </mxCell>
        <mxCell id="Ws0JKRpnU8jsVFA6yoCU-67" style="edgeStyle=none;rounded=0;orthogonalLoop=1;jettySize=auto;html=1;exitX=1;exitY=1;exitDx=0;exitDy=0;entryX=0;entryY=0;entryDx=0;entryDy=0;endArrow=none;endFill=0;fontFamily=Roboto;fontSize=16;strokeWidth=2;strokeColor=#FF8000;" parent="Ws0JKRpnU8jsVFA6yoCU-697" source="Ws0JKRpnU8jsVFA6yoCU-19" target="Ws0JKRpnU8jsVFA6yoCU-18" edge="1">
          <mxGeometry relative="1" as="geometry" />
        </mxCell>
        <mxCell id="Ws0JKRpnU8jsVFA6yoCU-19" value="13" style="ellipse;whiteSpace=wrap;html=1;aspect=fixed;fontSize=16;fontFamily=Roboto;" parent="Ws0JKRpnU8jsVFA6yoCU-697" vertex="1">
          <mxGeometry x="20" y="10" width="30" height="30" as="geometry" />
        </mxCell>
        <mxCell id="Ws0JKRpnU8jsVFA6yoCU-30" style="edgeStyle=none;rounded=0;orthogonalLoop=1;jettySize=auto;html=1;exitX=0.5;exitY=1;exitDx=0;exitDy=0;endArrow=none;endFill=0;fontFamily=Roboto;fontSize=16;strokeWidth=2;strokeColor=#FF8000;" parent="Ws0JKRpnU8jsVFA6yoCU-697" source="Ws0JKRpnU8jsVFA6yoCU-20" target="Ws0JKRpnU8jsVFA6yoCU-18" edge="1">
          <mxGeometry relative="1" as="geometry" />
        </mxCell>
        <mxCell id="Ws0JKRpnU8jsVFA6yoCU-20" value="14" style="ellipse;whiteSpace=wrap;html=1;aspect=fixed;fontSize=16;fontFamily=Roboto;" parent="Ws0JKRpnU8jsVFA6yoCU-697" vertex="1">
          <mxGeometry x="90" y="10" width="30" height="30" as="geometry" />
        </mxCell>
        <mxCell id="Ws0JKRpnU8jsVFA6yoCU-68" style="edgeStyle=none;rounded=0;orthogonalLoop=1;jettySize=auto;html=1;exitX=1;exitY=0;exitDx=0;exitDy=0;entryX=0;entryY=1;entryDx=0;entryDy=0;endArrow=none;endFill=0;fontFamily=Roboto;fontSize=16;strokeWidth=2;strokeColor=#FF8000;" parent="Ws0JKRpnU8jsVFA6yoCU-697" source="Ws0JKRpnU8jsVFA6yoCU-17" target="Ws0JKRpnU8jsVFA6yoCU-20" edge="1">
          <mxGeometry relative="1" as="geometry" />
        </mxCell>
        <mxCell id="Ws0JKRpnU8jsVFA6yoCU-69" style="edgeStyle=none;rounded=0;orthogonalLoop=1;jettySize=auto;html=1;exitX=1;exitY=0.5;exitDx=0;exitDy=0;endArrow=none;endFill=0;fontFamily=Roboto;fontSize=16;strokeColor=#00CC00;strokeWidth=2;" parent="Ws0JKRpnU8jsVFA6yoCU-697" source="Ws0JKRpnU8jsVFA6yoCU-19" target="Ws0JKRpnU8jsVFA6yoCU-20" edge="1">
          <mxGeometry relative="1" as="geometry" />
        </mxCell>
        <mxCell id="Ws0JKRpnU8jsVFA6yoCU-689" value="IXP 121" style="rounded=1;whiteSpace=wrap;html=1;fontFamily=Roboto;fontSize=20;" parent="1" vertex="1">
          <mxGeometry x="85.50999999999999" y="355" width="120" height="60" as="geometry" />
        </mxCell>
        <mxCell id="Ws0JKRpnU8jsVFA6yoCU-696" value="" style="group" parent="1" vertex="1" connectable="0">
          <mxGeometry x="562" y="545" width="472" height="335.63" as="geometry" />
        </mxCell>
        <mxCell id="Ws0JKRpnU8jsVFA6yoCU-326" value="" style="rounded=0;whiteSpace=wrap;html=1;fontFamily=Roboto;fontSize=16;rotation=90;" parent="Ws0JKRpnU8jsVFA6yoCU-696" vertex="1">
          <mxGeometry x="176.41" y="-176.4" width="140" height="492.82" as="geometry" />
        </mxCell>
        <mxCell id="Ws0JKRpnU8jsVFA6yoCU-327" value="17" style="ellipse;whiteSpace=wrap;html=1;aspect=fixed;fillColor=#e51400;strokeColor=#B20000;fontColor=#ffffff;fontSize=16;fontFamily=Roboto;rotation=90;verticalAlign=top;horizontal=0;" parent="Ws0JKRpnU8jsVFA6yoCU-696" vertex="1">
          <mxGeometry x="20" y="20" width="30" height="30" as="geometry" />
        </mxCell>
        <mxCell id="Ws0JKRpnU8jsVFA6yoCU-328" value="18" style="ellipse;whiteSpace=wrap;html=1;aspect=fixed;fillColor=#e51400;strokeColor=#B20000;fontColor=#ffffff;fontSize=16;fontFamily=Roboto;rotation=90;verticalAlign=top;horizontal=0;" parent="Ws0JKRpnU8jsVFA6yoCU-696" vertex="1">
          <mxGeometry x="20" y="90" width="30" height="30" as="geometry" />
        </mxCell>
        <mxCell id="Ws0JKRpnU8jsVFA6yoCU-329" style="edgeStyle=none;rounded=0;orthogonalLoop=1;jettySize=auto;html=1;exitX=1;exitY=0.5;exitDx=0;exitDy=0;entryX=0;entryY=0.5;entryDx=0;entryDy=0;endArrow=none;endFill=0;fontFamily=Roboto;fontSize=16;strokeColor=#00CC00;strokeWidth=2;verticalAlign=top;horizontal=0;" parent="Ws0JKRpnU8jsVFA6yoCU-696" source="Ws0JKRpnU8jsVFA6yoCU-327" target="Ws0JKRpnU8jsVFA6yoCU-328" edge="1">
          <mxGeometry relative="1" as="geometry" />
        </mxCell>
        <mxCell id="Ws0JKRpnU8jsVFA6yoCU-330" style="edgeStyle=none;rounded=0;orthogonalLoop=1;jettySize=auto;html=1;exitX=0.5;exitY=1;exitDx=0;exitDy=0;entryX=0.5;entryY=0;entryDx=0;entryDy=0;endArrow=none;endFill=0;fontFamily=Roboto;fontSize=16;strokeWidth=2;strokeColor=#FF8000;verticalAlign=top;horizontal=0;" parent="Ws0JKRpnU8jsVFA6yoCU-696" source="Ws0JKRpnU8jsVFA6yoCU-333" target="Ws0JKRpnU8jsVFA6yoCU-327" edge="1">
          <mxGeometry relative="1" as="geometry" />
        </mxCell>
        <mxCell id="Ws0JKRpnU8jsVFA6yoCU-332" style="edgeStyle=none;rounded=0;orthogonalLoop=1;jettySize=auto;html=1;exitX=1;exitY=1;exitDx=0;exitDy=0;entryX=0;entryY=0;entryDx=0;entryDy=0;endArrow=none;endFill=0;fontFamily=Roboto;fontSize=16;strokeWidth=2;strokeColor=#FF8000;verticalAlign=top;horizontal=0;" parent="Ws0JKRpnU8jsVFA6yoCU-696" source="Ws0JKRpnU8jsVFA6yoCU-333" target="Ws0JKRpnU8jsVFA6yoCU-328" edge="1">
          <mxGeometry relative="1" as="geometry" />
        </mxCell>
        <mxCell id="Ws0JKRpnU8jsVFA6yoCU-333" value="19" style="ellipse;whiteSpace=wrap;html=1;aspect=fixed;fontSize=16;fontFamily=Roboto;rotation=90;verticalAlign=top;horizontal=0;" parent="Ws0JKRpnU8jsVFA6yoCU-696" vertex="1">
          <mxGeometry x="80" y="20" width="30" height="30" as="geometry" />
        </mxCell>
        <mxCell id="Ws0JKRpnU8jsVFA6yoCU-335" style="edgeStyle=none;rounded=0;orthogonalLoop=1;jettySize=auto;html=1;exitX=0.5;exitY=1;exitDx=0;exitDy=0;entryX=0.5;entryY=0;entryDx=0;entryDy=0;endArrow=none;endFill=0;fontFamily=Roboto;fontSize=16;strokeWidth=2;strokeColor=#FF8000;verticalAlign=top;horizontal=0;" parent="Ws0JKRpnU8jsVFA6yoCU-696" source="Ws0JKRpnU8jsVFA6yoCU-336" target="Ws0JKRpnU8jsVFA6yoCU-328" edge="1">
          <mxGeometry relative="1" as="geometry" />
        </mxCell>
        <mxCell id="Ws0JKRpnU8jsVFA6yoCU-336" value="20" style="ellipse;whiteSpace=wrap;html=1;aspect=fixed;fontSize=16;fontFamily=Roboto;rotation=90;verticalAlign=top;horizontal=0;" parent="Ws0JKRpnU8jsVFA6yoCU-696" vertex="1">
          <mxGeometry x="80" y="90" width="30" height="30" as="geometry" />
        </mxCell>
        <mxCell id="Ws0JKRpnU8jsVFA6yoCU-337" style="edgeStyle=none;rounded=0;orthogonalLoop=1;jettySize=auto;html=1;exitX=1;exitY=0;exitDx=0;exitDy=0;endArrow=none;endFill=0;fontFamily=Roboto;fontSize=16;entryX=0;entryY=1;entryDx=0;entryDy=0;strokeWidth=2;strokeColor=#FF8000;verticalAlign=top;horizontal=0;" parent="Ws0JKRpnU8jsVFA6yoCU-696" source="Ws0JKRpnU8jsVFA6yoCU-327" target="Ws0JKRpnU8jsVFA6yoCU-336" edge="1">
          <mxGeometry relative="1" as="geometry">
            <mxPoint x="80" y="90" as="targetPoint" />
          </mxGeometry>
        </mxCell>
        <mxCell id="Ws0JKRpnU8jsVFA6yoCU-338" style="edgeStyle=none;rounded=0;orthogonalLoop=1;jettySize=auto;html=1;exitX=1;exitY=0.5;exitDx=0;exitDy=0;entryX=0;entryY=0.5;entryDx=0;entryDy=0;endArrow=none;endFill=0;fontFamily=Roboto;fontSize=16;strokeColor=#00CC00;strokeWidth=2;verticalAlign=top;horizontal=0;" parent="Ws0JKRpnU8jsVFA6yoCU-696" source="Ws0JKRpnU8jsVFA6yoCU-333" target="Ws0JKRpnU8jsVFA6yoCU-336" edge="1">
          <mxGeometry relative="1" as="geometry" />
        </mxCell>
        <mxCell id="Ws0JKRpnU8jsVFA6yoCU-340" style="edgeStyle=none;rounded=0;orthogonalLoop=1;jettySize=auto;html=1;exitX=0.5;exitY=1;exitDx=0;exitDy=0;entryX=0.5;entryY=0;entryDx=0;entryDy=0;endArrow=none;endFill=0;fontFamily=Roboto;fontSize=16;strokeWidth=2;strokeColor=#FF8000;verticalAlign=top;horizontal=0;" parent="Ws0JKRpnU8jsVFA6yoCU-696" source="Ws0JKRpnU8jsVFA6yoCU-342" target="Ws0JKRpnU8jsVFA6yoCU-333" edge="1">
          <mxGeometry relative="1" as="geometry" />
        </mxCell>
        <mxCell id="Ws0JKRpnU8jsVFA6yoCU-341" style="edgeStyle=none;rounded=0;orthogonalLoop=1;jettySize=auto;html=1;exitX=1;exitY=1;exitDx=0;exitDy=0;entryX=0;entryY=0;entryDx=0;entryDy=0;endArrow=none;endFill=0;fontFamily=Roboto;fontSize=16;strokeWidth=2;strokeColor=#FF8000;verticalAlign=top;horizontal=0;" parent="Ws0JKRpnU8jsVFA6yoCU-696" source="Ws0JKRpnU8jsVFA6yoCU-342" target="Ws0JKRpnU8jsVFA6yoCU-336" edge="1">
          <mxGeometry relative="1" as="geometry" />
        </mxCell>
        <mxCell id="Ws0JKRpnU8jsVFA6yoCU-342" value="21" style="ellipse;whiteSpace=wrap;html=1;aspect=fixed;fontSize=16;fontFamily=Roboto;rotation=90;verticalAlign=top;horizontal=0;" parent="Ws0JKRpnU8jsVFA6yoCU-696" vertex="1">
          <mxGeometry x="140" y="20" width="30" height="30" as="geometry" />
        </mxCell>
        <mxCell id="Ws0JKRpnU8jsVFA6yoCU-344" style="edgeStyle=none;rounded=0;orthogonalLoop=1;jettySize=auto;html=1;exitX=0.5;exitY=1;exitDx=0;exitDy=0;entryX=0.5;entryY=0;entryDx=0;entryDy=0;endArrow=none;endFill=0;fontFamily=Roboto;fontSize=16;strokeWidth=2;strokeColor=#FF8000;verticalAlign=top;horizontal=0;" parent="Ws0JKRpnU8jsVFA6yoCU-696" source="Ws0JKRpnU8jsVFA6yoCU-345" target="Ws0JKRpnU8jsVFA6yoCU-336" edge="1">
          <mxGeometry relative="1" as="geometry" />
        </mxCell>
        <mxCell id="Ws0JKRpnU8jsVFA6yoCU-345" value="22" style="ellipse;whiteSpace=wrap;html=1;aspect=fixed;fontSize=16;fontFamily=Roboto;rotation=90;verticalAlign=top;horizontal=0;" parent="Ws0JKRpnU8jsVFA6yoCU-696" vertex="1">
          <mxGeometry x="140" y="90" width="30" height="30" as="geometry" />
        </mxCell>
        <mxCell id="Ws0JKRpnU8jsVFA6yoCU-346" style="edgeStyle=none;rounded=0;orthogonalLoop=1;jettySize=auto;html=1;exitX=1;exitY=0;exitDx=0;exitDy=0;entryX=0;entryY=1;entryDx=0;entryDy=0;endArrow=none;endFill=0;fontFamily=Roboto;fontSize=16;strokeWidth=2;strokeColor=#FF8000;verticalAlign=top;horizontal=0;" parent="Ws0JKRpnU8jsVFA6yoCU-696" source="Ws0JKRpnU8jsVFA6yoCU-333" target="Ws0JKRpnU8jsVFA6yoCU-345" edge="1">
          <mxGeometry relative="1" as="geometry" />
        </mxCell>
        <mxCell id="Ws0JKRpnU8jsVFA6yoCU-347" style="edgeStyle=none;rounded=0;orthogonalLoop=1;jettySize=auto;html=1;exitX=1;exitY=0.5;exitDx=0;exitDy=0;entryX=0;entryY=0.5;entryDx=0;entryDy=0;endArrow=none;endFill=0;fontFamily=Roboto;fontSize=16;strokeColor=#00CC00;strokeWidth=2;verticalAlign=top;horizontal=0;" parent="Ws0JKRpnU8jsVFA6yoCU-696" source="Ws0JKRpnU8jsVFA6yoCU-342" target="Ws0JKRpnU8jsVFA6yoCU-345" edge="1">
          <mxGeometry relative="1" as="geometry" />
        </mxCell>
        <mxCell id="Ws0JKRpnU8jsVFA6yoCU-349" style="edgeStyle=none;rounded=0;orthogonalLoop=1;jettySize=auto;html=1;exitX=0.5;exitY=1;exitDx=0;exitDy=0;entryX=0.5;entryY=0;entryDx=0;entryDy=0;endArrow=none;endFill=0;fontFamily=Roboto;fontSize=16;strokeWidth=2;strokeColor=#FF8000;verticalAlign=top;horizontal=0;" parent="Ws0JKRpnU8jsVFA6yoCU-696" source="Ws0JKRpnU8jsVFA6yoCU-351" target="Ws0JKRpnU8jsVFA6yoCU-342" edge="1">
          <mxGeometry relative="1" as="geometry" />
        </mxCell>
        <mxCell id="Ws0JKRpnU8jsVFA6yoCU-350" style="edgeStyle=none;rounded=0;orthogonalLoop=1;jettySize=auto;html=1;exitX=1;exitY=1;exitDx=0;exitDy=0;entryX=0;entryY=0;entryDx=0;entryDy=0;endArrow=none;endFill=0;fontFamily=Roboto;fontSize=16;strokeWidth=2;strokeColor=#FF8000;verticalAlign=top;horizontal=0;" parent="Ws0JKRpnU8jsVFA6yoCU-696" source="Ws0JKRpnU8jsVFA6yoCU-351" target="Ws0JKRpnU8jsVFA6yoCU-345" edge="1">
          <mxGeometry relative="1" as="geometry" />
        </mxCell>
        <mxCell id="Ws0JKRpnU8jsVFA6yoCU-351" value="23" style="ellipse;whiteSpace=wrap;html=1;aspect=fixed;fontSize=16;fontFamily=Roboto;rotation=90;verticalAlign=top;horizontal=0;" parent="Ws0JKRpnU8jsVFA6yoCU-696" vertex="1">
          <mxGeometry x="200" y="20" width="30" height="30" as="geometry" />
        </mxCell>
        <mxCell id="Ws0JKRpnU8jsVFA6yoCU-352" style="edgeStyle=none;rounded=0;orthogonalLoop=1;jettySize=auto;html=1;exitX=0.5;exitY=1;exitDx=0;exitDy=0;entryX=0.5;entryY=0;entryDx=0;entryDy=0;endArrow=none;endFill=0;fontFamily=Roboto;fontSize=16;strokeWidth=2;strokeColor=#FF8000;verticalAlign=top;horizontal=0;" parent="Ws0JKRpnU8jsVFA6yoCU-696" source="Ws0JKRpnU8jsVFA6yoCU-355" target="Ws0JKRpnU8jsVFA6yoCU-345" edge="1">
          <mxGeometry relative="1" as="geometry" />
        </mxCell>
        <mxCell id="Ws0JKRpnU8jsVFA6yoCU-354" style="edgeStyle=none;rounded=0;orthogonalLoop=1;jettySize=auto;html=1;exitX=0;exitY=0.5;exitDx=0;exitDy=0;entryX=1;entryY=0.5;entryDx=0;entryDy=0;endArrow=none;endFill=0;fontFamily=Roboto;fontSize=16;strokeColor=#00CC00;strokeWidth=2;verticalAlign=top;horizontal=0;" parent="Ws0JKRpnU8jsVFA6yoCU-696" source="Ws0JKRpnU8jsVFA6yoCU-355" target="Ws0JKRpnU8jsVFA6yoCU-351" edge="1">
          <mxGeometry relative="1" as="geometry" />
        </mxCell>
        <mxCell id="Ws0JKRpnU8jsVFA6yoCU-355" value="24" style="ellipse;whiteSpace=wrap;html=1;aspect=fixed;fontSize=16;fontFamily=Roboto;rotation=90;verticalAlign=top;horizontal=0;" parent="Ws0JKRpnU8jsVFA6yoCU-696" vertex="1">
          <mxGeometry x="200" y="90" width="30" height="30" as="geometry" />
        </mxCell>
        <mxCell id="Ws0JKRpnU8jsVFA6yoCU-356" style="edgeStyle=none;rounded=0;orthogonalLoop=1;jettySize=auto;html=1;exitX=1;exitY=0;exitDx=0;exitDy=0;entryX=0;entryY=1;entryDx=0;entryDy=0;endArrow=none;endFill=0;fontFamily=Roboto;fontSize=16;strokeWidth=2;strokeColor=#FF8000;verticalAlign=top;horizontal=0;" parent="Ws0JKRpnU8jsVFA6yoCU-696" source="Ws0JKRpnU8jsVFA6yoCU-342" target="Ws0JKRpnU8jsVFA6yoCU-355" edge="1">
          <mxGeometry relative="1" as="geometry" />
        </mxCell>
        <mxCell id="Ws0JKRpnU8jsVFA6yoCU-357" style="edgeStyle=none;rounded=0;orthogonalLoop=1;jettySize=auto;html=1;exitX=0.5;exitY=1;exitDx=0;exitDy=0;entryX=0.5;entryY=0;entryDx=0;entryDy=0;endArrow=none;endFill=0;fontFamily=Roboto;fontSize=16;strokeWidth=2;strokeColor=#FF8000;verticalAlign=top;horizontal=0;" parent="Ws0JKRpnU8jsVFA6yoCU-696" source="Ws0JKRpnU8jsVFA6yoCU-360" target="Ws0JKRpnU8jsVFA6yoCU-351" edge="1">
          <mxGeometry relative="1" as="geometry" />
        </mxCell>
        <mxCell id="Ws0JKRpnU8jsVFA6yoCU-359" style="edgeStyle=none;rounded=0;orthogonalLoop=1;jettySize=auto;html=1;exitX=1;exitY=1;exitDx=0;exitDy=0;endArrow=none;endFill=0;fontFamily=Roboto;fontSize=16;entryX=0;entryY=0;entryDx=0;entryDy=0;strokeWidth=2;strokeColor=#FF8000;verticalAlign=top;horizontal=0;" parent="Ws0JKRpnU8jsVFA6yoCU-696" source="Ws0JKRpnU8jsVFA6yoCU-360" target="Ws0JKRpnU8jsVFA6yoCU-355" edge="1">
          <mxGeometry relative="1" as="geometry">
            <mxPoint x="220" y="90" as="targetPoint" />
          </mxGeometry>
        </mxCell>
        <mxCell id="Ws0JKRpnU8jsVFA6yoCU-360" value="25" style="ellipse;whiteSpace=wrap;html=1;aspect=fixed;fontSize=16;fontFamily=Roboto;rotation=90;verticalAlign=top;horizontal=0;" parent="Ws0JKRpnU8jsVFA6yoCU-696" vertex="1">
          <mxGeometry x="260" y="20" width="30" height="30" as="geometry" />
        </mxCell>
        <mxCell id="Ws0JKRpnU8jsVFA6yoCU-362" style="edgeStyle=none;rounded=0;orthogonalLoop=1;jettySize=auto;html=1;exitX=0.5;exitY=1;exitDx=0;exitDy=0;entryX=0.5;entryY=0;entryDx=0;entryDy=0;endArrow=none;endFill=0;fontFamily=Roboto;fontSize=16;strokeWidth=2;strokeColor=#FF8000;verticalAlign=top;horizontal=0;" parent="Ws0JKRpnU8jsVFA6yoCU-696" source="Ws0JKRpnU8jsVFA6yoCU-363" target="Ws0JKRpnU8jsVFA6yoCU-355" edge="1">
          <mxGeometry relative="1" as="geometry" />
        </mxCell>
        <mxCell id="Ws0JKRpnU8jsVFA6yoCU-363" value="26" style="ellipse;whiteSpace=wrap;html=1;aspect=fixed;fontSize=16;fontFamily=Roboto;rotation=90;verticalAlign=top;horizontal=0;" parent="Ws0JKRpnU8jsVFA6yoCU-696" vertex="1">
          <mxGeometry x="260" y="90" width="30" height="30" as="geometry" />
        </mxCell>
        <mxCell id="Ws0JKRpnU8jsVFA6yoCU-364" style="edgeStyle=none;rounded=0;orthogonalLoop=1;jettySize=auto;html=1;exitX=1;exitY=0;exitDx=0;exitDy=0;entryX=0;entryY=1;entryDx=0;entryDy=0;endArrow=none;endFill=0;fontFamily=Roboto;fontSize=16;strokeWidth=2;strokeColor=#FF8000;verticalAlign=top;horizontal=0;" parent="Ws0JKRpnU8jsVFA6yoCU-696" source="Ws0JKRpnU8jsVFA6yoCU-351" target="Ws0JKRpnU8jsVFA6yoCU-363" edge="1">
          <mxGeometry relative="1" as="geometry" />
        </mxCell>
        <mxCell id="Ws0JKRpnU8jsVFA6yoCU-365" style="edgeStyle=none;rounded=0;orthogonalLoop=1;jettySize=auto;html=1;exitX=1;exitY=0.5;exitDx=0;exitDy=0;entryX=0;entryY=0.5;entryDx=0;entryDy=0;endArrow=none;endFill=0;fontFamily=Roboto;fontSize=16;strokeColor=#00CC00;strokeWidth=2;verticalAlign=top;horizontal=0;" parent="Ws0JKRpnU8jsVFA6yoCU-696" source="Ws0JKRpnU8jsVFA6yoCU-360" target="Ws0JKRpnU8jsVFA6yoCU-363" edge="1">
          <mxGeometry relative="1" as="geometry" />
        </mxCell>
        <mxCell id="Ws0JKRpnU8jsVFA6yoCU-366" style="edgeStyle=none;rounded=0;orthogonalLoop=1;jettySize=auto;html=1;exitX=0.5;exitY=1;exitDx=0;exitDy=0;entryX=0.5;entryY=0;entryDx=0;entryDy=0;endArrow=none;endFill=0;fontFamily=Roboto;fontSize=16;strokeWidth=2;strokeColor=#FF8000;verticalAlign=top;horizontal=0;" parent="Ws0JKRpnU8jsVFA6yoCU-696" source="Ws0JKRpnU8jsVFA6yoCU-369" target="Ws0JKRpnU8jsVFA6yoCU-360" edge="1">
          <mxGeometry relative="1" as="geometry" />
        </mxCell>
        <mxCell id="Ws0JKRpnU8jsVFA6yoCU-368" style="edgeStyle=none;rounded=0;orthogonalLoop=1;jettySize=auto;html=1;exitX=1;exitY=1;exitDx=0;exitDy=0;entryX=0;entryY=0;entryDx=0;entryDy=0;endArrow=none;endFill=0;fontFamily=Roboto;fontSize=16;strokeWidth=2;strokeColor=#FF8000;verticalAlign=top;horizontal=0;" parent="Ws0JKRpnU8jsVFA6yoCU-696" source="Ws0JKRpnU8jsVFA6yoCU-369" target="Ws0JKRpnU8jsVFA6yoCU-363" edge="1">
          <mxGeometry relative="1" as="geometry" />
        </mxCell>
        <mxCell id="Ws0JKRpnU8jsVFA6yoCU-369" value="27" style="ellipse;whiteSpace=wrap;html=1;aspect=fixed;fontSize=16;fontFamily=Roboto;rotation=90;verticalAlign=top;horizontal=0;" parent="Ws0JKRpnU8jsVFA6yoCU-696" vertex="1">
          <mxGeometry x="320" y="20" width="30" height="30" as="geometry" />
        </mxCell>
        <mxCell id="Ws0JKRpnU8jsVFA6yoCU-371" style="edgeStyle=none;rounded=0;orthogonalLoop=1;jettySize=auto;html=1;exitX=0.5;exitY=1;exitDx=0;exitDy=0;entryX=0.5;entryY=0;entryDx=0;entryDy=0;endArrow=none;endFill=0;fontFamily=Roboto;fontSize=16;strokeWidth=2;strokeColor=#FF8000;verticalAlign=top;horizontal=0;" parent="Ws0JKRpnU8jsVFA6yoCU-696" source="Ws0JKRpnU8jsVFA6yoCU-372" target="Ws0JKRpnU8jsVFA6yoCU-363" edge="1">
          <mxGeometry relative="1" as="geometry" />
        </mxCell>
        <mxCell id="Ws0JKRpnU8jsVFA6yoCU-372" value="28" style="ellipse;whiteSpace=wrap;html=1;aspect=fixed;fontSize=16;fontFamily=Roboto;rotation=90;verticalAlign=top;horizontal=0;" parent="Ws0JKRpnU8jsVFA6yoCU-696" vertex="1">
          <mxGeometry x="320" y="90" width="30" height="30" as="geometry" />
        </mxCell>
        <mxCell id="Ws0JKRpnU8jsVFA6yoCU-373" style="edgeStyle=none;rounded=0;orthogonalLoop=1;jettySize=auto;html=1;exitX=1;exitY=0;exitDx=0;exitDy=0;entryX=0;entryY=1;entryDx=0;entryDy=0;endArrow=none;endFill=0;fontFamily=Roboto;fontSize=16;strokeWidth=2;strokeColor=#FF8000;verticalAlign=top;horizontal=0;" parent="Ws0JKRpnU8jsVFA6yoCU-696" source="Ws0JKRpnU8jsVFA6yoCU-360" target="Ws0JKRpnU8jsVFA6yoCU-372" edge="1">
          <mxGeometry relative="1" as="geometry" />
        </mxCell>
        <mxCell id="Ws0JKRpnU8jsVFA6yoCU-374" style="edgeStyle=none;rounded=0;orthogonalLoop=1;jettySize=auto;html=1;exitX=1;exitY=0.5;exitDx=0;exitDy=0;entryX=0;entryY=0.5;entryDx=0;entryDy=0;endArrow=none;endFill=0;fontFamily=Roboto;fontSize=16;strokeColor=#00CC00;strokeWidth=2;verticalAlign=top;horizontal=0;" parent="Ws0JKRpnU8jsVFA6yoCU-696" source="Ws0JKRpnU8jsVFA6yoCU-369" target="Ws0JKRpnU8jsVFA6yoCU-372" edge="1">
          <mxGeometry relative="1" as="geometry" />
        </mxCell>
        <mxCell id="Ws0JKRpnU8jsVFA6yoCU-375" style="rounded=0;orthogonalLoop=1;jettySize=auto;html=1;exitX=0.5;exitY=1;exitDx=0;exitDy=0;entryX=0.5;entryY=0;entryDx=0;entryDy=0;fontFamily=Roboto;fontSize=16;endArrow=none;endFill=0;strokeWidth=2;strokeColor=#FF8000;verticalAlign=top;horizontal=0;" parent="Ws0JKRpnU8jsVFA6yoCU-696" source="Ws0JKRpnU8jsVFA6yoCU-378" target="Ws0JKRpnU8jsVFA6yoCU-369" edge="1">
          <mxGeometry relative="1" as="geometry" />
        </mxCell>
        <mxCell id="Ws0JKRpnU8jsVFA6yoCU-377" style="edgeStyle=none;rounded=0;orthogonalLoop=1;jettySize=auto;html=1;exitX=1;exitY=1;exitDx=0;exitDy=0;entryX=0;entryY=0;entryDx=0;entryDy=0;endArrow=none;endFill=0;fontFamily=Roboto;fontSize=16;strokeWidth=2;strokeColor=#FF8000;verticalAlign=top;horizontal=0;" parent="Ws0JKRpnU8jsVFA6yoCU-696" source="Ws0JKRpnU8jsVFA6yoCU-378" target="Ws0JKRpnU8jsVFA6yoCU-372" edge="1">
          <mxGeometry relative="1" as="geometry" />
        </mxCell>
        <mxCell id="Ws0JKRpnU8jsVFA6yoCU-378" value="29" style="ellipse;whiteSpace=wrap;html=1;aspect=fixed;fontSize=16;fontFamily=Roboto;rotation=90;verticalAlign=top;horizontal=0;" parent="Ws0JKRpnU8jsVFA6yoCU-696" vertex="1">
          <mxGeometry x="380" y="20" width="30" height="30" as="geometry" />
        </mxCell>
        <mxCell id="Ws0JKRpnU8jsVFA6yoCU-380" style="edgeStyle=none;rounded=0;orthogonalLoop=1;jettySize=auto;html=1;exitX=0.5;exitY=1;exitDx=0;exitDy=0;entryX=0.5;entryY=0;entryDx=0;entryDy=0;endArrow=none;endFill=0;fontFamily=Roboto;fontSize=16;strokeWidth=2;strokeColor=#FF8000;verticalAlign=top;horizontal=0;" parent="Ws0JKRpnU8jsVFA6yoCU-696" source="Ws0JKRpnU8jsVFA6yoCU-381" target="Ws0JKRpnU8jsVFA6yoCU-372" edge="1">
          <mxGeometry relative="1" as="geometry" />
        </mxCell>
        <mxCell id="Ws0JKRpnU8jsVFA6yoCU-381" value="30" style="ellipse;whiteSpace=wrap;html=1;aspect=fixed;fontSize=16;fontFamily=Roboto;rotation=90;verticalAlign=top;horizontal=0;" parent="Ws0JKRpnU8jsVFA6yoCU-696" vertex="1">
          <mxGeometry x="380" y="90" width="30" height="30" as="geometry" />
        </mxCell>
        <mxCell id="Ws0JKRpnU8jsVFA6yoCU-382" style="edgeStyle=none;rounded=0;orthogonalLoop=1;jettySize=auto;html=1;exitX=1;exitY=0;exitDx=0;exitDy=0;entryX=0;entryY=1;entryDx=0;entryDy=0;endArrow=none;endFill=0;fontFamily=Roboto;fontSize=16;strokeWidth=2;strokeColor=#FF8000;verticalAlign=top;horizontal=0;" parent="Ws0JKRpnU8jsVFA6yoCU-696" source="Ws0JKRpnU8jsVFA6yoCU-369" target="Ws0JKRpnU8jsVFA6yoCU-381" edge="1">
          <mxGeometry relative="1" as="geometry" />
        </mxCell>
        <mxCell id="Ws0JKRpnU8jsVFA6yoCU-383" style="edgeStyle=none;rounded=0;orthogonalLoop=1;jettySize=auto;html=1;exitX=1;exitY=0.5;exitDx=0;exitDy=0;endArrow=none;endFill=0;fontFamily=Roboto;fontSize=16;strokeColor=#00CC00;strokeWidth=2;verticalAlign=top;horizontal=0;" parent="Ws0JKRpnU8jsVFA6yoCU-696" source="Ws0JKRpnU8jsVFA6yoCU-378" target="Ws0JKRpnU8jsVFA6yoCU-381" edge="1">
          <mxGeometry relative="1" as="geometry" />
        </mxCell>
        <mxCell id="Su0HvrgJdk693_J9CV8J-13" style="rounded=0;orthogonalLoop=1;jettySize=auto;html=1;exitX=0.5;exitY=1;exitDx=0;exitDy=0;entryX=0.5;entryY=0;entryDx=0;entryDy=0;fontFamily=Roboto;fontSize=16;endArrow=none;endFill=0;strokeWidth=2;strokeColor=#FF8000;verticalAlign=top;horizontal=0;" edge="1" parent="Ws0JKRpnU8jsVFA6yoCU-696" source="Su0HvrgJdk693_J9CV8J-15">
          <mxGeometry relative="1" as="geometry">
            <mxPoint x="411" y="34" as="targetPoint" />
          </mxGeometry>
        </mxCell>
        <mxCell id="Su0HvrgJdk693_J9CV8J-14" style="edgeStyle=none;rounded=0;orthogonalLoop=1;jettySize=auto;html=1;exitX=1;exitY=1;exitDx=0;exitDy=0;entryX=0.167;entryY=0.067;entryDx=0;entryDy=0;endArrow=none;endFill=0;fontFamily=Roboto;fontSize=16;strokeWidth=2;strokeColor=#FF8000;verticalAlign=top;horizontal=0;entryPerimeter=0;" edge="1" parent="Ws0JKRpnU8jsVFA6yoCU-696" source="Su0HvrgJdk693_J9CV8J-15" target="Ws0JKRpnU8jsVFA6yoCU-381">
          <mxGeometry relative="1" as="geometry">
            <mxPoint x="407" y="93" as="targetPoint" />
          </mxGeometry>
        </mxCell>
        <mxCell id="Su0HvrgJdk693_J9CV8J-15" value="31" style="ellipse;whiteSpace=wrap;html=1;aspect=fixed;fontSize=16;fontFamily=Roboto;rotation=90;verticalAlign=top;horizontal=0;fillColor=#647687;strokeColor=#314354;fontColor=#ffffff;" vertex="1" parent="Ws0JKRpnU8jsVFA6yoCU-696">
          <mxGeometry x="441" y="19" width="30" height="30" as="geometry" />
        </mxCell>
        <mxCell id="Su0HvrgJdk693_J9CV8J-16" style="edgeStyle=none;rounded=0;orthogonalLoop=1;jettySize=auto;html=1;exitX=0.5;exitY=1;exitDx=0;exitDy=0;entryX=0.5;entryY=0;entryDx=0;entryDy=0;endArrow=none;endFill=0;fontFamily=Roboto;fontSize=16;strokeWidth=2;strokeColor=#FF8000;verticalAlign=top;horizontal=0;" edge="1" parent="Ws0JKRpnU8jsVFA6yoCU-696" source="Su0HvrgJdk693_J9CV8J-17">
          <mxGeometry relative="1" as="geometry">
            <mxPoint x="411" y="104" as="targetPoint" />
          </mxGeometry>
        </mxCell>
        <mxCell id="Su0HvrgJdk693_J9CV8J-17" value="32" style="ellipse;whiteSpace=wrap;html=1;aspect=fixed;fontSize=16;fontFamily=Roboto;rotation=90;verticalAlign=top;horizontal=0;fillColor=#647687;strokeColor=#314354;fontColor=#ffffff;" vertex="1" parent="Ws0JKRpnU8jsVFA6yoCU-696">
          <mxGeometry x="441" y="89" width="30" height="30" as="geometry" />
        </mxCell>
        <mxCell id="Su0HvrgJdk693_J9CV8J-18" style="edgeStyle=none;rounded=0;orthogonalLoop=1;jettySize=auto;html=1;exitX=1;exitY=0;exitDx=0;exitDy=0;entryX=0;entryY=1;entryDx=0;entryDy=0;endArrow=none;endFill=0;fontFamily=Roboto;fontSize=16;strokeWidth=2;strokeColor=#FF8000;verticalAlign=top;horizontal=0;" edge="1" parent="Ws0JKRpnU8jsVFA6yoCU-696" target="Su0HvrgJdk693_J9CV8J-17">
          <mxGeometry relative="1" as="geometry">
            <mxPoint x="407" y="45" as="sourcePoint" />
          </mxGeometry>
        </mxCell>
        <mxCell id="Su0HvrgJdk693_J9CV8J-19" style="edgeStyle=none;rounded=0;orthogonalLoop=1;jettySize=auto;html=1;exitX=1;exitY=0.5;exitDx=0;exitDy=0;endArrow=none;endFill=0;fontFamily=Roboto;fontSize=16;strokeColor=#00CC00;strokeWidth=2;verticalAlign=top;horizontal=0;" edge="1" parent="Ws0JKRpnU8jsVFA6yoCU-696" source="Su0HvrgJdk693_J9CV8J-15" target="Su0HvrgJdk693_J9CV8J-17">
          <mxGeometry relative="1" as="geometry" />
        </mxCell>
        <mxCell id="Ws0JKRpnU8jsVFA6yoCU-806" style="edgeStyle=none;rounded=0;orthogonalLoop=1;jettySize=auto;html=1;exitX=0.5;exitY=0;exitDx=0;exitDy=0;entryX=0.5;entryY=1;entryDx=0;entryDy=0;endArrow=none;endFill=0;strokeColor=#00CC00;strokeWidth=2;fontFamily=Roboto;fontSize=16;" parent="1" source="Ws0JKRpnU8jsVFA6yoCU-23" target="Ws0JKRpnU8jsVFA6yoCU-6" edge="1">
          <mxGeometry relative="1" as="geometry" />
        </mxCell>
        <mxCell id="Ws0JKRpnU8jsVFA6yoCU-807" style="edgeStyle=none;rounded=0;orthogonalLoop=1;jettySize=auto;html=1;exitX=0.5;exitY=0;exitDx=0;exitDy=0;entryX=0.5;entryY=1;entryDx=0;entryDy=0;endArrow=none;endFill=0;strokeColor=#00CC00;strokeWidth=2;fontFamily=Roboto;fontSize=16;" parent="1" source="Ws0JKRpnU8jsVFA6yoCU-23" target="Ws0JKRpnU8jsVFA6yoCU-7" edge="1">
          <mxGeometry relative="1" as="geometry" />
        </mxCell>
        <mxCell id="Ws0JKRpnU8jsVFA6yoCU-23" value="IXP 120" style="rounded=1;whiteSpace=wrap;html=1;fontFamily=Roboto;fontSize=20;" parent="1" vertex="1">
          <mxGeometry x="392" y="750" width="120" height="60" as="geometry" />
        </mxCell>
        <mxCell id="Ws0JKRpnU8jsVFA6yoCU-686" value="IXP 125" style="rounded=1;whiteSpace=wrap;html=1;fontFamily=Roboto;fontSize=20;" parent="1" vertex="1">
          <mxGeometry x="86.13" y="1180" width="120" height="60" as="geometry" />
        </mxCell>
        <mxCell id="Ws0JKRpnU8jsVFA6yoCU-702" style="edgeStyle=none;rounded=0;orthogonalLoop=1;jettySize=auto;html=1;exitX=0;exitY=0;exitDx=0;exitDy=0;entryX=1;entryY=0.5;entryDx=0;entryDy=0;endArrow=none;endFill=0;strokeColor=#00CC00;strokeWidth=2;fontFamily=Roboto;fontSize=16;" parent="1" source="Ws0JKRpnU8jsVFA6yoCU-687" target="Ws0JKRpnU8jsVFA6yoCU-677" edge="1">
          <mxGeometry relative="1" as="geometry" />
        </mxCell>
        <mxCell id="Ws0JKRpnU8jsVFA6yoCU-703" style="edgeStyle=none;rounded=0;orthogonalLoop=1;jettySize=auto;html=1;exitX=0.25;exitY=0;exitDx=0;exitDy=0;entryX=1;entryY=0.5;entryDx=0;entryDy=0;endArrow=none;endFill=0;strokeColor=#00CC00;strokeWidth=2;fontFamily=Roboto;fontSize=16;" parent="1" source="Ws0JKRpnU8jsVFA6yoCU-687" target="Ws0JKRpnU8jsVFA6yoCU-668" edge="1">
          <mxGeometry relative="1" as="geometry" />
        </mxCell>
        <mxCell id="Ws0JKRpnU8jsVFA6yoCU-704" style="edgeStyle=none;rounded=0;orthogonalLoop=1;jettySize=auto;html=1;exitX=0.5;exitY=0;exitDx=0;exitDy=0;entryX=1;entryY=0.5;entryDx=0;entryDy=0;endArrow=none;endFill=0;strokeColor=#00CC00;strokeWidth=2;fontFamily=Roboto;fontSize=16;" parent="1" source="Ws0JKRpnU8jsVFA6yoCU-687" target="Ws0JKRpnU8jsVFA6yoCU-659" edge="1">
          <mxGeometry relative="1" as="geometry" />
        </mxCell>
        <mxCell id="Ws0JKRpnU8jsVFA6yoCU-706" style="edgeStyle=none;rounded=0;orthogonalLoop=1;jettySize=auto;html=1;exitX=1;exitY=0;exitDx=0;exitDy=0;entryX=1;entryY=0.5;entryDx=0;entryDy=0;endArrow=none;endFill=0;strokeColor=#00CC00;strokeWidth=2;fontFamily=Roboto;fontSize=16;" parent="1" source="Ws0JKRpnU8jsVFA6yoCU-687" target="Ws0JKRpnU8jsVFA6yoCU-629" edge="1">
          <mxGeometry relative="1" as="geometry" />
        </mxCell>
        <mxCell id="Ws0JKRpnU8jsVFA6yoCU-707" style="edgeStyle=none;rounded=0;orthogonalLoop=1;jettySize=auto;html=1;exitX=0.5;exitY=0;exitDx=0;exitDy=0;entryX=1;entryY=0.5;entryDx=0;entryDy=0;endArrow=none;endFill=0;strokeColor=#00CC00;strokeWidth=2;fontFamily=Roboto;fontSize=16;" parent="1" source="Ws0JKRpnU8jsVFA6yoCU-687" target="Ws0JKRpnU8jsVFA6yoCU-642" edge="1">
          <mxGeometry relative="1" as="geometry" />
        </mxCell>
        <mxCell id="Ws0JKRpnU8jsVFA6yoCU-708" style="edgeStyle=none;rounded=0;orthogonalLoop=1;jettySize=auto;html=1;exitX=0.75;exitY=0;exitDx=0;exitDy=0;entryX=1;entryY=0.5;entryDx=0;entryDy=0;endArrow=none;endFill=0;strokeColor=#00CC00;strokeWidth=2;fontFamily=Roboto;fontSize=16;" parent="1" source="Ws0JKRpnU8jsVFA6yoCU-687" target="Ws0JKRpnU8jsVFA6yoCU-633" edge="1">
          <mxGeometry relative="1" as="geometry" />
        </mxCell>
        <mxCell id="Ws0JKRpnU8jsVFA6yoCU-711" style="edgeStyle=none;rounded=0;orthogonalLoop=1;jettySize=auto;html=1;exitX=0;exitY=1;exitDx=0;exitDy=0;entryX=0;entryY=0.5;entryDx=0;entryDy=0;endArrow=none;endFill=0;strokeColor=#00CC00;strokeWidth=2;fontFamily=Roboto;fontSize=16;" parent="1" source="Ws0JKRpnU8jsVFA6yoCU-687" target="Ws0JKRpnU8jsVFA6yoCU-622" edge="1">
          <mxGeometry relative="1" as="geometry" />
        </mxCell>
        <mxCell id="Ws0JKRpnU8jsVFA6yoCU-712" style="edgeStyle=none;rounded=0;orthogonalLoop=1;jettySize=auto;html=1;exitX=0.25;exitY=1;exitDx=0;exitDy=0;entryX=0;entryY=0.5;entryDx=0;entryDy=0;endArrow=none;endFill=0;strokeColor=#00CC00;strokeWidth=2;fontFamily=Roboto;fontSize=16;" parent="1" source="Ws0JKRpnU8jsVFA6yoCU-687" target="Ws0JKRpnU8jsVFA6yoCU-613" edge="1">
          <mxGeometry relative="1" as="geometry" />
        </mxCell>
        <mxCell id="Ws0JKRpnU8jsVFA6yoCU-713" style="edgeStyle=none;rounded=0;orthogonalLoop=1;jettySize=auto;html=1;exitX=0.5;exitY=1;exitDx=0;exitDy=0;entryX=0;entryY=0.5;entryDx=0;entryDy=0;endArrow=none;endFill=0;strokeColor=#00CC00;strokeWidth=2;fontFamily=Roboto;fontSize=16;" parent="1" source="Ws0JKRpnU8jsVFA6yoCU-687" target="Ws0JKRpnU8jsVFA6yoCU-604" edge="1">
          <mxGeometry relative="1" as="geometry" />
        </mxCell>
        <mxCell id="Ws0JKRpnU8jsVFA6yoCU-714" style="edgeStyle=none;rounded=0;orthogonalLoop=1;jettySize=auto;html=1;exitX=0.5;exitY=1;exitDx=0;exitDy=0;entryX=0;entryY=0.5;entryDx=0;entryDy=0;endArrow=none;endFill=0;strokeColor=#00CC00;strokeWidth=2;fontFamily=Roboto;fontSize=16;" parent="1" source="Ws0JKRpnU8jsVFA6yoCU-687" target="Ws0JKRpnU8jsVFA6yoCU-595" edge="1">
          <mxGeometry relative="1" as="geometry" />
        </mxCell>
        <mxCell id="Ws0JKRpnU8jsVFA6yoCU-715" style="edgeStyle=none;rounded=0;orthogonalLoop=1;jettySize=auto;html=1;exitX=0.5;exitY=1;exitDx=0;exitDy=0;entryX=0;entryY=0.5;entryDx=0;entryDy=0;endArrow=none;endFill=0;strokeColor=#00CC00;strokeWidth=2;fontFamily=Roboto;fontSize=16;" parent="1" source="Ws0JKRpnU8jsVFA6yoCU-687" target="Ws0JKRpnU8jsVFA6yoCU-586" edge="1">
          <mxGeometry relative="1" as="geometry" />
        </mxCell>
        <mxCell id="Ws0JKRpnU8jsVFA6yoCU-716" style="edgeStyle=none;rounded=0;orthogonalLoop=1;jettySize=auto;html=1;exitX=0.75;exitY=1;exitDx=0;exitDy=0;entryX=0;entryY=0.5;entryDx=0;entryDy=0;endArrow=none;endFill=0;strokeColor=#00CC00;strokeWidth=2;fontFamily=Roboto;fontSize=16;" parent="1" source="Ws0JKRpnU8jsVFA6yoCU-687" target="Ws0JKRpnU8jsVFA6yoCU-578" edge="1">
          <mxGeometry relative="1" as="geometry" />
        </mxCell>
        <mxCell id="Ws0JKRpnU8jsVFA6yoCU-717" style="edgeStyle=none;rounded=0;orthogonalLoop=1;jettySize=auto;html=1;exitX=1;exitY=1;exitDx=0;exitDy=0;entryX=0;entryY=0.5;entryDx=0;entryDy=0;endArrow=none;endFill=0;strokeColor=#00CC00;strokeWidth=2;fontFamily=Roboto;fontSize=16;" parent="1" source="Ws0JKRpnU8jsVFA6yoCU-687" target="Ws0JKRpnU8jsVFA6yoCU-571" edge="1">
          <mxGeometry relative="1" as="geometry" />
        </mxCell>
        <mxCell id="Ws0JKRpnU8jsVFA6yoCU-687" value="IXP 126" style="rounded=1;whiteSpace=wrap;html=1;fontFamily=Roboto;fontSize=20;" parent="1" vertex="1">
          <mxGeometry x="83.00999999999999" y="750" width="120" height="60" as="geometry" />
        </mxCell>
        <mxCell id="Ws0JKRpnU8jsVFA6yoCU-688" value="IXP 124" style="rounded=1;whiteSpace=wrap;html=1;fontFamily=Roboto;fontSize=20;" parent="1" vertex="1">
          <mxGeometry x="717" y="1185" width="120" height="60" as="geometry" />
        </mxCell>
        <mxCell id="Ws0JKRpnU8jsVFA6yoCU-764" style="edgeStyle=none;rounded=0;orthogonalLoop=1;jettySize=auto;html=1;exitX=0.5;exitY=1;exitDx=0;exitDy=0;entryX=0;entryY=0.5;entryDx=0;entryDy=0;endArrow=none;endFill=0;strokeColor=#00CC00;strokeWidth=2;fontFamily=Roboto;fontSize=16;" parent="1" source="Ws0JKRpnU8jsVFA6yoCU-689" target="Ws0JKRpnU8jsVFA6yoCU-646" edge="1">
          <mxGeometry relative="1" as="geometry" />
        </mxCell>
        <mxCell id="Ws0JKRpnU8jsVFA6yoCU-765" style="edgeStyle=none;rounded=0;orthogonalLoop=1;jettySize=auto;html=1;exitX=0.5;exitY=1;exitDx=0;exitDy=0;entryX=0;entryY=0.5;entryDx=0;entryDy=0;endArrow=none;endFill=0;strokeColor=#00CC00;strokeWidth=2;fontFamily=Roboto;fontSize=16;" parent="1" source="Ws0JKRpnU8jsVFA6yoCU-689" target="Ws0JKRpnU8jsVFA6yoCU-664" edge="1">
          <mxGeometry relative="1" as="geometry" />
        </mxCell>
        <mxCell id="Ws0JKRpnU8jsVFA6yoCU-766" style="edgeStyle=none;rounded=0;orthogonalLoop=1;jettySize=auto;html=1;exitX=0.75;exitY=1;exitDx=0;exitDy=0;entryX=0;entryY=0.5;entryDx=0;entryDy=0;endArrow=none;endFill=0;strokeColor=#00CC00;strokeWidth=2;fontFamily=Roboto;fontSize=16;" parent="1" source="Ws0JKRpnU8jsVFA6yoCU-689" target="Ws0JKRpnU8jsVFA6yoCU-638" edge="1">
          <mxGeometry relative="1" as="geometry" />
        </mxCell>
        <mxCell id="Ws0JKRpnU8jsVFA6yoCU-767" style="edgeStyle=none;rounded=0;orthogonalLoop=1;jettySize=auto;html=1;exitX=1;exitY=1;exitDx=0;exitDy=0;entryX=0;entryY=0.5;entryDx=0;entryDy=0;endArrow=none;endFill=0;strokeColor=#00CC00;strokeWidth=2;fontFamily=Roboto;fontSize=16;" parent="1" source="Ws0JKRpnU8jsVFA6yoCU-689" target="Ws0JKRpnU8jsVFA6yoCU-631" edge="1">
          <mxGeometry relative="1" as="geometry" />
        </mxCell>
        <mxCell id="Ws0JKRpnU8jsVFA6yoCU-768" style="edgeStyle=none;rounded=0;orthogonalLoop=1;jettySize=auto;html=1;exitX=0.25;exitY=1;exitDx=0;exitDy=0;entryX=0;entryY=0.5;entryDx=0;entryDy=0;endArrow=none;endFill=0;strokeColor=#00CC00;strokeWidth=2;fontFamily=Roboto;fontSize=16;" parent="1" source="Ws0JKRpnU8jsVFA6yoCU-689" target="Ws0JKRpnU8jsVFA6yoCU-673" edge="1">
          <mxGeometry relative="1" as="geometry" />
        </mxCell>
        <mxCell id="Ws0JKRpnU8jsVFA6yoCU-769" style="edgeStyle=none;rounded=0;orthogonalLoop=1;jettySize=auto;html=1;exitX=0;exitY=1;exitDx=0;exitDy=0;entryX=0;entryY=0.5;entryDx=0;entryDy=0;endArrow=none;endFill=0;strokeColor=#00CC00;strokeWidth=2;fontFamily=Roboto;fontSize=16;" parent="1" source="Ws0JKRpnU8jsVFA6yoCU-689" target="Ws0JKRpnU8jsVFA6yoCU-682" edge="1">
          <mxGeometry relative="1" as="geometry" />
        </mxCell>
        <mxCell id="Ws0JKRpnU8jsVFA6yoCU-770" style="edgeStyle=none;rounded=0;orthogonalLoop=1;jettySize=auto;html=1;exitX=1;exitY=0.5;exitDx=0;exitDy=0;entryX=0;entryY=0.5;entryDx=0;entryDy=0;endArrow=none;endFill=0;strokeColor=#00CC00;strokeWidth=2;fontFamily=Roboto;fontSize=16;" parent="1" source="Ws0JKRpnU8jsVFA6yoCU-689" target="Ws0JKRpnU8jsVFA6yoCU-13" edge="1">
          <mxGeometry relative="1" as="geometry" />
        </mxCell>
        <mxCell id="Ws0JKRpnU8jsVFA6yoCU-771" style="edgeStyle=none;rounded=0;orthogonalLoop=1;jettySize=auto;html=1;exitX=1;exitY=0.5;exitDx=0;exitDy=0;entryX=0;entryY=0.5;entryDx=0;entryDy=0;endArrow=none;endFill=0;strokeColor=#00CC00;strokeWidth=2;fontFamily=Roboto;fontSize=16;" parent="1" source="Ws0JKRpnU8jsVFA6yoCU-689" target="Ws0JKRpnU8jsVFA6yoCU-15" edge="1">
          <mxGeometry relative="1" as="geometry" />
        </mxCell>
        <mxCell id="Ws0JKRpnU8jsVFA6yoCU-772" style="edgeStyle=none;rounded=0;orthogonalLoop=1;jettySize=auto;html=1;exitX=1;exitY=0.5;exitDx=0;exitDy=0;entryX=0;entryY=0.5;entryDx=0;entryDy=0;endArrow=none;endFill=0;strokeColor=#00CC00;strokeWidth=2;fontFamily=Roboto;fontSize=16;" parent="1" source="Ws0JKRpnU8jsVFA6yoCU-689" target="Ws0JKRpnU8jsVFA6yoCU-11" edge="1">
          <mxGeometry relative="1" as="geometry" />
        </mxCell>
        <mxCell id="Ws0JKRpnU8jsVFA6yoCU-773" style="edgeStyle=none;rounded=0;orthogonalLoop=1;jettySize=auto;html=1;exitX=1;exitY=0.75;exitDx=0;exitDy=0;entryX=0;entryY=0.5;entryDx=0;entryDy=0;endArrow=none;endFill=0;strokeColor=#00CC00;strokeWidth=2;fontFamily=Roboto;fontSize=16;" parent="1" source="Ws0JKRpnU8jsVFA6yoCU-689" target="Ws0JKRpnU8jsVFA6yoCU-8" edge="1">
          <mxGeometry relative="1" as="geometry" />
        </mxCell>
        <mxCell id="Ws0JKRpnU8jsVFA6yoCU-774" style="edgeStyle=none;rounded=0;orthogonalLoop=1;jettySize=auto;html=1;exitX=1;exitY=1;exitDx=0;exitDy=0;entryX=0;entryY=0.5;entryDx=0;entryDy=0;endArrow=none;endFill=0;strokeColor=#00CC00;strokeWidth=2;fontFamily=Roboto;fontSize=16;" parent="1" source="Ws0JKRpnU8jsVFA6yoCU-689" target="Ws0JKRpnU8jsVFA6yoCU-6" edge="1">
          <mxGeometry relative="1" as="geometry" />
        </mxCell>
        <mxCell id="Ws0JKRpnU8jsVFA6yoCU-775" style="edgeStyle=none;rounded=0;orthogonalLoop=1;jettySize=auto;html=1;exitX=1;exitY=0.25;exitDx=0;exitDy=0;entryX=0;entryY=0.5;entryDx=0;entryDy=0;endArrow=none;endFill=0;strokeColor=#00CC00;strokeWidth=2;fontFamily=Roboto;fontSize=16;" parent="1" source="Ws0JKRpnU8jsVFA6yoCU-689" target="Ws0JKRpnU8jsVFA6yoCU-17" edge="1">
          <mxGeometry relative="1" as="geometry" />
        </mxCell>
        <mxCell id="Ws0JKRpnU8jsVFA6yoCU-776" style="edgeStyle=none;rounded=0;orthogonalLoop=1;jettySize=auto;html=1;exitX=1;exitY=0;exitDx=0;exitDy=0;entryX=0;entryY=0.5;entryDx=0;entryDy=0;endArrow=none;endFill=0;strokeColor=#00CC00;strokeWidth=2;fontFamily=Roboto;fontSize=16;" parent="1" source="Ws0JKRpnU8jsVFA6yoCU-689" target="Ws0JKRpnU8jsVFA6yoCU-19" edge="1">
          <mxGeometry relative="1" as="geometry" />
        </mxCell>
        <mxCell id="Ws0JKRpnU8jsVFA6yoCU-779" style="edgeStyle=none;rounded=0;orthogonalLoop=1;jettySize=auto;html=1;exitX=0;exitY=0.5;exitDx=0;exitDy=0;entryX=1;entryY=0.5;entryDx=0;entryDy=0;endArrow=none;endFill=0;strokeColor=#00CC00;strokeWidth=2;fontFamily=Roboto;fontSize=16;" parent="1" source="Ws0JKRpnU8jsVFA6yoCU-690" target="Ws0JKRpnU8jsVFA6yoCU-16" edge="1">
          <mxGeometry relative="1" as="geometry" />
        </mxCell>
        <mxCell id="Ws0JKRpnU8jsVFA6yoCU-780" style="edgeStyle=none;rounded=0;orthogonalLoop=1;jettySize=auto;html=1;exitX=0;exitY=0.5;exitDx=0;exitDy=0;entryX=1;entryY=0.5;entryDx=0;entryDy=0;endArrow=none;endFill=0;strokeColor=#00CC00;strokeWidth=2;fontFamily=Roboto;fontSize=16;" parent="1" source="Ws0JKRpnU8jsVFA6yoCU-690" target="Ws0JKRpnU8jsVFA6yoCU-14" edge="1">
          <mxGeometry relative="1" as="geometry" />
        </mxCell>
        <mxCell id="Ws0JKRpnU8jsVFA6yoCU-781" style="edgeStyle=none;rounded=0;orthogonalLoop=1;jettySize=auto;html=1;exitX=0;exitY=0.5;exitDx=0;exitDy=0;entryX=1;entryY=0.5;entryDx=0;entryDy=0;endArrow=none;endFill=0;strokeColor=#00CC00;strokeWidth=2;fontFamily=Roboto;fontSize=16;" parent="1" source="Ws0JKRpnU8jsVFA6yoCU-690" target="Ws0JKRpnU8jsVFA6yoCU-12" edge="1">
          <mxGeometry relative="1" as="geometry" />
        </mxCell>
        <mxCell id="Ws0JKRpnU8jsVFA6yoCU-782" style="edgeStyle=none;rounded=0;orthogonalLoop=1;jettySize=auto;html=1;exitX=0;exitY=0.75;exitDx=0;exitDy=0;entryX=1;entryY=0.5;entryDx=0;entryDy=0;endArrow=none;endFill=0;strokeColor=#00CC00;strokeWidth=2;fontFamily=Roboto;fontSize=16;" parent="1" source="Ws0JKRpnU8jsVFA6yoCU-690" target="Ws0JKRpnU8jsVFA6yoCU-9" edge="1">
          <mxGeometry relative="1" as="geometry" />
        </mxCell>
        <mxCell id="Ws0JKRpnU8jsVFA6yoCU-783" style="edgeStyle=none;rounded=0;orthogonalLoop=1;jettySize=auto;html=1;exitX=0;exitY=1;exitDx=0;exitDy=0;entryX=1;entryY=0.5;entryDx=0;entryDy=0;endArrow=none;endFill=0;strokeColor=#00CC00;strokeWidth=2;fontFamily=Roboto;fontSize=16;" parent="1" source="Ws0JKRpnU8jsVFA6yoCU-690" target="Ws0JKRpnU8jsVFA6yoCU-7" edge="1">
          <mxGeometry relative="1" as="geometry" />
        </mxCell>
        <mxCell id="Ws0JKRpnU8jsVFA6yoCU-784" style="edgeStyle=none;rounded=0;orthogonalLoop=1;jettySize=auto;html=1;exitX=0.5;exitY=1;exitDx=0;exitDy=0;entryX=0;entryY=0.5;entryDx=0;entryDy=0;endArrow=none;endFill=0;strokeColor=#00CC00;strokeWidth=2;fontFamily=Roboto;fontSize=16;" parent="1" source="Ws0JKRpnU8jsVFA6yoCU-690" target="Ws0JKRpnU8jsVFA6yoCU-351" edge="1">
          <mxGeometry relative="1" as="geometry" />
        </mxCell>
        <mxCell id="Ws0JKRpnU8jsVFA6yoCU-785" style="edgeStyle=none;rounded=0;orthogonalLoop=1;jettySize=auto;html=1;exitX=0.5;exitY=1;exitDx=0;exitDy=0;entryX=0;entryY=0.5;entryDx=0;entryDy=0;endArrow=none;endFill=0;strokeColor=#00CC00;strokeWidth=2;fontFamily=Roboto;fontSize=16;" parent="1" source="Ws0JKRpnU8jsVFA6yoCU-690" target="Ws0JKRpnU8jsVFA6yoCU-342" edge="1">
          <mxGeometry relative="1" as="geometry" />
        </mxCell>
        <mxCell id="Ws0JKRpnU8jsVFA6yoCU-786" style="edgeStyle=none;rounded=0;orthogonalLoop=1;jettySize=auto;html=1;exitX=0.5;exitY=1;exitDx=0;exitDy=0;entryX=0;entryY=0.5;entryDx=0;entryDy=0;endArrow=none;endFill=0;strokeColor=#00CC00;strokeWidth=2;fontFamily=Roboto;fontSize=16;" parent="1" source="Ws0JKRpnU8jsVFA6yoCU-690" target="Ws0JKRpnU8jsVFA6yoCU-360" edge="1">
          <mxGeometry relative="1" as="geometry" />
        </mxCell>
        <mxCell id="Ws0JKRpnU8jsVFA6yoCU-787" style="edgeStyle=none;rounded=0;orthogonalLoop=1;jettySize=auto;html=1;exitX=0.75;exitY=1;exitDx=0;exitDy=0;entryX=0;entryY=0.5;entryDx=0;entryDy=0;endArrow=none;endFill=0;strokeColor=#00CC00;strokeWidth=2;fontFamily=Roboto;fontSize=16;" parent="1" source="Ws0JKRpnU8jsVFA6yoCU-690" target="Ws0JKRpnU8jsVFA6yoCU-369" edge="1">
          <mxGeometry relative="1" as="geometry" />
        </mxCell>
        <mxCell id="Ws0JKRpnU8jsVFA6yoCU-788" style="edgeStyle=none;rounded=0;orthogonalLoop=1;jettySize=auto;html=1;exitX=0.948;exitY=0.958;exitDx=0;exitDy=0;entryX=0;entryY=0.5;entryDx=0;entryDy=0;endArrow=none;endFill=0;strokeColor=#00CC00;strokeWidth=2;fontFamily=Roboto;fontSize=16;exitPerimeter=0;" parent="1" source="Ws0JKRpnU8jsVFA6yoCU-690" target="Ws0JKRpnU8jsVFA6yoCU-378" edge="1">
          <mxGeometry relative="1" as="geometry" />
        </mxCell>
        <mxCell id="Ws0JKRpnU8jsVFA6yoCU-789" style="edgeStyle=none;rounded=0;orthogonalLoop=1;jettySize=auto;html=1;exitX=0.25;exitY=1;exitDx=0;exitDy=0;entryX=0;entryY=0.5;entryDx=0;entryDy=0;endArrow=none;endFill=0;strokeColor=#00CC00;strokeWidth=2;fontFamily=Roboto;fontSize=16;" parent="1" source="Ws0JKRpnU8jsVFA6yoCU-690" target="Ws0JKRpnU8jsVFA6yoCU-333" edge="1">
          <mxGeometry relative="1" as="geometry" />
        </mxCell>
        <mxCell id="Ws0JKRpnU8jsVFA6yoCU-790" style="edgeStyle=none;rounded=0;orthogonalLoop=1;jettySize=auto;html=1;exitX=0.048;exitY=0.958;exitDx=0;exitDy=0;entryX=0;entryY=0.5;entryDx=0;entryDy=0;endArrow=none;endFill=0;strokeColor=#00CC00;strokeWidth=2;fontFamily=Roboto;fontSize=16;exitPerimeter=0;" parent="1" source="Ws0JKRpnU8jsVFA6yoCU-690" target="Ws0JKRpnU8jsVFA6yoCU-327" edge="1">
          <mxGeometry relative="1" as="geometry" />
        </mxCell>
        <mxCell id="Ws0JKRpnU8jsVFA6yoCU-690" value="IXP 122" style="rounded=1;whiteSpace=wrap;html=1;fontFamily=Roboto;fontSize=20;" parent="1" vertex="1">
          <mxGeometry x="717" y="360" width="120" height="60" as="geometry" />
        </mxCell>
        <mxCell id="Ws0JKRpnU8jsVFA6yoCU-718" style="edgeStyle=none;rounded=0;orthogonalLoop=1;jettySize=auto;html=1;exitX=0.5;exitY=0;exitDx=0;exitDy=0;entryX=1;entryY=0.5;entryDx=0;entryDy=0;endArrow=none;endFill=0;strokeColor=#00CC00;strokeWidth=2;fontFamily=Roboto;fontSize=16;" parent="1" source="Ws0JKRpnU8jsVFA6yoCU-692" target="Ws0JKRpnU8jsVFA6yoCU-355" edge="1">
          <mxGeometry relative="1" as="geometry" />
        </mxCell>
        <mxCell id="Ws0JKRpnU8jsVFA6yoCU-719" style="edgeStyle=none;rounded=0;orthogonalLoop=1;jettySize=auto;html=1;exitX=0.5;exitY=0;exitDx=0;exitDy=0;entryX=1;entryY=0.5;entryDx=0;entryDy=0;endArrow=none;endFill=0;strokeColor=#00CC00;strokeWidth=2;fontFamily=Roboto;fontSize=16;" parent="1" source="Ws0JKRpnU8jsVFA6yoCU-692" target="Ws0JKRpnU8jsVFA6yoCU-345" edge="1">
          <mxGeometry relative="1" as="geometry" />
        </mxCell>
        <mxCell id="Ws0JKRpnU8jsVFA6yoCU-720" style="edgeStyle=none;rounded=0;orthogonalLoop=1;jettySize=auto;html=1;exitX=0.5;exitY=0;exitDx=0;exitDy=0;entryX=1;entryY=0.5;entryDx=0;entryDy=0;endArrow=none;endFill=0;strokeColor=#00CC00;strokeWidth=2;fontFamily=Roboto;fontSize=16;" parent="1" source="Ws0JKRpnU8jsVFA6yoCU-692" target="Ws0JKRpnU8jsVFA6yoCU-363" edge="1">
          <mxGeometry relative="1" as="geometry" />
        </mxCell>
        <mxCell id="Ws0JKRpnU8jsVFA6yoCU-721" style="edgeStyle=none;rounded=0;orthogonalLoop=1;jettySize=auto;html=1;exitX=0.25;exitY=0;exitDx=0;exitDy=0;entryX=1;entryY=0.5;entryDx=0;entryDy=0;endArrow=none;endFill=0;strokeColor=#00CC00;strokeWidth=2;fontFamily=Roboto;fontSize=16;" parent="1" source="Ws0JKRpnU8jsVFA6yoCU-692" target="Ws0JKRpnU8jsVFA6yoCU-336" edge="1">
          <mxGeometry relative="1" as="geometry" />
        </mxCell>
        <mxCell id="Ws0JKRpnU8jsVFA6yoCU-722" style="edgeStyle=none;rounded=0;orthogonalLoop=1;jettySize=auto;html=1;exitX=0.75;exitY=0;exitDx=0;exitDy=0;entryX=1;entryY=0.5;entryDx=0;entryDy=0;endArrow=none;endFill=0;strokeColor=#00CC00;strokeWidth=2;fontFamily=Roboto;fontSize=16;" parent="1" source="Ws0JKRpnU8jsVFA6yoCU-692" target="Ws0JKRpnU8jsVFA6yoCU-372" edge="1">
          <mxGeometry relative="1" as="geometry" />
        </mxCell>
        <mxCell id="Ws0JKRpnU8jsVFA6yoCU-723" style="edgeStyle=none;rounded=0;orthogonalLoop=1;jettySize=auto;html=1;exitX=0.952;exitY=0.017;exitDx=0;exitDy=0;entryX=1;entryY=0.5;entryDx=0;entryDy=0;endArrow=none;endFill=0;strokeColor=#00CC00;strokeWidth=2;fontFamily=Roboto;fontSize=16;exitPerimeter=0;" parent="1" source="Ws0JKRpnU8jsVFA6yoCU-692" target="Ws0JKRpnU8jsVFA6yoCU-381" edge="1">
          <mxGeometry relative="1" as="geometry" />
        </mxCell>
        <mxCell id="Ws0JKRpnU8jsVFA6yoCU-724" style="edgeStyle=none;rounded=0;orthogonalLoop=1;jettySize=auto;html=1;exitX=0;exitY=0;exitDx=0;exitDy=0;entryX=1;entryY=0.5;entryDx=0;entryDy=0;endArrow=none;endFill=0;strokeColor=#00CC00;strokeWidth=2;fontFamily=Roboto;fontSize=16;" parent="1" source="Ws0JKRpnU8jsVFA6yoCU-692" target="Ws0JKRpnU8jsVFA6yoCU-328" edge="1">
          <mxGeometry relative="1" as="geometry" />
        </mxCell>
        <mxCell id="Ws0JKRpnU8jsVFA6yoCU-692" value="IXP 123" style="rounded=1;whiteSpace=wrap;html=1;fontFamily=Roboto;fontSize=20;" parent="1" vertex="1">
          <mxGeometry x="717" y="755" width="120" height="60" as="geometry" />
        </mxCell>
        <mxCell id="Ws0JKRpnU8jsVFA6yoCU-701" style="edgeStyle=none;rounded=0;orthogonalLoop=1;jettySize=auto;html=1;exitX=1;exitY=0.5;exitDx=0;exitDy=0;entryX=0.5;entryY=0;entryDx=0;entryDy=0;endArrow=none;endFill=0;strokeWidth=2;fontFamily=Roboto;fontSize=16;strokeColor=#00CC00;" parent="1" source="Ws0JKRpnU8jsVFA6yoCU-650" target="Ws0JKRpnU8jsVFA6yoCU-687" edge="1">
          <mxGeometry relative="1" as="geometry" />
        </mxCell>
        <mxCell id="Ws0JKRpnU8jsVFA6yoCU-747" style="edgeStyle=none;rounded=0;orthogonalLoop=1;jettySize=auto;html=1;exitX=1;exitY=0.5;exitDx=0;exitDy=0;entryX=1;entryY=0;entryDx=0;entryDy=0;endArrow=none;endFill=0;strokeColor=#00CC00;strokeWidth=2;fontFamily=Roboto;fontSize=16;" parent="1" source="Ws0JKRpnU8jsVFA6yoCU-569" target="Ws0JKRpnU8jsVFA6yoCU-686" edge="1">
          <mxGeometry relative="1" as="geometry" />
        </mxCell>
        <mxCell id="Ws0JKRpnU8jsVFA6yoCU-748" style="edgeStyle=none;rounded=0;orthogonalLoop=1;jettySize=auto;html=1;exitX=1;exitY=0.5;exitDx=0;exitDy=0;entryX=0.75;entryY=0;entryDx=0;entryDy=0;endArrow=none;endFill=0;strokeColor=#00CC00;strokeWidth=2;fontFamily=Roboto;fontSize=16;" parent="1" source="Ws0JKRpnU8jsVFA6yoCU-573" target="Ws0JKRpnU8jsVFA6yoCU-686" edge="1">
          <mxGeometry relative="1" as="geometry" />
        </mxCell>
        <mxCell id="Ws0JKRpnU8jsVFA6yoCU-749" style="edgeStyle=none;rounded=0;orthogonalLoop=1;jettySize=auto;html=1;exitX=1;exitY=0.5;exitDx=0;exitDy=0;entryX=0.5;entryY=0;entryDx=0;entryDy=0;endArrow=none;endFill=0;strokeColor=#00CC00;strokeWidth=2;fontFamily=Roboto;fontSize=16;" parent="1" source="Ws0JKRpnU8jsVFA6yoCU-582" target="Ws0JKRpnU8jsVFA6yoCU-686" edge="1">
          <mxGeometry relative="1" as="geometry" />
        </mxCell>
        <mxCell id="Ws0JKRpnU8jsVFA6yoCU-750" style="edgeStyle=none;rounded=0;orthogonalLoop=1;jettySize=auto;html=1;exitX=1;exitY=0.5;exitDx=0;exitDy=0;endArrow=none;endFill=0;strokeColor=#00CC00;strokeWidth=2;fontFamily=Roboto;fontSize=16;entryX=0.5;entryY=0;entryDx=0;entryDy=0;" parent="1" source="Ws0JKRpnU8jsVFA6yoCU-590" target="Ws0JKRpnU8jsVFA6yoCU-686" edge="1">
          <mxGeometry relative="1" as="geometry">
            <mxPoint x="60.666666666666515" y="1180" as="targetPoint" />
          </mxGeometry>
        </mxCell>
        <mxCell id="Ws0JKRpnU8jsVFA6yoCU-752" style="edgeStyle=none;rounded=0;orthogonalLoop=1;jettySize=auto;html=1;exitX=1;exitY=0.5;exitDx=0;exitDy=0;entryX=0.25;entryY=0;entryDx=0;entryDy=0;endArrow=none;endFill=0;strokeColor=#00CC00;strokeWidth=2;fontFamily=Roboto;fontSize=16;" parent="1" source="Ws0JKRpnU8jsVFA6yoCU-608" target="Ws0JKRpnU8jsVFA6yoCU-686" edge="1">
          <mxGeometry relative="1" as="geometry" />
        </mxCell>
        <mxCell id="Ws0JKRpnU8jsVFA6yoCU-753" style="edgeStyle=none;rounded=0;orthogonalLoop=1;jettySize=auto;html=1;exitX=1;exitY=0.5;exitDx=0;exitDy=0;endArrow=none;endFill=0;strokeColor=#00CC00;strokeWidth=2;fontFamily=Roboto;fontSize=16;entryX=0.5;entryY=0;entryDx=0;entryDy=0;" parent="1" source="Ws0JKRpnU8jsVFA6yoCU-599" target="Ws0JKRpnU8jsVFA6yoCU-686" edge="1">
          <mxGeometry relative="1" as="geometry">
            <mxPoint x="60" y="1180" as="targetPoint" />
          </mxGeometry>
        </mxCell>
        <mxCell id="Ws0JKRpnU8jsVFA6yoCU-754" style="edgeStyle=none;rounded=0;orthogonalLoop=1;jettySize=auto;html=1;exitX=1;exitY=0.5;exitDx=0;exitDy=0;entryX=0;entryY=0;entryDx=0;entryDy=0;endArrow=none;endFill=0;strokeColor=#00CC00;strokeWidth=2;fontFamily=Roboto;fontSize=16;" parent="1" source="Ws0JKRpnU8jsVFA6yoCU-617" target="Ws0JKRpnU8jsVFA6yoCU-686" edge="1">
          <mxGeometry relative="1" as="geometry" />
        </mxCell>
        <mxCell id="Ws0JKRpnU8jsVFA6yoCU-762" style="edgeStyle=none;rounded=0;orthogonalLoop=1;jettySize=auto;html=1;exitX=0;exitY=0.5;exitDx=0;exitDy=0;entryX=0.5;entryY=1;entryDx=0;entryDy=0;endArrow=none;endFill=0;strokeColor=#00CC00;strokeWidth=2;fontFamily=Roboto;fontSize=16;" parent="1" source="Ws0JKRpnU8jsVFA6yoCU-655" target="Ws0JKRpnU8jsVFA6yoCU-689" edge="1">
          <mxGeometry relative="1" as="geometry" />
        </mxCell>
        <mxCell id="Ws0JKRpnU8jsVFA6yoCU-777" style="edgeStyle=none;rounded=0;orthogonalLoop=1;jettySize=auto;html=1;exitX=1;exitY=0.5;exitDx=0;exitDy=0;entryX=0.048;entryY=0.006;entryDx=0;entryDy=0;endArrow=none;endFill=0;strokeColor=#00CC00;strokeWidth=2;fontFamily=Roboto;fontSize=16;entryPerimeter=0;" parent="1" source="Ws0JKRpnU8jsVFA6yoCU-20" target="Ws0JKRpnU8jsVFA6yoCU-690" edge="1">
          <mxGeometry relative="1" as="geometry" />
        </mxCell>
        <mxCell id="Ws0JKRpnU8jsVFA6yoCU-778" style="edgeStyle=none;rounded=0;orthogonalLoop=1;jettySize=auto;html=1;exitX=1;exitY=0.5;exitDx=0;exitDy=0;entryX=0;entryY=0.25;entryDx=0;entryDy=0;endArrow=none;endFill=0;strokeColor=#00CC00;strokeWidth=2;fontFamily=Roboto;fontSize=16;" parent="1" source="Ws0JKRpnU8jsVFA6yoCU-18" target="Ws0JKRpnU8jsVFA6yoCU-690" edge="1">
          <mxGeometry relative="1" as="geometry" />
        </mxCell>
        <mxCell id="Ws0JKRpnU8jsVFA6yoCU-792" style="edgeStyle=none;rounded=0;orthogonalLoop=1;jettySize=auto;html=1;exitX=0;exitY=0.5;exitDx=0;exitDy=0;entryX=1;entryY=0.5;entryDx=0;entryDy=0;endArrow=none;endFill=0;strokeColor=#00CC00;strokeWidth=2;fontFamily=Roboto;fontSize=16;" parent="1" source="Ws0JKRpnU8jsVFA6yoCU-571" target="Ws0JKRpnU8jsVFA6yoCU-629" edge="1">
          <mxGeometry relative="1" as="geometry" />
        </mxCell>
        <mxCell id="Ws0JKRpnU8jsVFA6yoCU-793" style="edgeStyle=none;rounded=0;orthogonalLoop=1;jettySize=auto;html=1;exitX=0;exitY=0;exitDx=0;exitDy=0;endArrow=none;endFill=0;strokeColor=#00CC00;strokeWidth=2;fontFamily=Roboto;fontSize=16;entryX=0;entryY=1;entryDx=0;entryDy=0;" parent="1" source="Ws0JKRpnU8jsVFA6yoCU-571" target="Ws0JKRpnU8jsVFA6yoCU-23" edge="1">
          <mxGeometry relative="1" as="geometry">
            <mxPoint x="370" y="820" as="targetPoint" />
          </mxGeometry>
        </mxCell>
        <mxCell id="Ws0JKRpnU8jsVFA6yoCU-794" style="edgeStyle=none;rounded=0;orthogonalLoop=1;jettySize=auto;html=1;exitX=0;exitY=0;exitDx=0;exitDy=0;endArrow=none;endFill=0;strokeColor=#00CC00;strokeWidth=2;fontFamily=Roboto;fontSize=16;entryX=0;entryY=1;entryDx=0;entryDy=0;" parent="1" source="Ws0JKRpnU8jsVFA6yoCU-569" target="Ws0JKRpnU8jsVFA6yoCU-23" edge="1">
          <mxGeometry relative="1" as="geometry">
            <mxPoint x="420" y="880" as="targetPoint" />
          </mxGeometry>
        </mxCell>
        <mxCell id="Ws0JKRpnU8jsVFA6yoCU-800" style="edgeStyle=none;rounded=0;orthogonalLoop=1;jettySize=auto;html=1;exitX=0;exitY=0.5;exitDx=0;exitDy=0;entryX=1;entryY=0.5;entryDx=0;entryDy=0;endArrow=none;endFill=0;strokeColor=#00CC00;strokeWidth=2;fontFamily=Roboto;fontSize=16;" parent="1" source="Ws0JKRpnU8jsVFA6yoCU-393" target="Ws0JKRpnU8jsVFA6yoCU-328" edge="1">
          <mxGeometry relative="1" as="geometry" />
        </mxCell>
        <mxCell id="Ws0JKRpnU8jsVFA6yoCU-802" style="edgeStyle=none;rounded=0;orthogonalLoop=1;jettySize=auto;html=1;exitX=1;exitY=1;exitDx=0;exitDy=0;entryX=1;entryY=0;entryDx=0;entryDy=0;endArrow=none;endFill=0;strokeColor=#00CC00;strokeWidth=2;fontFamily=Roboto;fontSize=16;" parent="1" source="Ws0JKRpnU8jsVFA6yoCU-328" target="Ws0JKRpnU8jsVFA6yoCU-23" edge="1">
          <mxGeometry relative="1" as="geometry" />
        </mxCell>
        <mxCell id="Ws0JKRpnU8jsVFA6yoCU-803" style="edgeStyle=none;rounded=0;orthogonalLoop=1;jettySize=auto;html=1;exitX=1;exitY=1;exitDx=0;exitDy=0;endArrow=none;endFill=0;strokeColor=#00CC00;strokeWidth=2;fontFamily=Roboto;fontSize=16;entryX=1;entryY=0;entryDx=0;entryDy=0;" parent="1" source="Ws0JKRpnU8jsVFA6yoCU-327" target="Ws0JKRpnU8jsVFA6yoCU-23" edge="1">
          <mxGeometry relative="1" as="geometry">
            <mxPoint x="490" y="710" as="targetPoint" />
          </mxGeometry>
        </mxCell>
        <mxCell id="Ws0JKRpnU8jsVFA6yoCU-804" style="edgeStyle=none;rounded=0;orthogonalLoop=1;jettySize=auto;html=1;exitX=1;exitY=0;exitDx=0;exitDy=0;endArrow=none;endFill=0;strokeColor=#00CC00;strokeWidth=2;fontFamily=Roboto;fontSize=16;entryX=0;entryY=0;entryDx=0;entryDy=0;" parent="1" source="Ws0JKRpnU8jsVFA6yoCU-629" target="Ws0JKRpnU8jsVFA6yoCU-23" edge="1">
          <mxGeometry relative="1" as="geometry">
            <mxPoint x="350" y="760" as="targetPoint" />
          </mxGeometry>
        </mxCell>
        <mxCell id="Ws0JKRpnU8jsVFA6yoCU-805" style="edgeStyle=none;rounded=0;orthogonalLoop=1;jettySize=auto;html=1;exitX=1;exitY=0;exitDx=0;exitDy=0;endArrow=none;endFill=0;strokeColor=#00CC00;strokeWidth=2;fontFamily=Roboto;fontSize=16;entryX=0;entryY=0;entryDx=0;entryDy=0;" parent="1" source="Ws0JKRpnU8jsVFA6yoCU-631" target="Ws0JKRpnU8jsVFA6yoCU-23" edge="1">
          <mxGeometry relative="1" as="geometry">
            <mxPoint x="400" y="750" as="targetPoint" />
          </mxGeometry>
        </mxCell>
        <mxCell id="Ws0JKRpnU8jsVFA6yoCU-808" style="edgeStyle=none;rounded=0;orthogonalLoop=1;jettySize=auto;html=1;exitX=0.5;exitY=0;exitDx=0;exitDy=0;entryX=0;entryY=0.5;entryDx=0;entryDy=0;endArrow=none;endFill=0;strokeColor=#00CC00;strokeWidth=2;fontFamily=Roboto;fontSize=16;" parent="1" source="Ws0JKRpnU8jsVFA6yoCU-631" target="Ws0JKRpnU8jsVFA6yoCU-6" edge="1">
          <mxGeometry relative="1" as="geometry" />
        </mxCell>
        <mxCell id="Ws0JKRpnU8jsVFA6yoCU-809" style="edgeStyle=none;rounded=0;orthogonalLoop=1;jettySize=auto;html=1;exitX=1;exitY=0.5;exitDx=0;exitDy=0;entryX=0.5;entryY=1;entryDx=0;entryDy=0;endArrow=none;endFill=0;strokeColor=#00CC00;strokeWidth=2;fontFamily=Roboto;fontSize=16;" parent="1" source="Ws0JKRpnU8jsVFA6yoCU-7" target="Ws0JKRpnU8jsVFA6yoCU-327" edge="1">
          <mxGeometry relative="1" as="geometry" />
        </mxCell>
        <mxCell id="Ws0JKRpnU8jsVFA6yoCU-810" value="" style="ellipse;whiteSpace=wrap;html=1;aspect=fixed;fillColor=#e51400;strokeColor=#B20000;fontColor=#ffffff;fontSize=16;fontFamily=Roboto;" parent="1" vertex="1">
          <mxGeometry x="680" y="160" width="30" height="30" as="geometry" />
        </mxCell>
        <mxCell id="Ws0JKRpnU8jsVFA6yoCU-811" value="" style="ellipse;whiteSpace=wrap;html=1;aspect=fixed;fontSize=16;fontFamily=Roboto;rotation=90;verticalAlign=top;horizontal=0;fillColor=#647687;strokeColor=#314354;fontColor=#ffffff;" parent="1" vertex="1">
          <mxGeometry x="680" y="240" width="30" height="30" as="geometry" />
        </mxCell>
        <mxCell id="Ws0JKRpnU8jsVFA6yoCU-812" value="" style="ellipse;whiteSpace=wrap;html=1;aspect=fixed;fontSize=16;fontFamily=Roboto;rotation=90;verticalAlign=top;horizontal=0;" parent="1" vertex="1">
          <mxGeometry x="680" y="200" width="30" height="30" as="geometry" />
        </mxCell>
        <mxCell id="Ws0JKRpnU8jsVFA6yoCU-813" value="&lt;font style=&quot;font-size: 22px&quot;&gt;Tier1 AS&lt;br style=&quot;font-size: 22px&quot;&gt;&lt;/font&gt;" style="text;html=1;strokeColor=none;fillColor=none;align=left;verticalAlign=middle;whiteSpace=wrap;rounded=0;fontFamily=Roboto;fontSize=22;" parent="1" vertex="1">
          <mxGeometry x="733.25" y="162.5" width="136.75" height="25" as="geometry" />
        </mxCell>
        <mxCell id="Ws0JKRpnU8jsVFA6yoCU-814" value="&lt;font style=&quot;font-size: 22px&quot;&gt;Tier2&lt;/font&gt; AS" style="text;html=1;strokeColor=none;fillColor=none;align=left;verticalAlign=middle;whiteSpace=wrap;rounded=0;fontFamily=Roboto;fontSize=22;" parent="1" vertex="1">
          <mxGeometry x="733.25" y="202.5" width="136.75" height="27.5" as="geometry" />
        </mxCell>
        <mxCell id="Ws0JKRpnU8jsVFA6yoCU-815" value="Stub AS" style="text;html=1;strokeColor=none;fillColor=none;align=left;verticalAlign=middle;whiteSpace=wrap;rounded=0;fontFamily=Roboto;fontSize=22;" parent="1" vertex="1">
          <mxGeometry x="733.25" y="241.25" width="136.75" height="27.5" as="geometry" />
        </mxCell>
        <mxCell id="Ws0JKRpnU8jsVFA6yoCU-817" style="edgeStyle=none;rounded=0;orthogonalLoop=1;jettySize=auto;html=1;endArrow=none;endFill=0;strokeColor=#00CC00;strokeWidth=2;fontFamily=Roboto;fontSize=16;" parent="1" edge="1">
          <mxGeometry relative="1" as="geometry">
            <mxPoint x="14" y="150" as="sourcePoint" />
            <mxPoint x="-26" y="150" as="targetPoint" />
          </mxGeometry>
        </mxCell>
        <mxCell id="Ws0JKRpnU8jsVFA6yoCU-818" style="edgeStyle=none;rounded=0;orthogonalLoop=1;jettySize=auto;html=1;endArrow=none;endFill=0;fontFamily=Roboto;fontSize=16;strokeWidth=2;strokeColor=#FF8000;" parent="1" edge="1">
          <mxGeometry relative="1" as="geometry">
            <mxPoint x="-26" y="190" as="sourcePoint" />
            <mxPoint x="14" y="190" as="targetPoint" />
          </mxGeometry>
        </mxCell>
        <mxCell id="Ws0JKRpnU8jsVFA6yoCU-819" value="peer-to-peer link" style="text;html=1;strokeColor=none;fillColor=none;align=left;verticalAlign=middle;whiteSpace=wrap;rounded=0;fontFamily=Roboto;fontSize=22;" parent="1" vertex="1">
          <mxGeometry x="19.510000000000005" y="135" width="233.49" height="25" as="geometry" />
        </mxCell>
        <mxCell id="Ws0JKRpnU8jsVFA6yoCU-820" value="provider-customer link" style="text;html=1;strokeColor=none;fillColor=none;align=left;verticalAlign=middle;whiteSpace=wrap;rounded=0;fontFamily=Roboto;fontSize=22;" parent="1" vertex="1">
          <mxGeometry x="20.13000000000001" y="175" width="233.49" height="25" as="geometry" />
        </mxCell>
        <mxCell id="Su0HvrgJdk693_J9CV8J-7" style="rounded=0;orthogonalLoop=1;jettySize=auto;html=1;exitX=0.5;exitY=1;exitDx=0;exitDy=0;entryX=0.5;entryY=0;entryDx=0;entryDy=0;fontFamily=Roboto;fontSize=16;endArrow=none;endFill=0;strokeWidth=2;strokeColor=#FF8000;" edge="1" parent="1" source="Su0HvrgJdk693_J9CV8J-9">
          <mxGeometry relative="1" as="geometry">
            <mxPoint x="427" y="190" as="targetPoint" />
          </mxGeometry>
        </mxCell>
        <mxCell id="Su0HvrgJdk693_J9CV8J-8" style="edgeStyle=none;rounded=0;orthogonalLoop=1;jettySize=auto;html=1;exitX=1;exitY=1;exitDx=0;exitDy=0;entryX=0;entryY=0;entryDx=0;entryDy=0;endArrow=none;endFill=0;fontFamily=Roboto;fontSize=16;strokeWidth=2;strokeColor=#FF8000;" edge="1" parent="1" source="Su0HvrgJdk693_J9CV8J-9">
          <mxGeometry relative="1" as="geometry">
            <mxPoint x="486" y="194" as="targetPoint" />
          </mxGeometry>
        </mxCell>
        <mxCell id="Su0HvrgJdk693_J9CV8J-9" value="15" style="ellipse;whiteSpace=wrap;html=1;aspect=fixed;fontSize=16;fontFamily=Roboto;fillColor=#647687;strokeColor=#314354;fontColor=#ffffff;" vertex="1" parent="1">
          <mxGeometry x="412" y="130" width="30" height="30" as="geometry" />
        </mxCell>
        <mxCell id="Su0HvrgJdk693_J9CV8J-10" style="edgeStyle=none;rounded=0;orthogonalLoop=1;jettySize=auto;html=1;exitX=0.5;exitY=1;exitDx=0;exitDy=0;endArrow=none;endFill=0;fontFamily=Roboto;fontSize=16;strokeWidth=2;strokeColor=#FF8000;" edge="1" parent="1" source="Su0HvrgJdk693_J9CV8J-11">
          <mxGeometry relative="1" as="geometry">
            <mxPoint x="497" y="190" as="targetPoint" />
          </mxGeometry>
        </mxCell>
        <mxCell id="Su0HvrgJdk693_J9CV8J-11" value="16" style="ellipse;whiteSpace=wrap;html=1;aspect=fixed;fontSize=16;fontFamily=Roboto;fillColor=#647687;strokeColor=#314354;fontColor=#ffffff;" vertex="1" parent="1">
          <mxGeometry x="482" y="130" width="30" height="30" as="geometry" />
        </mxCell>
        <mxCell id="Su0HvrgJdk693_J9CV8J-12" style="edgeStyle=none;rounded=0;orthogonalLoop=1;jettySize=auto;html=1;exitX=1;exitY=0;exitDx=0;exitDy=0;entryX=0;entryY=1;entryDx=0;entryDy=0;endArrow=none;endFill=0;fontFamily=Roboto;fontSize=16;strokeWidth=2;strokeColor=#FF8000;" edge="1" parent="1" target="Su0HvrgJdk693_J9CV8J-11">
          <mxGeometry relative="1" as="geometry">
            <mxPoint x="438" y="194" as="sourcePoint" />
          </mxGeometry>
        </mxCell>
        <mxCell id="Su0HvrgJdk693_J9CV8J-20" style="edgeStyle=none;rounded=0;orthogonalLoop=1;jettySize=auto;html=1;exitX=1;exitY=0.75;exitDx=0;exitDy=0;entryX=0.021;entryY=0.613;entryDx=0;entryDy=0;endArrow=none;endFill=0;strokeColor=#00CC00;strokeWidth=2;fontFamily=Roboto;fontSize=16;entryPerimeter=0;" edge="1" parent="1" source="Ws0JKRpnU8jsVFA6yoCU-690" target="Su0HvrgJdk693_J9CV8J-15">
          <mxGeometry relative="1" as="geometry">
            <mxPoint x="864" y="427" as="sourcePoint" />
            <mxPoint x="990" y="575" as="targetPoint" />
          </mxGeometry>
        </mxCell>
        <mxCell id="Su0HvrgJdk693_J9CV8J-21" style="edgeStyle=none;rounded=0;orthogonalLoop=1;jettySize=auto;html=1;exitX=1;exitY=0.5;exitDx=0;exitDy=0;entryX=0.25;entryY=0;entryDx=0;entryDy=0;endArrow=none;endFill=0;strokeColor=#00CC00;strokeWidth=2;fontFamily=Roboto;fontSize=16;" edge="1" parent="1" source="Su0HvrgJdk693_J9CV8J-11" target="Ws0JKRpnU8jsVFA6yoCU-690">
          <mxGeometry relative="1" as="geometry">
            <mxPoint x="527" y="160" as="sourcePoint" />
            <mxPoint x="732" y="315" as="targetPoint" />
          </mxGeometry>
        </mxCell>
        <mxCell id="Su0HvrgJdk693_J9CV8J-22" style="edgeStyle=none;rounded=0;orthogonalLoop=1;jettySize=auto;html=1;exitX=0.75;exitY=0;exitDx=0;exitDy=0;entryX=0;entryY=0.5;entryDx=0;entryDy=0;endArrow=none;endFill=0;strokeColor=#00CC00;strokeWidth=2;fontFamily=Roboto;fontSize=16;" edge="1" parent="1" source="Ws0JKRpnU8jsVFA6yoCU-689">
          <mxGeometry relative="1" as="geometry">
            <mxPoint x="206.13" y="300" as="sourcePoint" />
            <mxPoint x="412.13" y="150" as="targetPoint" />
          </mxGeometry>
        </mxCell>
        <mxCell id="Su0HvrgJdk693_J9CV8J-23" style="edgeStyle=none;rounded=0;orthogonalLoop=1;jettySize=auto;html=1;exitX=1;exitY=0.5;exitDx=0;exitDy=0;endArrow=none;endFill=0;fontFamily=Roboto;fontSize=16;strokeColor=#00CC00;strokeWidth=2;" edge="1" parent="1">
          <mxGeometry relative="1" as="geometry">
            <mxPoint x="442" y="145" as="sourcePoint" />
            <mxPoint x="482" y="145" as="targetPoint" />
          </mxGeometry>
        </mxCell>
        <mxCell id="Ws0JKRpnU8jsVFA6yoCU-392" value="" style="rounded=0;whiteSpace=wrap;html=1;fontFamily=Roboto;fontSize=16;rotation=90;" parent="1" vertex="1">
          <mxGeometry x="738.86" y="739.38" width="140" height="491.25" as="geometry" />
        </mxCell>
        <mxCell id="Ws0JKRpnU8jsVFA6yoCU-393" value="33" style="ellipse;whiteSpace=wrap;html=1;aspect=fixed;fillColor=#e51400;strokeColor=#B20000;fontColor=#ffffff;fontSize=16;fontFamily=Roboto;rotation=90;verticalAlign=top;horizontal=0;" parent="1" vertex="1">
          <mxGeometry x="583.24" y="935" width="30" height="30" as="geometry" />
        </mxCell>
        <mxCell id="Ws0JKRpnU8jsVFA6yoCU-394" value="34" style="ellipse;whiteSpace=wrap;html=1;aspect=fixed;fillColor=#e51400;strokeColor=#B20000;fontColor=#ffffff;fontSize=16;fontFamily=Roboto;rotation=90;verticalAlign=top;horizontal=0;" parent="1" vertex="1">
          <mxGeometry x="583.24" y="1005" width="30" height="30" as="geometry" />
        </mxCell>
        <mxCell id="Ws0JKRpnU8jsVFA6yoCU-395" style="edgeStyle=none;rounded=0;orthogonalLoop=1;jettySize=auto;html=1;exitX=1;exitY=0.5;exitDx=0;exitDy=0;entryX=0;entryY=0.5;entryDx=0;entryDy=0;endArrow=none;endFill=0;fontFamily=Roboto;fontSize=16;strokeColor=#00CC00;strokeWidth=2;verticalAlign=top;horizontal=0;" parent="1" source="Ws0JKRpnU8jsVFA6yoCU-393" target="Ws0JKRpnU8jsVFA6yoCU-394" edge="1">
          <mxGeometry relative="1" as="geometry" />
        </mxCell>
        <mxCell id="Ws0JKRpnU8jsVFA6yoCU-396" style="edgeStyle=none;rounded=0;orthogonalLoop=1;jettySize=auto;html=1;exitX=0.5;exitY=1;exitDx=0;exitDy=0;entryX=0.5;entryY=0;entryDx=0;entryDy=0;endArrow=none;endFill=0;fontFamily=Roboto;fontSize=16;strokeWidth=2;strokeColor=#FF8000;verticalAlign=top;horizontal=0;" parent="1" source="Ws0JKRpnU8jsVFA6yoCU-399" target="Ws0JKRpnU8jsVFA6yoCU-393" edge="1">
          <mxGeometry relative="1" as="geometry" />
        </mxCell>
        <mxCell id="Ws0JKRpnU8jsVFA6yoCU-398" style="edgeStyle=none;rounded=0;orthogonalLoop=1;jettySize=auto;html=1;exitX=1;exitY=1;exitDx=0;exitDy=0;entryX=0;entryY=0;entryDx=0;entryDy=0;endArrow=none;endFill=0;fontFamily=Roboto;fontSize=16;strokeWidth=2;strokeColor=#FF8000;verticalAlign=top;horizontal=0;" parent="1" source="Ws0JKRpnU8jsVFA6yoCU-399" target="Ws0JKRpnU8jsVFA6yoCU-394" edge="1">
          <mxGeometry relative="1" as="geometry" />
        </mxCell>
        <mxCell id="Ws0JKRpnU8jsVFA6yoCU-399" value="35" style="ellipse;whiteSpace=wrap;html=1;aspect=fixed;fontSize=16;fontFamily=Roboto;rotation=90;verticalAlign=top;horizontal=0;" parent="1" vertex="1">
          <mxGeometry x="643.24" y="935" width="30" height="30" as="geometry" />
        </mxCell>
        <mxCell id="Ws0JKRpnU8jsVFA6yoCU-401" style="edgeStyle=none;rounded=0;orthogonalLoop=1;jettySize=auto;html=1;exitX=0.5;exitY=1;exitDx=0;exitDy=0;entryX=0.5;entryY=0;entryDx=0;entryDy=0;endArrow=none;endFill=0;fontFamily=Roboto;fontSize=16;strokeWidth=2;strokeColor=#FF8000;verticalAlign=top;horizontal=0;" parent="1" source="Ws0JKRpnU8jsVFA6yoCU-402" target="Ws0JKRpnU8jsVFA6yoCU-394" edge="1">
          <mxGeometry relative="1" as="geometry" />
        </mxCell>
        <mxCell id="Ws0JKRpnU8jsVFA6yoCU-402" value="36" style="ellipse;whiteSpace=wrap;html=1;aspect=fixed;fontSize=16;fontFamily=Roboto;rotation=90;verticalAlign=top;horizontal=0;" parent="1" vertex="1">
          <mxGeometry x="643.24" y="1005" width="30" height="30" as="geometry" />
        </mxCell>
        <mxCell id="Ws0JKRpnU8jsVFA6yoCU-403" style="edgeStyle=none;rounded=0;orthogonalLoop=1;jettySize=auto;html=1;exitX=1;exitY=0;exitDx=0;exitDy=0;endArrow=none;endFill=0;fontFamily=Roboto;fontSize=16;entryX=0;entryY=1;entryDx=0;entryDy=0;strokeWidth=2;strokeColor=#FF8000;verticalAlign=top;horizontal=0;" parent="1" source="Ws0JKRpnU8jsVFA6yoCU-393" target="Ws0JKRpnU8jsVFA6yoCU-402" edge="1">
          <mxGeometry relative="1" as="geometry">
            <mxPoint x="643.24" y="1005" as="targetPoint" />
          </mxGeometry>
        </mxCell>
        <mxCell id="Ws0JKRpnU8jsVFA6yoCU-404" style="edgeStyle=none;rounded=0;orthogonalLoop=1;jettySize=auto;html=1;exitX=1;exitY=0.5;exitDx=0;exitDy=0;entryX=0;entryY=0.5;entryDx=0;entryDy=0;endArrow=none;endFill=0;fontFamily=Roboto;fontSize=16;strokeColor=#00CC00;strokeWidth=2;verticalAlign=top;horizontal=0;" parent="1" source="Ws0JKRpnU8jsVFA6yoCU-399" target="Ws0JKRpnU8jsVFA6yoCU-402" edge="1">
          <mxGeometry relative="1" as="geometry" />
        </mxCell>
        <mxCell id="Ws0JKRpnU8jsVFA6yoCU-406" style="edgeStyle=none;rounded=0;orthogonalLoop=1;jettySize=auto;html=1;exitX=0.5;exitY=1;exitDx=0;exitDy=0;entryX=0.5;entryY=0;entryDx=0;entryDy=0;endArrow=none;endFill=0;fontFamily=Roboto;fontSize=16;strokeWidth=2;strokeColor=#FF8000;verticalAlign=top;horizontal=0;" parent="1" source="Ws0JKRpnU8jsVFA6yoCU-408" target="Ws0JKRpnU8jsVFA6yoCU-399" edge="1">
          <mxGeometry relative="1" as="geometry" />
        </mxCell>
        <mxCell id="Ws0JKRpnU8jsVFA6yoCU-407" style="edgeStyle=none;rounded=0;orthogonalLoop=1;jettySize=auto;html=1;exitX=1;exitY=1;exitDx=0;exitDy=0;entryX=0;entryY=0;entryDx=0;entryDy=0;endArrow=none;endFill=0;fontFamily=Roboto;fontSize=16;strokeWidth=2;strokeColor=#FF8000;verticalAlign=top;horizontal=0;" parent="1" source="Ws0JKRpnU8jsVFA6yoCU-408" target="Ws0JKRpnU8jsVFA6yoCU-402" edge="1">
          <mxGeometry relative="1" as="geometry" />
        </mxCell>
        <mxCell id="Ws0JKRpnU8jsVFA6yoCU-408" value="37" style="ellipse;whiteSpace=wrap;html=1;aspect=fixed;fontSize=16;fontFamily=Roboto;rotation=90;verticalAlign=top;horizontal=0;" parent="1" vertex="1">
          <mxGeometry x="703.24" y="935" width="30" height="30" as="geometry" />
        </mxCell>
        <mxCell id="Ws0JKRpnU8jsVFA6yoCU-410" style="edgeStyle=none;rounded=0;orthogonalLoop=1;jettySize=auto;html=1;exitX=0.5;exitY=1;exitDx=0;exitDy=0;entryX=0.5;entryY=0;entryDx=0;entryDy=0;endArrow=none;endFill=0;fontFamily=Roboto;fontSize=16;strokeWidth=2;strokeColor=#FF8000;verticalAlign=top;horizontal=0;" parent="1" source="Ws0JKRpnU8jsVFA6yoCU-411" target="Ws0JKRpnU8jsVFA6yoCU-402" edge="1">
          <mxGeometry relative="1" as="geometry" />
        </mxCell>
        <mxCell id="Ws0JKRpnU8jsVFA6yoCU-411" value="38" style="ellipse;whiteSpace=wrap;html=1;aspect=fixed;fontSize=16;fontFamily=Roboto;rotation=90;verticalAlign=top;horizontal=0;" parent="1" vertex="1">
          <mxGeometry x="703.24" y="1005" width="30" height="30" as="geometry" />
        </mxCell>
        <mxCell id="Ws0JKRpnU8jsVFA6yoCU-412" style="edgeStyle=none;rounded=0;orthogonalLoop=1;jettySize=auto;html=1;exitX=1;exitY=0;exitDx=0;exitDy=0;entryX=0;entryY=1;entryDx=0;entryDy=0;endArrow=none;endFill=0;fontFamily=Roboto;fontSize=16;strokeWidth=2;strokeColor=#FF8000;verticalAlign=top;horizontal=0;" parent="1" source="Ws0JKRpnU8jsVFA6yoCU-399" target="Ws0JKRpnU8jsVFA6yoCU-411" edge="1">
          <mxGeometry relative="1" as="geometry" />
        </mxCell>
        <mxCell id="Ws0JKRpnU8jsVFA6yoCU-413" style="edgeStyle=none;rounded=0;orthogonalLoop=1;jettySize=auto;html=1;exitX=1;exitY=0.5;exitDx=0;exitDy=0;entryX=0;entryY=0.5;entryDx=0;entryDy=0;endArrow=none;endFill=0;fontFamily=Roboto;fontSize=16;strokeColor=#00CC00;strokeWidth=2;verticalAlign=top;horizontal=0;" parent="1" source="Ws0JKRpnU8jsVFA6yoCU-408" target="Ws0JKRpnU8jsVFA6yoCU-411" edge="1">
          <mxGeometry relative="1" as="geometry" />
        </mxCell>
        <mxCell id="Ws0JKRpnU8jsVFA6yoCU-415" style="edgeStyle=none;rounded=0;orthogonalLoop=1;jettySize=auto;html=1;exitX=0.5;exitY=1;exitDx=0;exitDy=0;entryX=0.5;entryY=0;entryDx=0;entryDy=0;endArrow=none;endFill=0;fontFamily=Roboto;fontSize=16;strokeWidth=2;strokeColor=#FF8000;verticalAlign=top;horizontal=0;" parent="1" source="Ws0JKRpnU8jsVFA6yoCU-417" target="Ws0JKRpnU8jsVFA6yoCU-408" edge="1">
          <mxGeometry relative="1" as="geometry" />
        </mxCell>
        <mxCell id="Ws0JKRpnU8jsVFA6yoCU-416" style="edgeStyle=none;rounded=0;orthogonalLoop=1;jettySize=auto;html=1;exitX=1;exitY=1;exitDx=0;exitDy=0;entryX=0;entryY=0;entryDx=0;entryDy=0;endArrow=none;endFill=0;fontFamily=Roboto;fontSize=16;strokeWidth=2;strokeColor=#FF8000;verticalAlign=top;horizontal=0;" parent="1" source="Ws0JKRpnU8jsVFA6yoCU-417" target="Ws0JKRpnU8jsVFA6yoCU-411" edge="1">
          <mxGeometry relative="1" as="geometry" />
        </mxCell>
        <mxCell id="Ws0JKRpnU8jsVFA6yoCU-417" value="39" style="ellipse;whiteSpace=wrap;html=1;aspect=fixed;fontSize=16;fontFamily=Roboto;rotation=90;verticalAlign=top;horizontal=0;" parent="1" vertex="1">
          <mxGeometry x="763.24" y="935" width="30" height="30" as="geometry" />
        </mxCell>
        <mxCell id="Ws0JKRpnU8jsVFA6yoCU-418" style="edgeStyle=none;rounded=0;orthogonalLoop=1;jettySize=auto;html=1;exitX=0.5;exitY=1;exitDx=0;exitDy=0;entryX=0.5;entryY=0;entryDx=0;entryDy=0;endArrow=none;endFill=0;fontFamily=Roboto;fontSize=16;strokeWidth=2;strokeColor=#FF8000;verticalAlign=top;horizontal=0;" parent="1" source="Ws0JKRpnU8jsVFA6yoCU-421" target="Ws0JKRpnU8jsVFA6yoCU-411" edge="1">
          <mxGeometry relative="1" as="geometry" />
        </mxCell>
        <mxCell id="Ws0JKRpnU8jsVFA6yoCU-420" style="edgeStyle=none;rounded=0;orthogonalLoop=1;jettySize=auto;html=1;exitX=0;exitY=0.5;exitDx=0;exitDy=0;entryX=1;entryY=0.5;entryDx=0;entryDy=0;endArrow=none;endFill=0;fontFamily=Roboto;fontSize=16;strokeColor=#00CC00;strokeWidth=2;verticalAlign=top;horizontal=0;" parent="1" source="Ws0JKRpnU8jsVFA6yoCU-421" target="Ws0JKRpnU8jsVFA6yoCU-417" edge="1">
          <mxGeometry relative="1" as="geometry" />
        </mxCell>
        <mxCell id="Ws0JKRpnU8jsVFA6yoCU-421" value="40" style="ellipse;whiteSpace=wrap;html=1;aspect=fixed;fontSize=16;fontFamily=Roboto;rotation=90;verticalAlign=top;horizontal=0;" parent="1" vertex="1">
          <mxGeometry x="763.24" y="1005" width="30" height="30" as="geometry" />
        </mxCell>
        <mxCell id="Ws0JKRpnU8jsVFA6yoCU-422" style="edgeStyle=none;rounded=0;orthogonalLoop=1;jettySize=auto;html=1;exitX=1;exitY=0;exitDx=0;exitDy=0;entryX=0;entryY=1;entryDx=0;entryDy=0;endArrow=none;endFill=0;fontFamily=Roboto;fontSize=16;strokeWidth=2;strokeColor=#FF8000;verticalAlign=top;horizontal=0;" parent="1" source="Ws0JKRpnU8jsVFA6yoCU-408" target="Ws0JKRpnU8jsVFA6yoCU-421" edge="1">
          <mxGeometry relative="1" as="geometry" />
        </mxCell>
        <mxCell id="Ws0JKRpnU8jsVFA6yoCU-423" style="edgeStyle=none;rounded=0;orthogonalLoop=1;jettySize=auto;html=1;exitX=0.5;exitY=1;exitDx=0;exitDy=0;entryX=0.5;entryY=0;entryDx=0;entryDy=0;endArrow=none;endFill=0;fontFamily=Roboto;fontSize=16;strokeWidth=2;strokeColor=#FF8000;verticalAlign=top;horizontal=0;" parent="1" source="Ws0JKRpnU8jsVFA6yoCU-426" target="Ws0JKRpnU8jsVFA6yoCU-417" edge="1">
          <mxGeometry relative="1" as="geometry" />
        </mxCell>
        <mxCell id="Ws0JKRpnU8jsVFA6yoCU-425" style="edgeStyle=none;rounded=0;orthogonalLoop=1;jettySize=auto;html=1;exitX=1;exitY=1;exitDx=0;exitDy=0;endArrow=none;endFill=0;fontFamily=Roboto;fontSize=16;entryX=0;entryY=0;entryDx=0;entryDy=0;strokeWidth=2;strokeColor=#FF8000;verticalAlign=top;horizontal=0;" parent="1" source="Ws0JKRpnU8jsVFA6yoCU-426" target="Ws0JKRpnU8jsVFA6yoCU-421" edge="1">
          <mxGeometry relative="1" as="geometry">
            <mxPoint x="783.24" y="1005" as="targetPoint" />
          </mxGeometry>
        </mxCell>
        <mxCell id="Ws0JKRpnU8jsVFA6yoCU-426" value="41" style="ellipse;whiteSpace=wrap;html=1;aspect=fixed;fontSize=16;fontFamily=Roboto;rotation=90;verticalAlign=top;horizontal=0;" parent="1" vertex="1">
          <mxGeometry x="823.24" y="935" width="30" height="30" as="geometry" />
        </mxCell>
        <mxCell id="Ws0JKRpnU8jsVFA6yoCU-428" style="edgeStyle=none;rounded=0;orthogonalLoop=1;jettySize=auto;html=1;exitX=0.5;exitY=1;exitDx=0;exitDy=0;entryX=0.5;entryY=0;entryDx=0;entryDy=0;endArrow=none;endFill=0;fontFamily=Roboto;fontSize=16;strokeWidth=2;strokeColor=#FF8000;verticalAlign=top;horizontal=0;" parent="1" source="Ws0JKRpnU8jsVFA6yoCU-429" target="Ws0JKRpnU8jsVFA6yoCU-421" edge="1">
          <mxGeometry relative="1" as="geometry" />
        </mxCell>
        <mxCell id="Ws0JKRpnU8jsVFA6yoCU-429" value="42" style="ellipse;whiteSpace=wrap;html=1;aspect=fixed;fontSize=16;fontFamily=Roboto;rotation=90;verticalAlign=top;horizontal=0;" parent="1" vertex="1">
          <mxGeometry x="823.24" y="1005" width="30" height="30" as="geometry" />
        </mxCell>
        <mxCell id="Ws0JKRpnU8jsVFA6yoCU-430" style="edgeStyle=none;rounded=0;orthogonalLoop=1;jettySize=auto;html=1;exitX=1;exitY=0;exitDx=0;exitDy=0;entryX=0;entryY=1;entryDx=0;entryDy=0;endArrow=none;endFill=0;fontFamily=Roboto;fontSize=16;strokeWidth=2;strokeColor=#FF8000;verticalAlign=top;horizontal=0;" parent="1" source="Ws0JKRpnU8jsVFA6yoCU-417" target="Ws0JKRpnU8jsVFA6yoCU-429" edge="1">
          <mxGeometry relative="1" as="geometry" />
        </mxCell>
        <mxCell id="Ws0JKRpnU8jsVFA6yoCU-431" style="edgeStyle=none;rounded=0;orthogonalLoop=1;jettySize=auto;html=1;exitX=1;exitY=0.5;exitDx=0;exitDy=0;entryX=0;entryY=0.5;entryDx=0;entryDy=0;endArrow=none;endFill=0;fontFamily=Roboto;fontSize=16;strokeColor=#00CC00;strokeWidth=2;verticalAlign=top;horizontal=0;" parent="1" source="Ws0JKRpnU8jsVFA6yoCU-426" target="Ws0JKRpnU8jsVFA6yoCU-429" edge="1">
          <mxGeometry relative="1" as="geometry" />
        </mxCell>
        <mxCell id="Ws0JKRpnU8jsVFA6yoCU-432" style="edgeStyle=none;rounded=0;orthogonalLoop=1;jettySize=auto;html=1;exitX=0.5;exitY=1;exitDx=0;exitDy=0;entryX=0.5;entryY=0.108;entryDx=0;entryDy=0;endArrow=none;endFill=0;fontFamily=Roboto;fontSize=16;strokeWidth=2;strokeColor=#FF8000;verticalAlign=top;horizontal=0;entryPerimeter=0;" parent="1" source="Ws0JKRpnU8jsVFA6yoCU-435" target="Ws0JKRpnU8jsVFA6yoCU-426" edge="1">
          <mxGeometry relative="1" as="geometry" />
        </mxCell>
        <mxCell id="Ws0JKRpnU8jsVFA6yoCU-434" style="edgeStyle=none;rounded=0;orthogonalLoop=1;jettySize=auto;html=1;exitX=1;exitY=1;exitDx=0;exitDy=0;entryX=0;entryY=0;entryDx=0;entryDy=0;endArrow=none;endFill=0;fontFamily=Roboto;fontSize=16;strokeWidth=2;strokeColor=#FF8000;verticalAlign=top;horizontal=0;" parent="1" source="Ws0JKRpnU8jsVFA6yoCU-435" target="Ws0JKRpnU8jsVFA6yoCU-429" edge="1">
          <mxGeometry relative="1" as="geometry" />
        </mxCell>
        <mxCell id="Ws0JKRpnU8jsVFA6yoCU-435" value="43" style="ellipse;whiteSpace=wrap;html=1;aspect=fixed;fontSize=16;fontFamily=Roboto;rotation=90;verticalAlign=top;horizontal=0;" parent="1" vertex="1">
          <mxGeometry x="883.24" y="935" width="30" height="30" as="geometry" />
        </mxCell>
        <mxCell id="Ws0JKRpnU8jsVFA6yoCU-437" style="edgeStyle=none;rounded=0;orthogonalLoop=1;jettySize=auto;html=1;exitX=0.5;exitY=1;exitDx=0;exitDy=0;entryX=0.5;entryY=0;entryDx=0;entryDy=0;endArrow=none;endFill=0;fontFamily=Roboto;fontSize=16;strokeWidth=2;strokeColor=#FF8000;verticalAlign=top;horizontal=0;" parent="1" source="Ws0JKRpnU8jsVFA6yoCU-438" target="Ws0JKRpnU8jsVFA6yoCU-429" edge="1">
          <mxGeometry relative="1" as="geometry" />
        </mxCell>
        <mxCell id="Ws0JKRpnU8jsVFA6yoCU-438" value="44" style="ellipse;whiteSpace=wrap;html=1;aspect=fixed;fontSize=16;fontFamily=Roboto;rotation=90;verticalAlign=top;horizontal=0;" parent="1" vertex="1">
          <mxGeometry x="883.24" y="1005" width="30" height="30" as="geometry" />
        </mxCell>
        <mxCell id="Ws0JKRpnU8jsVFA6yoCU-439" style="edgeStyle=none;rounded=0;orthogonalLoop=1;jettySize=auto;html=1;exitX=1;exitY=0;exitDx=0;exitDy=0;entryX=0;entryY=1;entryDx=0;entryDy=0;endArrow=none;endFill=0;fontFamily=Roboto;fontSize=16;strokeWidth=2;strokeColor=#FF8000;verticalAlign=top;horizontal=0;" parent="1" source="Ws0JKRpnU8jsVFA6yoCU-426" target="Ws0JKRpnU8jsVFA6yoCU-438" edge="1">
          <mxGeometry relative="1" as="geometry" />
        </mxCell>
        <mxCell id="Ws0JKRpnU8jsVFA6yoCU-440" style="edgeStyle=none;rounded=0;orthogonalLoop=1;jettySize=auto;html=1;exitX=1;exitY=0.5;exitDx=0;exitDy=0;entryX=0;entryY=0.5;entryDx=0;entryDy=0;endArrow=none;endFill=0;fontFamily=Roboto;fontSize=16;strokeColor=#00CC00;strokeWidth=2;verticalAlign=top;horizontal=0;" parent="1" source="Ws0JKRpnU8jsVFA6yoCU-435" target="Ws0JKRpnU8jsVFA6yoCU-438" edge="1">
          <mxGeometry relative="1" as="geometry" />
        </mxCell>
        <mxCell id="Ws0JKRpnU8jsVFA6yoCU-441" style="rounded=0;orthogonalLoop=1;jettySize=auto;html=1;exitX=0.5;exitY=1;exitDx=0;exitDy=0;entryX=0.5;entryY=0.108;entryDx=0;entryDy=0;fontFamily=Roboto;fontSize=16;endArrow=none;endFill=0;strokeWidth=2;strokeColor=#FF8000;verticalAlign=top;horizontal=0;entryPerimeter=0;" parent="1" source="Ws0JKRpnU8jsVFA6yoCU-444" target="Ws0JKRpnU8jsVFA6yoCU-435" edge="1">
          <mxGeometry relative="1" as="geometry" />
        </mxCell>
        <mxCell id="Ws0JKRpnU8jsVFA6yoCU-443" style="edgeStyle=none;rounded=0;orthogonalLoop=1;jettySize=auto;html=1;exitX=1;exitY=1;exitDx=0;exitDy=0;entryX=0;entryY=0;entryDx=0;entryDy=0;endArrow=none;endFill=0;fontFamily=Roboto;fontSize=16;strokeWidth=2;strokeColor=#FF8000;verticalAlign=top;horizontal=0;" parent="1" source="Ws0JKRpnU8jsVFA6yoCU-444" target="Ws0JKRpnU8jsVFA6yoCU-438" edge="1">
          <mxGeometry relative="1" as="geometry" />
        </mxCell>
        <mxCell id="Ws0JKRpnU8jsVFA6yoCU-444" value="45" style="ellipse;whiteSpace=wrap;html=1;aspect=fixed;fontSize=16;fontFamily=Roboto;rotation=90;verticalAlign=top;horizontal=0;" parent="1" vertex="1">
          <mxGeometry x="943.24" y="935" width="30" height="30" as="geometry" />
        </mxCell>
        <mxCell id="Ws0JKRpnU8jsVFA6yoCU-446" style="edgeStyle=none;rounded=0;orthogonalLoop=1;jettySize=auto;html=1;exitX=0.5;exitY=1;exitDx=0;exitDy=0;entryX=0.5;entryY=0;entryDx=0;entryDy=0;endArrow=none;endFill=0;fontFamily=Roboto;fontSize=16;strokeWidth=2;strokeColor=#FF8000;verticalAlign=top;horizontal=0;" parent="1" source="Ws0JKRpnU8jsVFA6yoCU-447" target="Ws0JKRpnU8jsVFA6yoCU-438" edge="1">
          <mxGeometry relative="1" as="geometry" />
        </mxCell>
        <mxCell id="Ws0JKRpnU8jsVFA6yoCU-447" value="46" style="ellipse;whiteSpace=wrap;html=1;aspect=fixed;fontSize=16;fontFamily=Roboto;rotation=90;verticalAlign=top;horizontal=0;" parent="1" vertex="1">
          <mxGeometry x="943.24" y="1005" width="30" height="30" as="geometry" />
        </mxCell>
        <mxCell id="Ws0JKRpnU8jsVFA6yoCU-448" style="edgeStyle=none;rounded=0;orthogonalLoop=1;jettySize=auto;html=1;exitX=1;exitY=0;exitDx=0;exitDy=0;entryX=0;entryY=1;entryDx=0;entryDy=0;endArrow=none;endFill=0;fontFamily=Roboto;fontSize=16;strokeWidth=2;strokeColor=#FF8000;verticalAlign=top;horizontal=0;" parent="1" source="Ws0JKRpnU8jsVFA6yoCU-435" target="Ws0JKRpnU8jsVFA6yoCU-447" edge="1">
          <mxGeometry relative="1" as="geometry" />
        </mxCell>
        <mxCell id="Ws0JKRpnU8jsVFA6yoCU-449" style="edgeStyle=none;rounded=0;orthogonalLoop=1;jettySize=auto;html=1;exitX=1;exitY=0.5;exitDx=0;exitDy=0;endArrow=none;endFill=0;fontFamily=Roboto;fontSize=16;strokeColor=#00CC00;strokeWidth=2;verticalAlign=top;horizontal=0;" parent="1" source="Ws0JKRpnU8jsVFA6yoCU-444" target="Ws0JKRpnU8jsVFA6yoCU-447" edge="1">
          <mxGeometry relative="1" as="geometry" />
        </mxCell>
        <mxCell id="Su0HvrgJdk693_J9CV8J-26" style="rounded=0;orthogonalLoop=1;jettySize=auto;html=1;exitX=0.5;exitY=1;exitDx=0;exitDy=0;entryX=0.5;entryY=0.108;entryDx=0;entryDy=0;fontFamily=Roboto;fontSize=16;endArrow=none;endFill=0;strokeWidth=2;strokeColor=#FF8000;verticalAlign=top;horizontal=0;entryPerimeter=0;" edge="1" parent="1" source="Su0HvrgJdk693_J9CV8J-28">
          <mxGeometry relative="1" as="geometry">
            <mxPoint x="974" y="950" as="targetPoint" />
          </mxGeometry>
        </mxCell>
        <mxCell id="Su0HvrgJdk693_J9CV8J-27" style="edgeStyle=none;rounded=0;orthogonalLoop=1;jettySize=auto;html=1;exitX=1;exitY=1;exitDx=0;exitDy=0;entryX=0;entryY=0;entryDx=0;entryDy=0;endArrow=none;endFill=0;fontFamily=Roboto;fontSize=16;strokeWidth=2;strokeColor=#FF8000;verticalAlign=top;horizontal=0;" edge="1" parent="1" source="Su0HvrgJdk693_J9CV8J-28" target="Ws0JKRpnU8jsVFA6yoCU-447">
          <mxGeometry relative="1" as="geometry">
            <mxPoint x="973" y="1009" as="targetPoint" />
          </mxGeometry>
        </mxCell>
        <mxCell id="Su0HvrgJdk693_J9CV8J-28" value="47" style="ellipse;whiteSpace=wrap;html=1;aspect=fixed;fontSize=16;fontFamily=Roboto;rotation=90;verticalAlign=top;horizontal=0;fillColor=#647687;strokeColor=#314354;fontColor=#ffffff;" vertex="1" parent="1">
          <mxGeometry x="1007.24" y="935" width="30" height="30" as="geometry" />
        </mxCell>
        <mxCell id="Su0HvrgJdk693_J9CV8J-29" style="edgeStyle=none;rounded=0;orthogonalLoop=1;jettySize=auto;html=1;exitX=0.5;exitY=1;exitDx=0;exitDy=0;endArrow=none;endFill=0;fontFamily=Roboto;fontSize=16;strokeWidth=2;strokeColor=#FF8000;verticalAlign=top;horizontal=0;" edge="1" parent="1" source="Su0HvrgJdk693_J9CV8J-30">
          <mxGeometry relative="1" as="geometry">
            <mxPoint x="974" y="1020" as="targetPoint" />
          </mxGeometry>
        </mxCell>
        <mxCell id="Su0HvrgJdk693_J9CV8J-30" value="48" style="ellipse;whiteSpace=wrap;html=1;aspect=fixed;fontSize=16;fontFamily=Roboto;rotation=90;verticalAlign=top;horizontal=0;fillColor=#647687;strokeColor=#314354;fontColor=#ffffff;" vertex="1" parent="1">
          <mxGeometry x="1007.24" y="1005" width="30" height="30" as="geometry" />
        </mxCell>
        <mxCell id="Su0HvrgJdk693_J9CV8J-31" style="edgeStyle=none;rounded=0;orthogonalLoop=1;jettySize=auto;html=1;entryX=0;entryY=1;entryDx=0;entryDy=0;endArrow=none;endFill=0;fontFamily=Roboto;fontSize=16;strokeWidth=2;strokeColor=#FF8000;verticalAlign=top;horizontal=0;" edge="1" parent="1" target="Su0HvrgJdk693_J9CV8J-30">
          <mxGeometry relative="1" as="geometry">
            <mxPoint x="970" y="960" as="sourcePoint" />
          </mxGeometry>
        </mxCell>
        <mxCell id="Su0HvrgJdk693_J9CV8J-32" style="edgeStyle=none;rounded=0;orthogonalLoop=1;jettySize=auto;html=1;exitX=1;exitY=0.5;exitDx=0;exitDy=0;endArrow=none;endFill=0;fontFamily=Roboto;fontSize=16;strokeColor=#00CC00;strokeWidth=2;verticalAlign=top;horizontal=0;" edge="1" parent="1" source="Su0HvrgJdk693_J9CV8J-28" target="Su0HvrgJdk693_J9CV8J-30">
          <mxGeometry relative="1" as="geometry" />
        </mxCell>
        <mxCell id="Ws0JKRpnU8jsVFA6yoCU-725" style="edgeStyle=none;rounded=0;orthogonalLoop=1;jettySize=auto;html=1;exitX=0.055;exitY=1.037;exitDx=0;exitDy=0;entryX=0;entryY=0.5;entryDx=0;entryDy=0;endArrow=none;endFill=0;strokeColor=#00CC00;strokeWidth=2;fontFamily=Roboto;fontSize=16;exitPerimeter=0;" parent="1" source="Ws0JKRpnU8jsVFA6yoCU-692" target="Ws0JKRpnU8jsVFA6yoCU-393" edge="1">
          <mxGeometry relative="1" as="geometry" />
        </mxCell>
        <mxCell id="Ws0JKRpnU8jsVFA6yoCU-726" style="edgeStyle=none;rounded=0;orthogonalLoop=1;jettySize=auto;html=1;exitX=0.25;exitY=1;exitDx=0;exitDy=0;entryX=0;entryY=0.5;entryDx=0;entryDy=0;endArrow=none;endFill=0;strokeColor=#00CC00;strokeWidth=2;fontFamily=Roboto;fontSize=16;" parent="1" source="Ws0JKRpnU8jsVFA6yoCU-692" target="Ws0JKRpnU8jsVFA6yoCU-399" edge="1">
          <mxGeometry relative="1" as="geometry" />
        </mxCell>
        <mxCell id="Ws0JKRpnU8jsVFA6yoCU-727" style="edgeStyle=none;rounded=0;orthogonalLoop=1;jettySize=auto;html=1;exitX=0.5;exitY=1;exitDx=0;exitDy=0;entryX=0;entryY=0.5;entryDx=0;entryDy=0;endArrow=none;endFill=0;strokeColor=#00CC00;strokeWidth=2;fontFamily=Roboto;fontSize=16;" parent="1" source="Ws0JKRpnU8jsVFA6yoCU-692" target="Ws0JKRpnU8jsVFA6yoCU-408" edge="1">
          <mxGeometry relative="1" as="geometry" />
        </mxCell>
        <mxCell id="Ws0JKRpnU8jsVFA6yoCU-728" style="edgeStyle=none;rounded=0;orthogonalLoop=1;jettySize=auto;html=1;exitX=0.5;exitY=1;exitDx=0;exitDy=0;entryX=0;entryY=0.5;entryDx=0;entryDy=0;endArrow=none;endFill=0;strokeColor=#00CC00;strokeWidth=2;fontFamily=Roboto;fontSize=16;" parent="1" source="Ws0JKRpnU8jsVFA6yoCU-692" target="Ws0JKRpnU8jsVFA6yoCU-417" edge="1">
          <mxGeometry relative="1" as="geometry" />
        </mxCell>
        <mxCell id="Ws0JKRpnU8jsVFA6yoCU-729" style="edgeStyle=none;rounded=0;orthogonalLoop=1;jettySize=auto;html=1;exitX=0.5;exitY=1;exitDx=0;exitDy=0;entryX=0;entryY=0.5;entryDx=0;entryDy=0;endArrow=none;endFill=0;strokeColor=#00CC00;strokeWidth=2;fontFamily=Roboto;fontSize=16;" parent="1" source="Ws0JKRpnU8jsVFA6yoCU-692" target="Ws0JKRpnU8jsVFA6yoCU-426" edge="1">
          <mxGeometry relative="1" as="geometry" />
        </mxCell>
        <mxCell id="Ws0JKRpnU8jsVFA6yoCU-731" style="edgeStyle=none;rounded=0;orthogonalLoop=1;jettySize=auto;html=1;entryX=0;entryY=0.5;entryDx=0;entryDy=0;endArrow=none;endFill=0;strokeColor=#00CC00;strokeWidth=2;fontFamily=Roboto;fontSize=16;exitX=0.892;exitY=0.983;exitDx=0;exitDy=0;exitPerimeter=0;" parent="1" source="Ws0JKRpnU8jsVFA6yoCU-692" target="Ws0JKRpnU8jsVFA6yoCU-444" edge="1">
          <mxGeometry relative="1" as="geometry" />
        </mxCell>
        <mxCell id="Ws0JKRpnU8jsVFA6yoCU-730" style="edgeStyle=none;rounded=0;orthogonalLoop=1;jettySize=auto;html=1;exitX=0.75;exitY=1;exitDx=0;exitDy=0;entryX=0;entryY=0.5;entryDx=0;entryDy=0;endArrow=none;endFill=0;strokeColor=#00CC00;strokeWidth=2;fontFamily=Roboto;fontSize=16;" parent="1" source="Ws0JKRpnU8jsVFA6yoCU-692" target="Ws0JKRpnU8jsVFA6yoCU-435" edge="1">
          <mxGeometry relative="1" as="geometry" />
        </mxCell>
        <mxCell id="Su0HvrgJdk693_J9CV8J-33" style="edgeStyle=none;rounded=0;orthogonalLoop=1;jettySize=auto;html=1;entryX=0;entryY=1;entryDx=0;entryDy=0;endArrow=none;endFill=0;strokeColor=#00CC00;strokeWidth=2;fontFamily=Roboto;fontSize=16;exitX=1.002;exitY=0.87;exitDx=0;exitDy=0;exitPerimeter=0;" edge="1" parent="1" source="Ws0JKRpnU8jsVFA6yoCU-692" target="Su0HvrgJdk693_J9CV8J-28">
          <mxGeometry relative="1" as="geometry">
            <mxPoint x="834" y="824" as="sourcePoint" />
            <mxPoint x="968" y="945" as="targetPoint" />
          </mxGeometry>
        </mxCell>
        <mxCell id="Su0HvrgJdk693_J9CV8J-34" style="edgeStyle=none;rounded=0;orthogonalLoop=1;jettySize=auto;html=1;exitX=1.002;exitY=0.183;exitDx=0;exitDy=0;entryX=0.973;entryY=0.58;entryDx=0;entryDy=0;endArrow=none;endFill=0;strokeColor=#00CC00;strokeWidth=2;fontFamily=Roboto;fontSize=16;entryPerimeter=0;exitPerimeter=0;" edge="1" parent="1" source="Ws0JKRpnU8jsVFA6yoCU-692" target="Su0HvrgJdk693_J9CV8J-17">
          <mxGeometry relative="1" as="geometry">
            <mxPoint x="847" y="765" as="sourcePoint" />
            <mxPoint x="967" y="675" as="targetPoint" />
          </mxGeometry>
        </mxCell>
        <mxCell id="Ws0JKRpnU8jsVFA6yoCU-732" style="edgeStyle=none;rounded=0;orthogonalLoop=1;jettySize=auto;html=1;exitX=0.5;exitY=0;exitDx=0;exitDy=0;entryX=1;entryY=0.5;entryDx=0;entryDy=0;endArrow=none;endFill=0;strokeColor=#00CC00;strokeWidth=2;fontFamily=Roboto;fontSize=16;" parent="1" source="Ws0JKRpnU8jsVFA6yoCU-688" target="Ws0JKRpnU8jsVFA6yoCU-421" edge="1">
          <mxGeometry relative="1" as="geometry" />
        </mxCell>
        <mxCell id="Ws0JKRpnU8jsVFA6yoCU-733" style="edgeStyle=none;rounded=0;orthogonalLoop=1;jettySize=auto;html=1;exitX=0.5;exitY=0;exitDx=0;exitDy=0;entryX=1;entryY=0.5;entryDx=0;entryDy=0;endArrow=none;endFill=0;strokeColor=#00CC00;strokeWidth=2;fontFamily=Roboto;fontSize=16;" parent="1" source="Ws0JKRpnU8jsVFA6yoCU-688" target="Ws0JKRpnU8jsVFA6yoCU-411" edge="1">
          <mxGeometry relative="1" as="geometry" />
        </mxCell>
        <mxCell id="Ws0JKRpnU8jsVFA6yoCU-734" style="edgeStyle=none;rounded=0;orthogonalLoop=1;jettySize=auto;html=1;exitX=0.5;exitY=0;exitDx=0;exitDy=0;entryX=1;entryY=0.5;entryDx=0;entryDy=0;endArrow=none;endFill=0;strokeColor=#00CC00;strokeWidth=2;fontFamily=Roboto;fontSize=16;" parent="1" source="Ws0JKRpnU8jsVFA6yoCU-688" target="Ws0JKRpnU8jsVFA6yoCU-429" edge="1">
          <mxGeometry relative="1" as="geometry" />
        </mxCell>
        <mxCell id="Ws0JKRpnU8jsVFA6yoCU-735" style="edgeStyle=none;rounded=0;orthogonalLoop=1;jettySize=auto;html=1;exitX=0.75;exitY=0;exitDx=0;exitDy=0;entryX=1;entryY=0.5;entryDx=0;entryDy=0;endArrow=none;endFill=0;strokeColor=#00CC00;strokeWidth=2;fontFamily=Roboto;fontSize=16;" parent="1" source="Ws0JKRpnU8jsVFA6yoCU-688" target="Ws0JKRpnU8jsVFA6yoCU-438" edge="1">
          <mxGeometry relative="1" as="geometry" />
        </mxCell>
        <mxCell id="Ws0JKRpnU8jsVFA6yoCU-736" style="edgeStyle=none;rounded=0;orthogonalLoop=1;jettySize=auto;html=1;entryX=1;entryY=0.5;entryDx=0;entryDy=0;endArrow=none;endFill=0;strokeColor=#00CC00;strokeWidth=2;fontFamily=Roboto;fontSize=16;exitX=0.872;exitY=0.003;exitDx=0;exitDy=0;exitPerimeter=0;" parent="1" source="Ws0JKRpnU8jsVFA6yoCU-688" target="Ws0JKRpnU8jsVFA6yoCU-447" edge="1">
          <mxGeometry relative="1" as="geometry">
            <mxPoint x="830" y="1180" as="sourcePoint" />
          </mxGeometry>
        </mxCell>
        <mxCell id="Ws0JKRpnU8jsVFA6yoCU-737" style="edgeStyle=none;rounded=0;orthogonalLoop=1;jettySize=auto;html=1;exitX=0.25;exitY=0;exitDx=0;exitDy=0;entryX=1;entryY=0.5;entryDx=0;entryDy=0;endArrow=none;endFill=0;strokeColor=#00CC00;strokeWidth=2;fontFamily=Roboto;fontSize=16;" parent="1" source="Ws0JKRpnU8jsVFA6yoCU-688" target="Ws0JKRpnU8jsVFA6yoCU-402" edge="1">
          <mxGeometry relative="1" as="geometry" />
        </mxCell>
        <mxCell id="Ws0JKRpnU8jsVFA6yoCU-738" style="edgeStyle=none;rounded=0;orthogonalLoop=1;jettySize=auto;html=1;exitX=0;exitY=0;exitDx=0;exitDy=0;entryX=1;entryY=0.5;entryDx=0;entryDy=0;endArrow=none;endFill=0;strokeColor=#00CC00;strokeWidth=2;fontFamily=Roboto;fontSize=16;" parent="1" source="Ws0JKRpnU8jsVFA6yoCU-688" target="Ws0JKRpnU8jsVFA6yoCU-394" edge="1">
          <mxGeometry relative="1" as="geometry" />
        </mxCell>
        <mxCell id="Ws0JKRpnU8jsVFA6yoCU-797" style="edgeStyle=none;rounded=0;orthogonalLoop=1;jettySize=auto;html=1;exitX=0.5;exitY=1;exitDx=0;exitDy=0;entryX=1;entryY=1;entryDx=0;entryDy=0;endArrow=none;endFill=0;strokeColor=#00CC00;strokeWidth=2;fontFamily=Roboto;fontSize=16;" parent="1" source="Ws0JKRpnU8jsVFA6yoCU-393" target="Ws0JKRpnU8jsVFA6yoCU-23" edge="1">
          <mxGeometry relative="1" as="geometry" />
        </mxCell>
        <mxCell id="Ws0JKRpnU8jsVFA6yoCU-798" style="edgeStyle=none;rounded=0;orthogonalLoop=1;jettySize=auto;html=1;exitX=0;exitY=1;exitDx=0;exitDy=0;endArrow=none;endFill=0;strokeColor=#00CC00;strokeWidth=2;fontFamily=Roboto;fontSize=16;entryX=1;entryY=1;entryDx=0;entryDy=0;" parent="1" source="Ws0JKRpnU8jsVFA6yoCU-394" target="Ws0JKRpnU8jsVFA6yoCU-23" edge="1">
          <mxGeometry relative="1" as="geometry">
            <mxPoint x="520" y="810" as="targetPoint" />
          </mxGeometry>
        </mxCell>
        <mxCell id="Su0HvrgJdk693_J9CV8J-35" style="edgeStyle=none;rounded=0;orthogonalLoop=1;jettySize=auto;html=1;exitX=1.002;exitY=0.13;exitDx=0;exitDy=0;entryX=1;entryY=0.5;entryDx=0;entryDy=0;endArrow=none;endFill=0;strokeColor=#00CC00;strokeWidth=2;fontFamily=Roboto;fontSize=16;exitPerimeter=0;" edge="1" parent="1" source="Ws0JKRpnU8jsVFA6yoCU-688" target="Su0HvrgJdk693_J9CV8J-30">
          <mxGeometry relative="1" as="geometry">
            <mxPoint x="847" y="1195" as="sourcePoint" />
            <mxPoint x="968" y="1045" as="targetPoint" />
          </mxGeometry>
        </mxCell>
        <mxCell id="Ws0JKRpnU8jsVFA6yoCU-461" value="" style="rounded=0;whiteSpace=wrap;html=1;fontFamily=Roboto;fontSize=16;rotation=180;horizontal=1;" parent="1" vertex="1">
          <mxGeometry x="387" y="1000" width="140" height="490" as="geometry" />
        </mxCell>
        <mxCell id="Ws0JKRpnU8jsVFA6yoCU-462" value="49" style="ellipse;whiteSpace=wrap;html=1;aspect=fixed;fillColor=#e51400;strokeColor=#B20000;fontColor=#ffffff;fontSize=16;fontFamily=Roboto;rotation=0;verticalAlign=top;horizontal=1;" parent="1" vertex="1">
          <mxGeometry x="477" y="1020" width="30" height="30" as="geometry" />
        </mxCell>
        <mxCell id="Ws0JKRpnU8jsVFA6yoCU-525" style="edgeStyle=none;rounded=0;orthogonalLoop=1;jettySize=auto;html=1;exitX=1;exitY=0.5;exitDx=0;exitDy=0;entryX=0;entryY=0.5;entryDx=0;entryDy=0;endArrow=none;endFill=0;strokeColor=#00CC00;strokeWidth=2;fontFamily=Roboto;fontSize=16;" parent="1" source="Ws0JKRpnU8jsVFA6yoCU-463" target="Ws0JKRpnU8jsVFA6yoCU-462" edge="1">
          <mxGeometry relative="1" as="geometry" />
        </mxCell>
        <mxCell id="Ws0JKRpnU8jsVFA6yoCU-463" value="50" style="ellipse;whiteSpace=wrap;html=1;aspect=fixed;fillColor=#e51400;strokeColor=#B20000;fontColor=#ffffff;fontSize=16;fontFamily=Roboto;rotation=0;verticalAlign=top;horizontal=1;" parent="1" vertex="1">
          <mxGeometry x="407" y="1020" width="30" height="30" as="geometry" />
        </mxCell>
        <mxCell id="Ws0JKRpnU8jsVFA6yoCU-532" style="edgeStyle=none;rounded=0;orthogonalLoop=1;jettySize=auto;html=1;exitX=0;exitY=0;exitDx=0;exitDy=0;endArrow=none;endFill=0;strokeColor=#FF8000;strokeWidth=2;fontFamily=Roboto;fontSize=16;" parent="1" source="Ws0JKRpnU8jsVFA6yoCU-468" edge="1">
          <mxGeometry relative="1" as="geometry">
            <mxPoint x="432" y="1045" as="targetPoint" />
          </mxGeometry>
        </mxCell>
        <mxCell id="Ws0JKRpnU8jsVFA6yoCU-468" value="51" style="ellipse;whiteSpace=wrap;html=1;aspect=fixed;fontSize=16;fontFamily=Roboto;rotation=0;verticalAlign=top;horizontal=1;" parent="1" vertex="1">
          <mxGeometry x="477" y="1080" width="30" height="30" as="geometry" />
        </mxCell>
        <mxCell id="Ws0JKRpnU8jsVFA6yoCU-529" style="edgeStyle=none;rounded=0;orthogonalLoop=1;jettySize=auto;html=1;entryX=0.5;entryY=0;entryDx=0;entryDy=0;endArrow=none;endFill=0;strokeColor=#FF8000;strokeWidth=2;fontFamily=Roboto;fontSize=16;" parent="1" target="Ws0JKRpnU8jsVFA6yoCU-468" edge="1">
          <mxGeometry relative="1" as="geometry">
            <mxPoint x="492" y="1050" as="sourcePoint" />
          </mxGeometry>
        </mxCell>
        <mxCell id="Ws0JKRpnU8jsVFA6yoCU-524" style="edgeStyle=none;rounded=0;orthogonalLoop=1;jettySize=auto;html=1;exitX=1;exitY=0.5;exitDx=0;exitDy=0;entryX=0;entryY=0.5;entryDx=0;entryDy=0;endArrow=none;endFill=0;strokeColor=#00CC00;strokeWidth=2;fontFamily=Roboto;fontSize=16;" parent="1" source="Ws0JKRpnU8jsVFA6yoCU-471" target="Ws0JKRpnU8jsVFA6yoCU-468" edge="1">
          <mxGeometry relative="1" as="geometry" />
        </mxCell>
        <mxCell id="Ws0JKRpnU8jsVFA6yoCU-533" style="edgeStyle=none;rounded=0;orthogonalLoop=1;jettySize=auto;html=1;exitX=1;exitY=0;exitDx=0;exitDy=0;entryX=0;entryY=1;entryDx=0;entryDy=0;endArrow=none;endFill=0;strokeColor=#FF8000;strokeWidth=2;fontFamily=Roboto;fontSize=16;" parent="1" source="Ws0JKRpnU8jsVFA6yoCU-471" target="Ws0JKRpnU8jsVFA6yoCU-462" edge="1">
          <mxGeometry relative="1" as="geometry" />
        </mxCell>
        <mxCell id="Ws0JKRpnU8jsVFA6yoCU-471" value="52" style="ellipse;whiteSpace=wrap;html=1;aspect=fixed;fontSize=16;fontFamily=Roboto;rotation=0;verticalAlign=top;horizontal=1;" parent="1" vertex="1">
          <mxGeometry x="407" y="1080" width="30" height="30" as="geometry" />
        </mxCell>
        <mxCell id="Ws0JKRpnU8jsVFA6yoCU-530" style="edgeStyle=none;rounded=0;orthogonalLoop=1;jettySize=auto;html=1;exitX=0.5;exitY=1;exitDx=0;exitDy=0;entryX=0.5;entryY=0;entryDx=0;entryDy=0;endArrow=none;endFill=0;strokeColor=#FF8000;strokeWidth=2;fontFamily=Roboto;fontSize=16;" parent="1" source="Ws0JKRpnU8jsVFA6yoCU-463" target="Ws0JKRpnU8jsVFA6yoCU-471" edge="1">
          <mxGeometry relative="1" as="geometry" />
        </mxCell>
        <mxCell id="Ws0JKRpnU8jsVFA6yoCU-539" style="edgeStyle=none;rounded=0;orthogonalLoop=1;jettySize=auto;html=1;exitX=0;exitY=0;exitDx=0;exitDy=0;entryX=1;entryY=1;entryDx=0;entryDy=0;endArrow=none;endFill=0;strokeColor=#FF8000;strokeWidth=2;fontFamily=Roboto;fontSize=16;" parent="1" source="Ws0JKRpnU8jsVFA6yoCU-477" target="Ws0JKRpnU8jsVFA6yoCU-471" edge="1">
          <mxGeometry relative="1" as="geometry" />
        </mxCell>
        <mxCell id="Ws0JKRpnU8jsVFA6yoCU-477" value="53" style="ellipse;whiteSpace=wrap;html=1;aspect=fixed;fontSize=16;fontFamily=Roboto;rotation=0;verticalAlign=top;horizontal=1;" parent="1" vertex="1">
          <mxGeometry x="477" y="1140" width="30" height="30" as="geometry" />
        </mxCell>
        <mxCell id="Ws0JKRpnU8jsVFA6yoCU-537" style="edgeStyle=none;rounded=0;orthogonalLoop=1;jettySize=auto;html=1;exitX=0.5;exitY=1;exitDx=0;exitDy=0;entryX=0.5;entryY=0;entryDx=0;entryDy=0;endArrow=none;endFill=0;strokeColor=#FF8000;strokeWidth=2;fontFamily=Roboto;fontSize=16;" parent="1" source="Ws0JKRpnU8jsVFA6yoCU-468" target="Ws0JKRpnU8jsVFA6yoCU-477" edge="1">
          <mxGeometry relative="1" as="geometry" />
        </mxCell>
        <mxCell id="Ws0JKRpnU8jsVFA6yoCU-523" style="edgeStyle=none;rounded=0;orthogonalLoop=1;jettySize=auto;html=1;exitX=1;exitY=0.5;exitDx=0;exitDy=0;entryX=0;entryY=0.5;entryDx=0;entryDy=0;endArrow=none;endFill=0;strokeColor=#00CC00;strokeWidth=2;fontFamily=Roboto;fontSize=16;" parent="1" source="Ws0JKRpnU8jsVFA6yoCU-480" target="Ws0JKRpnU8jsVFA6yoCU-477" edge="1">
          <mxGeometry relative="1" as="geometry" />
        </mxCell>
        <mxCell id="Ws0JKRpnU8jsVFA6yoCU-480" value="54" style="ellipse;whiteSpace=wrap;html=1;aspect=fixed;fontSize=16;fontFamily=Roboto;rotation=0;verticalAlign=top;horizontal=1;" parent="1" vertex="1">
          <mxGeometry x="407" y="1140" width="30" height="30" as="geometry" />
        </mxCell>
        <mxCell id="Ws0JKRpnU8jsVFA6yoCU-538" style="edgeStyle=none;rounded=0;orthogonalLoop=1;jettySize=auto;html=1;exitX=0;exitY=1;exitDx=0;exitDy=0;endArrow=none;endFill=0;strokeColor=#FF8000;strokeWidth=2;fontFamily=Roboto;fontSize=16;" parent="1" source="Ws0JKRpnU8jsVFA6yoCU-468" target="Ws0JKRpnU8jsVFA6yoCU-480" edge="1">
          <mxGeometry relative="1" as="geometry" />
        </mxCell>
        <mxCell id="Ws0JKRpnU8jsVFA6yoCU-534" style="edgeStyle=none;rounded=0;orthogonalLoop=1;jettySize=auto;html=1;exitX=0.5;exitY=1;exitDx=0;exitDy=0;entryX=0.5;entryY=0;entryDx=0;entryDy=0;endArrow=none;endFill=0;strokeColor=#FF8000;strokeWidth=2;fontFamily=Roboto;fontSize=16;" parent="1" source="Ws0JKRpnU8jsVFA6yoCU-471" target="Ws0JKRpnU8jsVFA6yoCU-480" edge="1">
          <mxGeometry relative="1" as="geometry" />
        </mxCell>
        <mxCell id="Ws0JKRpnU8jsVFA6yoCU-486" value="55" style="ellipse;whiteSpace=wrap;html=1;aspect=fixed;fontSize=16;fontFamily=Roboto;rotation=0;verticalAlign=top;horizontal=1;" parent="1" vertex="1">
          <mxGeometry x="477" y="1200" width="30" height="30" as="geometry" />
        </mxCell>
        <mxCell id="Ws0JKRpnU8jsVFA6yoCU-544" style="edgeStyle=none;rounded=0;orthogonalLoop=1;jettySize=auto;html=1;exitX=0.5;exitY=1;exitDx=0;exitDy=0;entryX=0.5;entryY=0;entryDx=0;entryDy=0;endArrow=none;endFill=0;strokeColor=#FF8000;strokeWidth=2;fontFamily=Roboto;fontSize=16;" parent="1" source="Ws0JKRpnU8jsVFA6yoCU-477" target="Ws0JKRpnU8jsVFA6yoCU-486" edge="1">
          <mxGeometry relative="1" as="geometry" />
        </mxCell>
        <mxCell id="Ws0JKRpnU8jsVFA6yoCU-542" style="edgeStyle=none;rounded=0;orthogonalLoop=1;jettySize=auto;html=1;exitX=1;exitY=1;exitDx=0;exitDy=0;entryX=0;entryY=0;entryDx=0;entryDy=0;endArrow=none;endFill=0;strokeColor=#FF8000;strokeWidth=2;fontFamily=Roboto;fontSize=16;" parent="1" source="Ws0JKRpnU8jsVFA6yoCU-480" target="Ws0JKRpnU8jsVFA6yoCU-486" edge="1">
          <mxGeometry relative="1" as="geometry" />
        </mxCell>
        <mxCell id="Ws0JKRpnU8jsVFA6yoCU-522" style="edgeStyle=none;rounded=0;orthogonalLoop=1;jettySize=auto;html=1;exitX=1;exitY=0.5;exitDx=0;exitDy=0;endArrow=none;endFill=0;strokeColor=#00CC00;strokeWidth=2;fontFamily=Roboto;fontSize=16;" parent="1" source="Ws0JKRpnU8jsVFA6yoCU-490" target="Ws0JKRpnU8jsVFA6yoCU-486" edge="1">
          <mxGeometry relative="1" as="geometry" />
        </mxCell>
        <mxCell id="Ws0JKRpnU8jsVFA6yoCU-490" value="56" style="ellipse;whiteSpace=wrap;html=1;aspect=fixed;fontSize=16;fontFamily=Roboto;rotation=0;verticalAlign=top;horizontal=1;" parent="1" vertex="1">
          <mxGeometry x="407" y="1200" width="30" height="30" as="geometry" />
        </mxCell>
        <mxCell id="Ws0JKRpnU8jsVFA6yoCU-543" style="edgeStyle=none;rounded=0;orthogonalLoop=1;jettySize=auto;html=1;exitX=0;exitY=1;exitDx=0;exitDy=0;entryX=1;entryY=0;entryDx=0;entryDy=0;endArrow=none;endFill=0;strokeColor=#FF8000;strokeWidth=2;fontFamily=Roboto;fontSize=16;" parent="1" source="Ws0JKRpnU8jsVFA6yoCU-477" target="Ws0JKRpnU8jsVFA6yoCU-490" edge="1">
          <mxGeometry relative="1" as="geometry" />
        </mxCell>
        <mxCell id="Ws0JKRpnU8jsVFA6yoCU-546" style="edgeStyle=none;rounded=0;orthogonalLoop=1;jettySize=auto;html=1;exitX=0.5;exitY=1;exitDx=0;exitDy=0;entryX=0.5;entryY=0;entryDx=0;entryDy=0;endArrow=none;endFill=0;strokeColor=#FF8000;strokeWidth=2;fontFamily=Roboto;fontSize=16;" parent="1" source="Ws0JKRpnU8jsVFA6yoCU-480" target="Ws0JKRpnU8jsVFA6yoCU-490" edge="1">
          <mxGeometry relative="1" as="geometry" />
        </mxCell>
        <mxCell id="Ws0JKRpnU8jsVFA6yoCU-495" value="57" style="ellipse;whiteSpace=wrap;html=1;aspect=fixed;fontSize=16;fontFamily=Roboto;rotation=0;verticalAlign=top;horizontal=1;" parent="1" vertex="1">
          <mxGeometry x="477" y="1260" width="30" height="30" as="geometry" />
        </mxCell>
        <mxCell id="Ws0JKRpnU8jsVFA6yoCU-551" style="edgeStyle=none;rounded=0;orthogonalLoop=1;jettySize=auto;html=1;exitX=0.5;exitY=1;exitDx=0;exitDy=0;entryX=0.5;entryY=0;entryDx=0;entryDy=0;endArrow=none;endFill=0;strokeColor=#FF8000;strokeWidth=2;fontFamily=Roboto;fontSize=16;" parent="1" source="Ws0JKRpnU8jsVFA6yoCU-486" target="Ws0JKRpnU8jsVFA6yoCU-495" edge="1">
          <mxGeometry relative="1" as="geometry" />
        </mxCell>
        <mxCell id="Ws0JKRpnU8jsVFA6yoCU-564" style="edgeStyle=none;rounded=0;orthogonalLoop=1;jettySize=auto;html=1;exitX=1;exitY=1;exitDx=0;exitDy=0;entryX=0;entryY=0;entryDx=0;entryDy=0;endArrow=none;endFill=0;strokeColor=#FF8000;strokeWidth=2;fontFamily=Roboto;fontSize=16;" parent="1" source="Ws0JKRpnU8jsVFA6yoCU-490" target="Ws0JKRpnU8jsVFA6yoCU-495" edge="1">
          <mxGeometry relative="1" as="geometry" />
        </mxCell>
        <mxCell id="Ws0JKRpnU8jsVFA6yoCU-521" style="edgeStyle=none;rounded=0;orthogonalLoop=1;jettySize=auto;html=1;exitX=1;exitY=0.5;exitDx=0;exitDy=0;entryX=0;entryY=0.5;entryDx=0;entryDy=0;endArrow=none;endFill=0;strokeColor=#00CC00;strokeWidth=2;fontFamily=Roboto;fontSize=16;" parent="1" source="Ws0JKRpnU8jsVFA6yoCU-498" target="Ws0JKRpnU8jsVFA6yoCU-495" edge="1">
          <mxGeometry relative="1" as="geometry" />
        </mxCell>
        <mxCell id="Ws0JKRpnU8jsVFA6yoCU-498" value="58" style="ellipse;whiteSpace=wrap;html=1;aspect=fixed;fontSize=16;fontFamily=Roboto;rotation=0;verticalAlign=top;horizontal=1;" parent="1" vertex="1">
          <mxGeometry x="407" y="1260" width="30" height="30" as="geometry" />
        </mxCell>
        <mxCell id="Ws0JKRpnU8jsVFA6yoCU-565" style="edgeStyle=none;rounded=0;orthogonalLoop=1;jettySize=auto;html=1;exitX=0;exitY=1;exitDx=0;exitDy=0;entryX=1;entryY=0;entryDx=0;entryDy=0;endArrow=none;endFill=0;strokeColor=#FF8000;strokeWidth=2;fontFamily=Roboto;fontSize=16;" parent="1" source="Ws0JKRpnU8jsVFA6yoCU-486" target="Ws0JKRpnU8jsVFA6yoCU-498" edge="1">
          <mxGeometry relative="1" as="geometry" />
        </mxCell>
        <mxCell id="Ws0JKRpnU8jsVFA6yoCU-548" style="edgeStyle=none;rounded=0;orthogonalLoop=1;jettySize=auto;html=1;exitX=0.5;exitY=1;exitDx=0;exitDy=0;entryX=0.5;entryY=0;entryDx=0;entryDy=0;endArrow=none;endFill=0;strokeColor=#FF8000;strokeWidth=2;fontFamily=Roboto;fontSize=16;" parent="1" source="Ws0JKRpnU8jsVFA6yoCU-490" target="Ws0JKRpnU8jsVFA6yoCU-498" edge="1">
          <mxGeometry relative="1" as="geometry" />
        </mxCell>
        <mxCell id="Ws0JKRpnU8jsVFA6yoCU-504" value="59" style="ellipse;whiteSpace=wrap;html=1;aspect=fixed;fontSize=16;fontFamily=Roboto;rotation=0;verticalAlign=top;horizontal=1;" parent="1" vertex="1">
          <mxGeometry x="477" y="1320" width="30" height="30" as="geometry" />
        </mxCell>
        <mxCell id="Ws0JKRpnU8jsVFA6yoCU-555" style="edgeStyle=none;rounded=0;orthogonalLoop=1;jettySize=auto;html=1;exitX=0.5;exitY=1;exitDx=0;exitDy=0;entryX=0.5;entryY=0;entryDx=0;entryDy=0;endArrow=none;endFill=0;strokeColor=#FF8000;strokeWidth=2;fontFamily=Roboto;fontSize=16;" parent="1" source="Ws0JKRpnU8jsVFA6yoCU-495" target="Ws0JKRpnU8jsVFA6yoCU-504" edge="1">
          <mxGeometry relative="1" as="geometry" />
        </mxCell>
        <mxCell id="Ws0JKRpnU8jsVFA6yoCU-562" style="edgeStyle=none;rounded=0;orthogonalLoop=1;jettySize=auto;html=1;exitX=1;exitY=1;exitDx=0;exitDy=0;entryX=0;entryY=0;entryDx=0;entryDy=0;endArrow=none;endFill=0;strokeColor=#FF8000;strokeWidth=2;fontFamily=Roboto;fontSize=16;" parent="1" source="Ws0JKRpnU8jsVFA6yoCU-498" target="Ws0JKRpnU8jsVFA6yoCU-504" edge="1">
          <mxGeometry relative="1" as="geometry" />
        </mxCell>
        <mxCell id="Ws0JKRpnU8jsVFA6yoCU-519" style="edgeStyle=none;rounded=0;orthogonalLoop=1;jettySize=auto;html=1;exitX=1;exitY=0.5;exitDx=0;exitDy=0;endArrow=none;endFill=0;strokeColor=#00CC00;strokeWidth=2;fontFamily=Roboto;fontSize=16;" parent="1" source="Ws0JKRpnU8jsVFA6yoCU-507" target="Ws0JKRpnU8jsVFA6yoCU-504" edge="1">
          <mxGeometry relative="1" as="geometry" />
        </mxCell>
        <mxCell id="Ws0JKRpnU8jsVFA6yoCU-507" value="60" style="ellipse;whiteSpace=wrap;html=1;aspect=fixed;fontSize=16;fontFamily=Roboto;rotation=0;verticalAlign=top;horizontal=1;" parent="1" vertex="1">
          <mxGeometry x="407" y="1320" width="30" height="30" as="geometry" />
        </mxCell>
        <mxCell id="Ws0JKRpnU8jsVFA6yoCU-563" style="edgeStyle=none;rounded=0;orthogonalLoop=1;jettySize=auto;html=1;exitX=0;exitY=1;exitDx=0;exitDy=0;entryX=1;entryY=0;entryDx=0;entryDy=0;endArrow=none;endFill=0;strokeColor=#FF8000;strokeWidth=2;fontFamily=Roboto;fontSize=16;" parent="1" source="Ws0JKRpnU8jsVFA6yoCU-495" target="Ws0JKRpnU8jsVFA6yoCU-507" edge="1">
          <mxGeometry relative="1" as="geometry" />
        </mxCell>
        <mxCell id="Ws0JKRpnU8jsVFA6yoCU-552" style="edgeStyle=none;rounded=0;orthogonalLoop=1;jettySize=auto;html=1;exitX=0.5;exitY=1;exitDx=0;exitDy=0;entryX=0.5;entryY=0;entryDx=0;entryDy=0;endArrow=none;endFill=0;strokeColor=#FF8000;strokeWidth=2;fontFamily=Roboto;fontSize=16;" parent="1" source="Ws0JKRpnU8jsVFA6yoCU-498" target="Ws0JKRpnU8jsVFA6yoCU-507" edge="1">
          <mxGeometry relative="1" as="geometry" />
        </mxCell>
        <mxCell id="Ws0JKRpnU8jsVFA6yoCU-513" value="61" style="ellipse;whiteSpace=wrap;html=1;aspect=fixed;fontSize=16;fontFamily=Roboto;rotation=0;verticalAlign=top;horizontal=1;" parent="1" vertex="1">
          <mxGeometry x="477" y="1380" width="30" height="30" as="geometry" />
        </mxCell>
        <mxCell id="Ws0JKRpnU8jsVFA6yoCU-559" style="edgeStyle=none;rounded=0;orthogonalLoop=1;jettySize=auto;html=1;exitX=0.5;exitY=1;exitDx=0;exitDy=0;entryX=0.5;entryY=0;entryDx=0;entryDy=0;endArrow=none;endFill=0;strokeColor=#FF8000;strokeWidth=2;fontFamily=Roboto;fontSize=16;" parent="1" source="Ws0JKRpnU8jsVFA6yoCU-504" target="Ws0JKRpnU8jsVFA6yoCU-513" edge="1">
          <mxGeometry relative="1" as="geometry" />
        </mxCell>
        <mxCell id="Ws0JKRpnU8jsVFA6yoCU-560" style="edgeStyle=none;rounded=0;orthogonalLoop=1;jettySize=auto;html=1;exitX=1;exitY=1;exitDx=0;exitDy=0;entryX=0;entryY=0;entryDx=0;entryDy=0;endArrow=none;endFill=0;strokeColor=#FF8000;strokeWidth=2;fontFamily=Roboto;fontSize=16;" parent="1" source="Ws0JKRpnU8jsVFA6yoCU-507" target="Ws0JKRpnU8jsVFA6yoCU-513" edge="1">
          <mxGeometry relative="1" as="geometry" />
        </mxCell>
        <mxCell id="Ws0JKRpnU8jsVFA6yoCU-520" style="edgeStyle=none;rounded=0;orthogonalLoop=1;jettySize=auto;html=1;exitX=1;exitY=0.5;exitDx=0;exitDy=0;entryX=0;entryY=0.5;entryDx=0;entryDy=0;endArrow=none;endFill=0;strokeColor=#00CC00;strokeWidth=2;fontFamily=Roboto;fontSize=16;" parent="1" source="Ws0JKRpnU8jsVFA6yoCU-516" target="Ws0JKRpnU8jsVFA6yoCU-513" edge="1">
          <mxGeometry relative="1" as="geometry" />
        </mxCell>
        <mxCell id="Ws0JKRpnU8jsVFA6yoCU-516" value="62" style="ellipse;whiteSpace=wrap;html=1;aspect=fixed;fontSize=16;fontFamily=Roboto;rotation=0;verticalAlign=top;horizontal=1;" parent="1" vertex="1">
          <mxGeometry x="407" y="1380" width="30" height="30" as="geometry" />
        </mxCell>
        <mxCell id="Ws0JKRpnU8jsVFA6yoCU-561" style="edgeStyle=none;rounded=0;orthogonalLoop=1;jettySize=auto;html=1;exitX=0;exitY=1;exitDx=0;exitDy=0;entryX=1;entryY=0;entryDx=0;entryDy=0;endArrow=none;endFill=0;strokeColor=#FF8000;strokeWidth=2;fontFamily=Roboto;fontSize=16;" parent="1" source="Ws0JKRpnU8jsVFA6yoCU-504" target="Ws0JKRpnU8jsVFA6yoCU-516" edge="1">
          <mxGeometry relative="1" as="geometry" />
        </mxCell>
        <mxCell id="Ws0JKRpnU8jsVFA6yoCU-556" style="edgeStyle=none;rounded=0;orthogonalLoop=1;jettySize=auto;html=1;exitX=0.5;exitY=1;exitDx=0;exitDy=0;entryX=0.5;entryY=0;entryDx=0;entryDy=0;endArrow=none;endFill=0;strokeColor=#FF8000;strokeWidth=2;fontFamily=Roboto;fontSize=16;" parent="1" source="Ws0JKRpnU8jsVFA6yoCU-507" target="Ws0JKRpnU8jsVFA6yoCU-516" edge="1">
          <mxGeometry relative="1" as="geometry" />
        </mxCell>
        <mxCell id="Su0HvrgJdk693_J9CV8J-42" value="63" style="ellipse;whiteSpace=wrap;html=1;aspect=fixed;fontSize=16;fontFamily=Roboto;rotation=0;verticalAlign=top;horizontal=1;fillColor=#647687;strokeColor=#314354;fontColor=#ffffff;" vertex="1" parent="1">
          <mxGeometry x="477" y="1439" width="30" height="30" as="geometry" />
        </mxCell>
        <mxCell id="Su0HvrgJdk693_J9CV8J-43" style="edgeStyle=none;rounded=0;orthogonalLoop=1;jettySize=auto;html=1;exitX=0.5;exitY=1;exitDx=0;exitDy=0;entryX=0.5;entryY=0;entryDx=0;entryDy=0;endArrow=none;endFill=0;strokeColor=#FF8000;strokeWidth=2;fontFamily=Roboto;fontSize=16;" edge="1" parent="1" target="Su0HvrgJdk693_J9CV8J-42">
          <mxGeometry relative="1" as="geometry">
            <mxPoint x="492" y="1409" as="sourcePoint" />
          </mxGeometry>
        </mxCell>
        <mxCell id="Su0HvrgJdk693_J9CV8J-44" style="edgeStyle=none;rounded=0;orthogonalLoop=1;jettySize=auto;html=1;exitX=1;exitY=1;exitDx=0;exitDy=0;entryX=0;entryY=0;entryDx=0;entryDy=0;endArrow=none;endFill=0;strokeColor=#FF8000;strokeWidth=2;fontFamily=Roboto;fontSize=16;" edge="1" parent="1" target="Su0HvrgJdk693_J9CV8J-42">
          <mxGeometry relative="1" as="geometry">
            <mxPoint x="433" y="1405" as="sourcePoint" />
          </mxGeometry>
        </mxCell>
        <mxCell id="Su0HvrgJdk693_J9CV8J-45" style="edgeStyle=none;rounded=0;orthogonalLoop=1;jettySize=auto;html=1;exitX=1;exitY=0.5;exitDx=0;exitDy=0;entryX=0;entryY=0.5;entryDx=0;entryDy=0;endArrow=none;endFill=0;strokeColor=#00CC00;strokeWidth=2;fontFamily=Roboto;fontSize=16;" edge="1" parent="1" source="Su0HvrgJdk693_J9CV8J-46" target="Su0HvrgJdk693_J9CV8J-42">
          <mxGeometry relative="1" as="geometry" />
        </mxCell>
        <mxCell id="Su0HvrgJdk693_J9CV8J-46" value="64" style="ellipse;whiteSpace=wrap;html=1;aspect=fixed;fontSize=16;fontFamily=Roboto;rotation=0;verticalAlign=top;horizontal=1;fillColor=#647687;strokeColor=#314354;fontColor=#ffffff;" vertex="1" parent="1">
          <mxGeometry x="407" y="1439" width="30" height="30" as="geometry" />
        </mxCell>
        <mxCell id="Su0HvrgJdk693_J9CV8J-47" style="edgeStyle=none;rounded=0;orthogonalLoop=1;jettySize=auto;html=1;exitX=0;exitY=1;exitDx=0;exitDy=0;entryX=1;entryY=0;entryDx=0;entryDy=0;endArrow=none;endFill=0;strokeColor=#FF8000;strokeWidth=2;fontFamily=Roboto;fontSize=16;" edge="1" parent="1" target="Su0HvrgJdk693_J9CV8J-46">
          <mxGeometry relative="1" as="geometry">
            <mxPoint x="481" y="1405" as="sourcePoint" />
          </mxGeometry>
        </mxCell>
        <mxCell id="Su0HvrgJdk693_J9CV8J-48" style="edgeStyle=none;rounded=0;orthogonalLoop=1;jettySize=auto;html=1;entryX=0.5;entryY=0;entryDx=0;entryDy=0;endArrow=none;endFill=0;strokeColor=#FF8000;strokeWidth=2;fontFamily=Roboto;fontSize=16;" edge="1" parent="1" target="Su0HvrgJdk693_J9CV8J-46">
          <mxGeometry relative="1" as="geometry">
            <mxPoint x="422" y="1410" as="sourcePoint" />
          </mxGeometry>
        </mxCell>
        <mxCell id="Ws0JKRpnU8jsVFA6yoCU-759" style="edgeStyle=none;rounded=0;orthogonalLoop=1;jettySize=auto;html=1;exitX=1;exitY=0.75;exitDx=0;exitDy=0;entryX=0;entryY=0.5;entryDx=0;entryDy=0;endArrow=none;endFill=0;strokeColor=#00CC00;strokeWidth=2;fontFamily=Roboto;fontSize=16;" parent="1" source="Ws0JKRpnU8jsVFA6yoCU-686" target="Ws0JKRpnU8jsVFA6yoCU-507" edge="1">
          <mxGeometry relative="1" as="geometry" />
        </mxCell>
        <mxCell id="Ws0JKRpnU8jsVFA6yoCU-761" style="edgeStyle=none;rounded=0;orthogonalLoop=1;jettySize=auto;html=1;exitX=1;exitY=1;exitDx=0;exitDy=0;entryX=0;entryY=0.5;entryDx=0;entryDy=0;endArrow=none;endFill=0;strokeColor=#00CC00;strokeWidth=2;fontFamily=Roboto;fontSize=16;" parent="1" source="Ws0JKRpnU8jsVFA6yoCU-686" target="Ws0JKRpnU8jsVFA6yoCU-516" edge="1">
          <mxGeometry relative="1" as="geometry" />
        </mxCell>
        <mxCell id="Ws0JKRpnU8jsVFA6yoCU-740" style="edgeStyle=none;rounded=0;orthogonalLoop=1;jettySize=auto;html=1;exitX=0;exitY=0;exitDx=0;exitDy=0;entryX=1;entryY=0.5;entryDx=0;entryDy=0;endArrow=none;endFill=0;strokeColor=#00CC00;strokeWidth=2;fontFamily=Roboto;fontSize=16;" parent="1" source="Ws0JKRpnU8jsVFA6yoCU-688" target="Ws0JKRpnU8jsVFA6yoCU-462" edge="1">
          <mxGeometry relative="1" as="geometry" />
        </mxCell>
        <mxCell id="Ws0JKRpnU8jsVFA6yoCU-741" style="edgeStyle=none;rounded=0;orthogonalLoop=1;jettySize=auto;html=1;exitX=0;exitY=0.25;exitDx=0;exitDy=0;entryX=1;entryY=0.5;entryDx=0;entryDy=0;endArrow=none;endFill=0;strokeColor=#00CC00;strokeWidth=2;fontFamily=Roboto;fontSize=16;" parent="1" source="Ws0JKRpnU8jsVFA6yoCU-688" target="Ws0JKRpnU8jsVFA6yoCU-468" edge="1">
          <mxGeometry relative="1" as="geometry" />
        </mxCell>
        <mxCell id="Ws0JKRpnU8jsVFA6yoCU-742" style="edgeStyle=none;rounded=0;orthogonalLoop=1;jettySize=auto;html=1;exitX=0;exitY=0.5;exitDx=0;exitDy=0;entryX=1;entryY=0.5;entryDx=0;entryDy=0;endArrow=none;endFill=0;strokeColor=#00CC00;strokeWidth=2;fontFamily=Roboto;fontSize=16;" parent="1" source="Ws0JKRpnU8jsVFA6yoCU-688" target="Ws0JKRpnU8jsVFA6yoCU-477" edge="1">
          <mxGeometry relative="1" as="geometry" />
        </mxCell>
        <mxCell id="Ws0JKRpnU8jsVFA6yoCU-744" style="edgeStyle=none;rounded=0;orthogonalLoop=1;jettySize=auto;html=1;exitX=0;exitY=0.5;exitDx=0;exitDy=0;entryX=1;entryY=0.5;entryDx=0;entryDy=0;endArrow=none;endFill=0;strokeColor=#00CC00;strokeWidth=2;fontFamily=Roboto;fontSize=16;" parent="1" source="Ws0JKRpnU8jsVFA6yoCU-688" target="Ws0JKRpnU8jsVFA6yoCU-495" edge="1">
          <mxGeometry relative="1" as="geometry" />
        </mxCell>
        <mxCell id="Ws0JKRpnU8jsVFA6yoCU-745" style="edgeStyle=none;rounded=0;orthogonalLoop=1;jettySize=auto;html=1;exitX=0;exitY=0.75;exitDx=0;exitDy=0;entryX=1;entryY=0.5;entryDx=0;entryDy=0;endArrow=none;endFill=0;strokeColor=#00CC00;strokeWidth=2;fontFamily=Roboto;fontSize=16;" parent="1" source="Ws0JKRpnU8jsVFA6yoCU-688" target="Ws0JKRpnU8jsVFA6yoCU-504" edge="1">
          <mxGeometry relative="1" as="geometry" />
        </mxCell>
        <mxCell id="Ws0JKRpnU8jsVFA6yoCU-746" style="edgeStyle=none;rounded=0;orthogonalLoop=1;jettySize=auto;html=1;exitX=0;exitY=1;exitDx=0;exitDy=0;entryX=1;entryY=0.5;entryDx=0;entryDy=0;endArrow=none;endFill=0;strokeColor=#00CC00;strokeWidth=2;fontFamily=Roboto;fontSize=16;" parent="1" source="Ws0JKRpnU8jsVFA6yoCU-688" target="Ws0JKRpnU8jsVFA6yoCU-513" edge="1">
          <mxGeometry relative="1" as="geometry" />
        </mxCell>
        <mxCell id="Ws0JKRpnU8jsVFA6yoCU-739" style="edgeStyle=none;rounded=0;orthogonalLoop=1;jettySize=auto;html=1;exitX=1;exitY=0.5;exitDx=0;exitDy=0;entryX=0;entryY=0.5;entryDx=0;entryDy=0;endArrow=none;endFill=0;strokeColor=#00CC00;strokeWidth=2;fontFamily=Roboto;fontSize=16;" parent="1" source="Ws0JKRpnU8jsVFA6yoCU-486" target="Ws0JKRpnU8jsVFA6yoCU-688" edge="1">
          <mxGeometry relative="1" as="geometry" />
        </mxCell>
        <mxCell id="Ws0JKRpnU8jsVFA6yoCU-755" style="edgeStyle=none;rounded=0;orthogonalLoop=1;jettySize=auto;html=1;exitX=0;exitY=0.5;exitDx=0;exitDy=0;entryX=1;entryY=0;entryDx=0;entryDy=0;endArrow=none;endFill=0;strokeColor=#00CC00;strokeWidth=2;fontFamily=Roboto;fontSize=16;" parent="1" source="Ws0JKRpnU8jsVFA6yoCU-463" target="Ws0JKRpnU8jsVFA6yoCU-686" edge="1">
          <mxGeometry relative="1" as="geometry" />
        </mxCell>
        <mxCell id="Ws0JKRpnU8jsVFA6yoCU-756" style="edgeStyle=none;rounded=0;orthogonalLoop=1;jettySize=auto;html=1;exitX=0;exitY=0.5;exitDx=0;exitDy=0;entryX=1;entryY=0.25;entryDx=0;entryDy=0;endArrow=none;endFill=0;strokeColor=#00CC00;strokeWidth=2;fontFamily=Roboto;fontSize=16;" parent="1" source="Ws0JKRpnU8jsVFA6yoCU-471" target="Ws0JKRpnU8jsVFA6yoCU-686" edge="1">
          <mxGeometry relative="1" as="geometry" />
        </mxCell>
        <mxCell id="Ws0JKRpnU8jsVFA6yoCU-757" style="edgeStyle=none;rounded=0;orthogonalLoop=1;jettySize=auto;html=1;exitX=0;exitY=0.5;exitDx=0;exitDy=0;entryX=1;entryY=0.5;entryDx=0;entryDy=0;endArrow=none;endFill=0;strokeColor=#00CC00;strokeWidth=2;fontFamily=Roboto;fontSize=16;" parent="1" source="Ws0JKRpnU8jsVFA6yoCU-480" target="Ws0JKRpnU8jsVFA6yoCU-686" edge="1">
          <mxGeometry relative="1" as="geometry" />
        </mxCell>
        <mxCell id="Ws0JKRpnU8jsVFA6yoCU-758" style="edgeStyle=none;rounded=0;orthogonalLoop=1;jettySize=auto;html=1;exitX=0;exitY=0.5;exitDx=0;exitDy=0;endArrow=none;endFill=0;strokeColor=#00CC00;strokeWidth=2;fontFamily=Roboto;fontSize=16;entryX=1;entryY=0.5;entryDx=0;entryDy=0;" parent="1" source="Ws0JKRpnU8jsVFA6yoCU-490" target="Ws0JKRpnU8jsVFA6yoCU-686" edge="1">
          <mxGeometry relative="1" as="geometry">
            <mxPoint x="310" y="1215" as="targetPoint" />
          </mxGeometry>
        </mxCell>
        <mxCell id="Ws0JKRpnU8jsVFA6yoCU-760" style="edgeStyle=none;rounded=0;orthogonalLoop=1;jettySize=auto;html=1;exitX=0;exitY=0.5;exitDx=0;exitDy=0;entryX=1;entryY=0.5;entryDx=0;entryDy=0;endArrow=none;endFill=0;strokeColor=#00CC00;strokeWidth=2;fontFamily=Roboto;fontSize=16;" parent="1" source="Ws0JKRpnU8jsVFA6yoCU-498" target="Ws0JKRpnU8jsVFA6yoCU-686" edge="1">
          <mxGeometry relative="1" as="geometry" />
        </mxCell>
        <mxCell id="Ws0JKRpnU8jsVFA6yoCU-791" style="edgeStyle=none;rounded=0;orthogonalLoop=1;jettySize=auto;html=1;exitX=0;exitY=0.5;exitDx=0;exitDy=0;entryX=0.5;entryY=0;entryDx=0;entryDy=0;endArrow=none;endFill=0;strokeColor=#00CC00;strokeWidth=2;fontFamily=Roboto;fontSize=16;" parent="1" source="Ws0JKRpnU8jsVFA6yoCU-463" target="Ws0JKRpnU8jsVFA6yoCU-569" edge="1">
          <mxGeometry relative="1" as="geometry" />
        </mxCell>
        <mxCell id="Ws0JKRpnU8jsVFA6yoCU-795" style="edgeStyle=none;rounded=0;orthogonalLoop=1;jettySize=auto;html=1;exitX=0.5;exitY=0;exitDx=0;exitDy=0;endArrow=none;endFill=0;strokeColor=#00CC00;strokeWidth=2;fontFamily=Roboto;fontSize=16;entryX=0.5;entryY=1;entryDx=0;entryDy=0;" parent="1" source="Ws0JKRpnU8jsVFA6yoCU-463" target="Ws0JKRpnU8jsVFA6yoCU-23" edge="1">
          <mxGeometry relative="1" as="geometry">
            <mxPoint x="456" y="870" as="targetPoint" />
          </mxGeometry>
        </mxCell>
        <mxCell id="Ws0JKRpnU8jsVFA6yoCU-796" style="edgeStyle=none;rounded=0;orthogonalLoop=1;jettySize=auto;html=1;exitX=0.5;exitY=0;exitDx=0;exitDy=0;entryX=0.5;entryY=1;entryDx=0;entryDy=0;endArrow=none;endFill=0;strokeColor=#00CC00;strokeWidth=2;fontFamily=Roboto;fontSize=16;" parent="1" source="Ws0JKRpnU8jsVFA6yoCU-462" target="Ws0JKRpnU8jsVFA6yoCU-23" edge="1">
          <mxGeometry relative="1" as="geometry" />
        </mxCell>
        <mxCell id="Ws0JKRpnU8jsVFA6yoCU-799" style="edgeStyle=none;rounded=0;orthogonalLoop=1;jettySize=auto;html=1;exitX=0.5;exitY=1;exitDx=0;exitDy=0;entryX=1;entryY=0.5;entryDx=0;entryDy=0;endArrow=none;endFill=0;strokeColor=#00CC00;strokeWidth=2;fontFamily=Roboto;fontSize=16;" parent="1" source="Ws0JKRpnU8jsVFA6yoCU-394" target="Ws0JKRpnU8jsVFA6yoCU-462" edge="1">
          <mxGeometry relative="1" as="geometry" />
        </mxCell>
        <mxCell id="Su0HvrgJdk693_J9CV8J-49" style="edgeStyle=none;rounded=0;orthogonalLoop=1;jettySize=auto;html=1;exitX=0.132;exitY=0.977;exitDx=0;exitDy=0;endArrow=none;endFill=0;strokeColor=#00CC00;strokeWidth=2;fontFamily=Roboto;fontSize=16;exitPerimeter=0;entryX=1;entryY=0.5;entryDx=0;entryDy=0;" edge="1" parent="1" source="Ws0JKRpnU8jsVFA6yoCU-688" target="Su0HvrgJdk693_J9CV8J-42">
          <mxGeometry relative="1" as="geometry">
            <mxPoint x="727" y="1255" as="sourcePoint" />
            <mxPoint x="517" y="1405" as="targetPoint" />
          </mxGeometry>
        </mxCell>
        <mxCell id="Su0HvrgJdk693_J9CV8J-50" style="edgeStyle=none;rounded=0;orthogonalLoop=1;jettySize=auto;html=1;exitX=0.866;exitY=1;exitDx=0;exitDy=0;entryX=0;entryY=0.5;entryDx=0;entryDy=0;endArrow=none;endFill=0;strokeColor=#00CC00;strokeWidth=2;fontFamily=Roboto;fontSize=16;exitPerimeter=0;" edge="1" parent="1" source="Ws0JKRpnU8jsVFA6yoCU-686" target="Su0HvrgJdk693_J9CV8J-46">
          <mxGeometry relative="1" as="geometry">
            <mxPoint x="216" y="1250" as="sourcePoint" />
            <mxPoint x="417" y="1405" as="targetPoint" />
          </mxGeometry>
        </mxCell>
        <mxCell id="Ws0JKRpnU8jsVFA6yoCU-569" value="65" style="ellipse;whiteSpace=wrap;html=1;aspect=fixed;fillColor=#e51400;strokeColor=#B20000;fontColor=#ffffff;fontSize=16;fontFamily=Roboto;rotation=90;verticalAlign=top;horizontal=0;" parent="1" vertex="1">
          <mxGeometry x="309.25" y="1005" width="30" height="30" as="geometry" />
        </mxCell>
        <mxCell id="Ws0JKRpnU8jsVFA6yoCU-570" style="edgeStyle=none;rounded=0;orthogonalLoop=1;jettySize=auto;html=1;exitX=1;exitY=0.5;exitDx=0;exitDy=0;entryX=0;entryY=0.5;entryDx=0;entryDy=0;endArrow=none;endFill=0;strokeColor=#00CC00;strokeWidth=2;fontFamily=Roboto;fontSize=16;horizontal=0;" parent="1" source="Ws0JKRpnU8jsVFA6yoCU-571" target="Ws0JKRpnU8jsVFA6yoCU-569" edge="1">
          <mxGeometry relative="1" as="geometry" />
        </mxCell>
        <mxCell id="Ws0JKRpnU8jsVFA6yoCU-571" value="66" style="ellipse;whiteSpace=wrap;html=1;aspect=fixed;fillColor=#e51400;strokeColor=#B20000;fontColor=#ffffff;fontSize=16;fontFamily=Roboto;rotation=90;verticalAlign=top;horizontal=0;" parent="1" vertex="1">
          <mxGeometry x="309.25" y="935" width="30" height="30" as="geometry" />
        </mxCell>
        <mxCell id="Ws0JKRpnU8jsVFA6yoCU-572" style="edgeStyle=none;rounded=0;orthogonalLoop=1;jettySize=auto;html=1;exitX=0;exitY=0;exitDx=0;exitDy=0;endArrow=none;endFill=0;strokeColor=#FF8000;strokeWidth=2;fontFamily=Roboto;fontSize=16;horizontal=0;" parent="1" source="Ws0JKRpnU8jsVFA6yoCU-573" edge="1">
          <mxGeometry relative="1" as="geometry">
            <mxPoint x="314.25" y="960" as="targetPoint" />
          </mxGeometry>
        </mxCell>
        <mxCell id="Ws0JKRpnU8jsVFA6yoCU-573" value="67" style="ellipse;whiteSpace=wrap;html=1;aspect=fixed;fontSize=16;fontFamily=Roboto;rotation=90;verticalAlign=top;horizontal=0;" parent="1" vertex="1">
          <mxGeometry x="249.25" y="1005" width="30" height="30" as="geometry" />
        </mxCell>
        <mxCell id="Ws0JKRpnU8jsVFA6yoCU-575" style="edgeStyle=none;rounded=0;orthogonalLoop=1;jettySize=auto;html=1;exitX=0.5;exitY=1;exitDx=0;exitDy=0;entryX=0.5;entryY=0;entryDx=0;entryDy=0;endArrow=none;endFill=0;strokeColor=#FF8000;strokeWidth=2;fontFamily=Roboto;fontSize=16;horizontal=0;" parent="1" source="Ws0JKRpnU8jsVFA6yoCU-569" target="Ws0JKRpnU8jsVFA6yoCU-573" edge="1">
          <mxGeometry relative="1" as="geometry" />
        </mxCell>
        <mxCell id="Ws0JKRpnU8jsVFA6yoCU-576" style="edgeStyle=none;rounded=0;orthogonalLoop=1;jettySize=auto;html=1;exitX=1;exitY=0.5;exitDx=0;exitDy=0;entryX=0;entryY=0.5;entryDx=0;entryDy=0;endArrow=none;endFill=0;strokeColor=#00CC00;strokeWidth=2;fontFamily=Roboto;fontSize=16;horizontal=0;" parent="1" source="Ws0JKRpnU8jsVFA6yoCU-578" target="Ws0JKRpnU8jsVFA6yoCU-573" edge="1">
          <mxGeometry relative="1" as="geometry" />
        </mxCell>
        <mxCell id="Ws0JKRpnU8jsVFA6yoCU-577" style="edgeStyle=none;rounded=0;orthogonalLoop=1;jettySize=auto;html=1;exitX=1;exitY=0;exitDx=0;exitDy=0;entryX=0;entryY=1;entryDx=0;entryDy=0;endArrow=none;endFill=0;strokeColor=#FF8000;strokeWidth=2;fontFamily=Roboto;fontSize=16;horizontal=0;" parent="1" source="Ws0JKRpnU8jsVFA6yoCU-578" target="Ws0JKRpnU8jsVFA6yoCU-569" edge="1">
          <mxGeometry relative="1" as="geometry" />
        </mxCell>
        <mxCell id="Ws0JKRpnU8jsVFA6yoCU-578" value="68" style="ellipse;whiteSpace=wrap;html=1;aspect=fixed;fontSize=16;fontFamily=Roboto;rotation=90;verticalAlign=top;horizontal=0;" parent="1" vertex="1">
          <mxGeometry x="249.25" y="935" width="30" height="30" as="geometry" />
        </mxCell>
        <mxCell id="Ws0JKRpnU8jsVFA6yoCU-579" style="edgeStyle=none;rounded=0;orthogonalLoop=1;jettySize=auto;html=1;exitX=0.5;exitY=1;exitDx=0;exitDy=0;entryX=0.5;entryY=0;entryDx=0;entryDy=0;endArrow=none;endFill=0;strokeColor=#FF8000;strokeWidth=2;fontFamily=Roboto;fontSize=16;horizontal=0;" parent="1" source="Ws0JKRpnU8jsVFA6yoCU-571" target="Ws0JKRpnU8jsVFA6yoCU-578" edge="1">
          <mxGeometry relative="1" as="geometry" />
        </mxCell>
        <mxCell id="Ws0JKRpnU8jsVFA6yoCU-581" style="edgeStyle=none;rounded=0;orthogonalLoop=1;jettySize=auto;html=1;exitX=0;exitY=0;exitDx=0;exitDy=0;entryX=1;entryY=1;entryDx=0;entryDy=0;endArrow=none;endFill=0;strokeColor=#FF8000;strokeWidth=2;fontFamily=Roboto;fontSize=16;horizontal=0;" parent="1" source="Ws0JKRpnU8jsVFA6yoCU-582" target="Ws0JKRpnU8jsVFA6yoCU-578" edge="1">
          <mxGeometry relative="1" as="geometry" />
        </mxCell>
        <mxCell id="Ws0JKRpnU8jsVFA6yoCU-582" value="69" style="ellipse;whiteSpace=wrap;html=1;aspect=fixed;fontSize=16;fontFamily=Roboto;rotation=90;verticalAlign=top;horizontal=0;" parent="1" vertex="1">
          <mxGeometry x="189.25" y="1005" width="30" height="30" as="geometry" />
        </mxCell>
        <mxCell id="Ws0JKRpnU8jsVFA6yoCU-584" style="edgeStyle=none;rounded=0;orthogonalLoop=1;jettySize=auto;html=1;exitX=0.5;exitY=1;exitDx=0;exitDy=0;entryX=0.5;entryY=0;entryDx=0;entryDy=0;endArrow=none;endFill=0;strokeColor=#FF8000;strokeWidth=2;fontFamily=Roboto;fontSize=16;horizontal=0;" parent="1" source="Ws0JKRpnU8jsVFA6yoCU-573" target="Ws0JKRpnU8jsVFA6yoCU-582" edge="1">
          <mxGeometry relative="1" as="geometry" />
        </mxCell>
        <mxCell id="Ws0JKRpnU8jsVFA6yoCU-585" style="edgeStyle=none;rounded=0;orthogonalLoop=1;jettySize=auto;html=1;exitX=1;exitY=0.5;exitDx=0;exitDy=0;entryX=0;entryY=0.5;entryDx=0;entryDy=0;endArrow=none;endFill=0;strokeColor=#00CC00;strokeWidth=2;fontFamily=Roboto;fontSize=16;horizontal=0;" parent="1" source="Ws0JKRpnU8jsVFA6yoCU-586" target="Ws0JKRpnU8jsVFA6yoCU-582" edge="1">
          <mxGeometry relative="1" as="geometry" />
        </mxCell>
        <mxCell id="Ws0JKRpnU8jsVFA6yoCU-586" value="70" style="ellipse;whiteSpace=wrap;html=1;aspect=fixed;fontSize=16;fontFamily=Roboto;rotation=90;verticalAlign=top;horizontal=0;" parent="1" vertex="1">
          <mxGeometry x="189.25" y="935" width="30" height="30" as="geometry" />
        </mxCell>
        <mxCell id="Ws0JKRpnU8jsVFA6yoCU-587" style="edgeStyle=none;rounded=0;orthogonalLoop=1;jettySize=auto;html=1;exitX=0;exitY=1;exitDx=0;exitDy=0;endArrow=none;endFill=0;strokeColor=#FF8000;strokeWidth=2;fontFamily=Roboto;fontSize=16;horizontal=0;" parent="1" source="Ws0JKRpnU8jsVFA6yoCU-573" target="Ws0JKRpnU8jsVFA6yoCU-586" edge="1">
          <mxGeometry relative="1" as="geometry" />
        </mxCell>
        <mxCell id="Ws0JKRpnU8jsVFA6yoCU-588" style="edgeStyle=none;rounded=0;orthogonalLoop=1;jettySize=auto;html=1;exitX=0.5;exitY=1;exitDx=0;exitDy=0;entryX=0.5;entryY=0;entryDx=0;entryDy=0;endArrow=none;endFill=0;strokeColor=#FF8000;strokeWidth=2;fontFamily=Roboto;fontSize=16;horizontal=0;" parent="1" source="Ws0JKRpnU8jsVFA6yoCU-578" target="Ws0JKRpnU8jsVFA6yoCU-586" edge="1">
          <mxGeometry relative="1" as="geometry" />
        </mxCell>
        <mxCell id="Ws0JKRpnU8jsVFA6yoCU-590" value="71" style="ellipse;whiteSpace=wrap;html=1;aspect=fixed;fontSize=16;fontFamily=Roboto;rotation=90;verticalAlign=top;horizontal=0;" parent="1" vertex="1">
          <mxGeometry x="129.25" y="1005" width="30" height="30" as="geometry" />
        </mxCell>
        <mxCell id="Ws0JKRpnU8jsVFA6yoCU-591" style="edgeStyle=none;rounded=0;orthogonalLoop=1;jettySize=auto;html=1;exitX=0.5;exitY=1;exitDx=0;exitDy=0;entryX=0.5;entryY=0;entryDx=0;entryDy=0;endArrow=none;endFill=0;strokeColor=#FF8000;strokeWidth=2;fontFamily=Roboto;fontSize=16;horizontal=0;" parent="1" source="Ws0JKRpnU8jsVFA6yoCU-582" target="Ws0JKRpnU8jsVFA6yoCU-590" edge="1">
          <mxGeometry relative="1" as="geometry" />
        </mxCell>
        <mxCell id="Ws0JKRpnU8jsVFA6yoCU-593" style="edgeStyle=none;rounded=0;orthogonalLoop=1;jettySize=auto;html=1;exitX=1;exitY=1;exitDx=0;exitDy=0;entryX=0;entryY=0;entryDx=0;entryDy=0;endArrow=none;endFill=0;strokeColor=#FF8000;strokeWidth=2;fontFamily=Roboto;fontSize=16;horizontal=0;" parent="1" source="Ws0JKRpnU8jsVFA6yoCU-586" target="Ws0JKRpnU8jsVFA6yoCU-590" edge="1">
          <mxGeometry relative="1" as="geometry" />
        </mxCell>
        <mxCell id="Ws0JKRpnU8jsVFA6yoCU-594" style="edgeStyle=none;rounded=0;orthogonalLoop=1;jettySize=auto;html=1;exitX=1;exitY=0.5;exitDx=0;exitDy=0;endArrow=none;endFill=0;strokeColor=#00CC00;strokeWidth=2;fontFamily=Roboto;fontSize=16;horizontal=0;" parent="1" source="Ws0JKRpnU8jsVFA6yoCU-595" target="Ws0JKRpnU8jsVFA6yoCU-590" edge="1">
          <mxGeometry relative="1" as="geometry" />
        </mxCell>
        <mxCell id="Ws0JKRpnU8jsVFA6yoCU-595" value="72" style="ellipse;whiteSpace=wrap;html=1;aspect=fixed;fontSize=16;fontFamily=Roboto;rotation=90;verticalAlign=top;horizontal=0;" parent="1" vertex="1">
          <mxGeometry x="129.25" y="935" width="30" height="30" as="geometry" />
        </mxCell>
        <mxCell id="Ws0JKRpnU8jsVFA6yoCU-596" style="edgeStyle=none;rounded=0;orthogonalLoop=1;jettySize=auto;html=1;exitX=0;exitY=1;exitDx=0;exitDy=0;entryX=1;entryY=0;entryDx=0;entryDy=0;endArrow=none;endFill=0;strokeColor=#FF8000;strokeWidth=2;fontFamily=Roboto;fontSize=16;horizontal=0;" parent="1" source="Ws0JKRpnU8jsVFA6yoCU-582" target="Ws0JKRpnU8jsVFA6yoCU-595" edge="1">
          <mxGeometry relative="1" as="geometry" />
        </mxCell>
        <mxCell id="Ws0JKRpnU8jsVFA6yoCU-597" style="edgeStyle=none;rounded=0;orthogonalLoop=1;jettySize=auto;html=1;exitX=0.5;exitY=1;exitDx=0;exitDy=0;entryX=0.5;entryY=0;entryDx=0;entryDy=0;endArrow=none;endFill=0;strokeColor=#FF8000;strokeWidth=2;fontFamily=Roboto;fontSize=16;horizontal=0;" parent="1" source="Ws0JKRpnU8jsVFA6yoCU-586" target="Ws0JKRpnU8jsVFA6yoCU-595" edge="1">
          <mxGeometry relative="1" as="geometry" />
        </mxCell>
        <mxCell id="Ws0JKRpnU8jsVFA6yoCU-599" value="73" style="ellipse;whiteSpace=wrap;html=1;aspect=fixed;fontSize=16;fontFamily=Roboto;rotation=90;verticalAlign=top;horizontal=0;" parent="1" vertex="1">
          <mxGeometry x="69.25" y="1005" width="30" height="30" as="geometry" />
        </mxCell>
        <mxCell id="Ws0JKRpnU8jsVFA6yoCU-601" style="edgeStyle=none;rounded=0;orthogonalLoop=1;jettySize=auto;html=1;exitX=0.5;exitY=1;exitDx=0;exitDy=0;entryX=0.5;entryY=0;entryDx=0;entryDy=0;endArrow=none;endFill=0;strokeColor=#FF8000;strokeWidth=2;fontFamily=Roboto;fontSize=16;horizontal=0;" parent="1" source="Ws0JKRpnU8jsVFA6yoCU-590" target="Ws0JKRpnU8jsVFA6yoCU-599" edge="1">
          <mxGeometry relative="1" as="geometry" />
        </mxCell>
        <mxCell id="Ws0JKRpnU8jsVFA6yoCU-602" style="edgeStyle=none;rounded=0;orthogonalLoop=1;jettySize=auto;html=1;exitX=1;exitY=1;exitDx=0;exitDy=0;entryX=0;entryY=0;entryDx=0;entryDy=0;endArrow=none;endFill=0;strokeColor=#FF8000;strokeWidth=2;fontFamily=Roboto;fontSize=16;horizontal=0;" parent="1" source="Ws0JKRpnU8jsVFA6yoCU-595" target="Ws0JKRpnU8jsVFA6yoCU-599" edge="1">
          <mxGeometry relative="1" as="geometry" />
        </mxCell>
        <mxCell id="Ws0JKRpnU8jsVFA6yoCU-603" style="edgeStyle=none;rounded=0;orthogonalLoop=1;jettySize=auto;html=1;exitX=1;exitY=0.5;exitDx=0;exitDy=0;entryX=0;entryY=0.5;entryDx=0;entryDy=0;endArrow=none;endFill=0;strokeColor=#00CC00;strokeWidth=2;fontFamily=Roboto;fontSize=16;horizontal=0;" parent="1" source="Ws0JKRpnU8jsVFA6yoCU-604" target="Ws0JKRpnU8jsVFA6yoCU-599" edge="1">
          <mxGeometry relative="1" as="geometry" />
        </mxCell>
        <mxCell id="Ws0JKRpnU8jsVFA6yoCU-604" value="74" style="ellipse;whiteSpace=wrap;html=1;aspect=fixed;fontSize=16;fontFamily=Roboto;rotation=90;verticalAlign=top;horizontal=0;" parent="1" vertex="1">
          <mxGeometry x="69.25" y="935" width="30" height="30" as="geometry" />
        </mxCell>
        <mxCell id="Ws0JKRpnU8jsVFA6yoCU-605" style="edgeStyle=none;rounded=0;orthogonalLoop=1;jettySize=auto;html=1;exitX=0;exitY=1;exitDx=0;exitDy=0;entryX=1;entryY=0;entryDx=0;entryDy=0;endArrow=none;endFill=0;strokeColor=#FF8000;strokeWidth=2;fontFamily=Roboto;fontSize=16;horizontal=0;" parent="1" source="Ws0JKRpnU8jsVFA6yoCU-590" target="Ws0JKRpnU8jsVFA6yoCU-604" edge="1">
          <mxGeometry relative="1" as="geometry" />
        </mxCell>
        <mxCell id="Ws0JKRpnU8jsVFA6yoCU-606" style="edgeStyle=none;rounded=0;orthogonalLoop=1;jettySize=auto;html=1;exitX=0.5;exitY=1;exitDx=0;exitDy=0;entryX=0.5;entryY=0;entryDx=0;entryDy=0;endArrow=none;endFill=0;strokeColor=#FF8000;strokeWidth=2;fontFamily=Roboto;fontSize=16;horizontal=0;" parent="1" source="Ws0JKRpnU8jsVFA6yoCU-595" target="Ws0JKRpnU8jsVFA6yoCU-604" edge="1">
          <mxGeometry relative="1" as="geometry" />
        </mxCell>
        <mxCell id="Ws0JKRpnU8jsVFA6yoCU-608" value="75" style="ellipse;whiteSpace=wrap;html=1;aspect=fixed;fontSize=16;fontFamily=Roboto;rotation=90;verticalAlign=top;horizontal=0;" parent="1" vertex="1">
          <mxGeometry x="9.25" y="1005" width="30" height="30" as="geometry" />
        </mxCell>
        <mxCell id="Ws0JKRpnU8jsVFA6yoCU-610" style="edgeStyle=none;rounded=0;orthogonalLoop=1;jettySize=auto;html=1;exitX=0.5;exitY=1;exitDx=0;exitDy=0;entryX=0.5;entryY=0;entryDx=0;entryDy=0;endArrow=none;endFill=0;strokeColor=#FF8000;strokeWidth=2;fontFamily=Roboto;fontSize=16;horizontal=0;" parent="1" source="Ws0JKRpnU8jsVFA6yoCU-599" target="Ws0JKRpnU8jsVFA6yoCU-608" edge="1">
          <mxGeometry relative="1" as="geometry" />
        </mxCell>
        <mxCell id="Ws0JKRpnU8jsVFA6yoCU-611" style="edgeStyle=none;rounded=0;orthogonalLoop=1;jettySize=auto;html=1;exitX=1;exitY=1;exitDx=0;exitDy=0;entryX=0;entryY=0;entryDx=0;entryDy=0;endArrow=none;endFill=0;strokeColor=#FF8000;strokeWidth=2;fontFamily=Roboto;fontSize=16;horizontal=0;" parent="1" source="Ws0JKRpnU8jsVFA6yoCU-604" target="Ws0JKRpnU8jsVFA6yoCU-608" edge="1">
          <mxGeometry relative="1" as="geometry" />
        </mxCell>
        <mxCell id="Ws0JKRpnU8jsVFA6yoCU-612" style="edgeStyle=none;rounded=0;orthogonalLoop=1;jettySize=auto;html=1;exitX=1;exitY=0.5;exitDx=0;exitDy=0;endArrow=none;endFill=0;strokeColor=#00CC00;strokeWidth=2;fontFamily=Roboto;fontSize=16;horizontal=0;" parent="1" source="Ws0JKRpnU8jsVFA6yoCU-613" target="Ws0JKRpnU8jsVFA6yoCU-608" edge="1">
          <mxGeometry relative="1" as="geometry" />
        </mxCell>
        <mxCell id="Ws0JKRpnU8jsVFA6yoCU-613" value="76" style="ellipse;whiteSpace=wrap;html=1;aspect=fixed;fontSize=16;fontFamily=Roboto;rotation=90;verticalAlign=top;horizontal=0;" parent="1" vertex="1">
          <mxGeometry x="9.25" y="935" width="30" height="30" as="geometry" />
        </mxCell>
        <mxCell id="Ws0JKRpnU8jsVFA6yoCU-614" style="edgeStyle=none;rounded=0;orthogonalLoop=1;jettySize=auto;html=1;exitX=0;exitY=1;exitDx=0;exitDy=0;entryX=1;entryY=0;entryDx=0;entryDy=0;endArrow=none;endFill=0;strokeColor=#FF8000;strokeWidth=2;fontFamily=Roboto;fontSize=16;horizontal=0;" parent="1" source="Ws0JKRpnU8jsVFA6yoCU-599" target="Ws0JKRpnU8jsVFA6yoCU-613" edge="1">
          <mxGeometry relative="1" as="geometry" />
        </mxCell>
        <mxCell id="Ws0JKRpnU8jsVFA6yoCU-615" style="edgeStyle=none;rounded=0;orthogonalLoop=1;jettySize=auto;html=1;exitX=0.5;exitY=1;exitDx=0;exitDy=0;entryX=0.5;entryY=0;entryDx=0;entryDy=0;endArrow=none;endFill=0;strokeColor=#FF8000;strokeWidth=2;fontFamily=Roboto;fontSize=16;horizontal=0;" parent="1" source="Ws0JKRpnU8jsVFA6yoCU-604" target="Ws0JKRpnU8jsVFA6yoCU-613" edge="1">
          <mxGeometry relative="1" as="geometry" />
        </mxCell>
        <mxCell id="Ws0JKRpnU8jsVFA6yoCU-617" value="77" style="ellipse;whiteSpace=wrap;html=1;aspect=fixed;fontSize=16;fontFamily=Roboto;rotation=90;verticalAlign=top;horizontal=0;" parent="1" vertex="1">
          <mxGeometry x="-50.75" y="1005" width="30" height="30" as="geometry" />
        </mxCell>
        <mxCell id="Ws0JKRpnU8jsVFA6yoCU-619" style="edgeStyle=none;rounded=0;orthogonalLoop=1;jettySize=auto;html=1;exitX=0.5;exitY=1;exitDx=0;exitDy=0;entryX=0.5;entryY=0;entryDx=0;entryDy=0;endArrow=none;endFill=0;strokeColor=#FF8000;strokeWidth=2;fontFamily=Roboto;fontSize=16;horizontal=0;" parent="1" source="Ws0JKRpnU8jsVFA6yoCU-608" target="Ws0JKRpnU8jsVFA6yoCU-617" edge="1">
          <mxGeometry relative="1" as="geometry" />
        </mxCell>
        <mxCell id="Ws0JKRpnU8jsVFA6yoCU-620" style="edgeStyle=none;rounded=0;orthogonalLoop=1;jettySize=auto;html=1;exitX=1;exitY=1;exitDx=0;exitDy=0;entryX=0;entryY=0;entryDx=0;entryDy=0;endArrow=none;endFill=0;strokeColor=#FF8000;strokeWidth=2;fontFamily=Roboto;fontSize=16;horizontal=0;" parent="1" source="Ws0JKRpnU8jsVFA6yoCU-613" target="Ws0JKRpnU8jsVFA6yoCU-617" edge="1">
          <mxGeometry relative="1" as="geometry" />
        </mxCell>
        <mxCell id="Ws0JKRpnU8jsVFA6yoCU-621" style="edgeStyle=none;rounded=0;orthogonalLoop=1;jettySize=auto;html=1;exitX=1;exitY=0.5;exitDx=0;exitDy=0;entryX=0;entryY=0.5;entryDx=0;entryDy=0;endArrow=none;endFill=0;strokeColor=#00CC00;strokeWidth=2;fontFamily=Roboto;fontSize=16;horizontal=0;" parent="1" source="Ws0JKRpnU8jsVFA6yoCU-622" target="Ws0JKRpnU8jsVFA6yoCU-617" edge="1">
          <mxGeometry relative="1" as="geometry" />
        </mxCell>
        <mxCell id="Ws0JKRpnU8jsVFA6yoCU-622" value="78" style="ellipse;whiteSpace=wrap;html=1;aspect=fixed;fontSize=16;fontFamily=Roboto;rotation=90;verticalAlign=top;horizontal=0;" parent="1" vertex="1">
          <mxGeometry x="-50.75" y="935" width="30" height="30" as="geometry" />
        </mxCell>
        <mxCell id="Ws0JKRpnU8jsVFA6yoCU-623" style="edgeStyle=none;rounded=0;orthogonalLoop=1;jettySize=auto;html=1;exitX=0;exitY=1;exitDx=0;exitDy=0;entryX=1;entryY=0;entryDx=0;entryDy=0;endArrow=none;endFill=0;strokeColor=#FF8000;strokeWidth=2;fontFamily=Roboto;fontSize=16;horizontal=0;" parent="1" source="Ws0JKRpnU8jsVFA6yoCU-608" target="Ws0JKRpnU8jsVFA6yoCU-622" edge="1">
          <mxGeometry relative="1" as="geometry" />
        </mxCell>
        <mxCell id="Ws0JKRpnU8jsVFA6yoCU-624" style="edgeStyle=none;rounded=0;orthogonalLoop=1;jettySize=auto;html=1;exitX=0.5;exitY=1;exitDx=0;exitDy=0;entryX=0.5;entryY=0;entryDx=0;entryDy=0;endArrow=none;endFill=0;strokeColor=#FF8000;strokeWidth=2;fontFamily=Roboto;fontSize=16;horizontal=0;" parent="1" source="Ws0JKRpnU8jsVFA6yoCU-613" target="Ws0JKRpnU8jsVFA6yoCU-622" edge="1">
          <mxGeometry relative="1" as="geometry" />
        </mxCell>
        <mxCell id="Su0HvrgJdk693_J9CV8J-52" value="79" style="ellipse;whiteSpace=wrap;html=1;aspect=fixed;fontSize=16;fontFamily=Roboto;rotation=90;verticalAlign=top;horizontal=0;fillColor=#647687;strokeColor=#314354;fontColor=#ffffff;" vertex="1" parent="1">
          <mxGeometry x="-110.75" y="1005" width="30" height="30" as="geometry" />
        </mxCell>
        <mxCell id="Su0HvrgJdk693_J9CV8J-53" style="edgeStyle=none;rounded=0;orthogonalLoop=1;jettySize=auto;html=1;exitX=0.5;exitY=1;exitDx=0;exitDy=0;entryX=0.5;entryY=0;entryDx=0;entryDy=0;endArrow=none;endFill=0;strokeColor=#FF8000;strokeWidth=2;fontFamily=Roboto;fontSize=16;horizontal=0;" edge="1" parent="1" target="Su0HvrgJdk693_J9CV8J-52">
          <mxGeometry relative="1" as="geometry">
            <mxPoint x="-51" y="1020" as="sourcePoint" />
          </mxGeometry>
        </mxCell>
        <mxCell id="Su0HvrgJdk693_J9CV8J-54" style="edgeStyle=none;rounded=0;orthogonalLoop=1;jettySize=auto;html=1;exitX=1;exitY=1;exitDx=0;exitDy=0;entryX=0;entryY=0;entryDx=0;entryDy=0;endArrow=none;endFill=0;strokeColor=#FF8000;strokeWidth=2;fontFamily=Roboto;fontSize=16;horizontal=0;" edge="1" parent="1" target="Su0HvrgJdk693_J9CV8J-52">
          <mxGeometry relative="1" as="geometry">
            <mxPoint x="-46" y="961" as="sourcePoint" />
          </mxGeometry>
        </mxCell>
        <mxCell id="Su0HvrgJdk693_J9CV8J-55" style="edgeStyle=none;rounded=0;orthogonalLoop=1;jettySize=auto;html=1;exitX=1;exitY=0.5;exitDx=0;exitDy=0;entryX=0;entryY=0.5;entryDx=0;entryDy=0;endArrow=none;endFill=0;strokeColor=#00CC00;strokeWidth=2;fontFamily=Roboto;fontSize=16;horizontal=0;" edge="1" parent="1" source="Su0HvrgJdk693_J9CV8J-56" target="Su0HvrgJdk693_J9CV8J-52">
          <mxGeometry relative="1" as="geometry" />
        </mxCell>
        <mxCell id="Su0HvrgJdk693_J9CV8J-56" value="80" style="ellipse;whiteSpace=wrap;html=1;aspect=fixed;fontSize=16;fontFamily=Roboto;rotation=90;verticalAlign=top;horizontal=0;fillColor=#647687;strokeColor=#314354;fontColor=#ffffff;" vertex="1" parent="1">
          <mxGeometry x="-110.75" y="935" width="30" height="30" as="geometry" />
        </mxCell>
        <mxCell id="Su0HvrgJdk693_J9CV8J-57" style="edgeStyle=none;rounded=0;orthogonalLoop=1;jettySize=auto;html=1;exitX=0;exitY=1;exitDx=0;exitDy=0;entryX=1;entryY=0;entryDx=0;entryDy=0;endArrow=none;endFill=0;strokeColor=#FF8000;strokeWidth=2;fontFamily=Roboto;fontSize=16;horizontal=0;" edge="1" parent="1" target="Su0HvrgJdk693_J9CV8J-56">
          <mxGeometry relative="1" as="geometry">
            <mxPoint x="-46" y="1009" as="sourcePoint" />
          </mxGeometry>
        </mxCell>
        <mxCell id="Su0HvrgJdk693_J9CV8J-58" style="edgeStyle=none;rounded=0;orthogonalLoop=1;jettySize=auto;html=1;exitX=0.5;exitY=1;exitDx=0;exitDy=0;entryX=0.5;entryY=0;entryDx=0;entryDy=0;endArrow=none;endFill=0;strokeColor=#FF8000;strokeWidth=2;fontFamily=Roboto;fontSize=16;horizontal=0;" edge="1" parent="1" target="Su0HvrgJdk693_J9CV8J-56">
          <mxGeometry relative="1" as="geometry">
            <mxPoint x="-51" y="950" as="sourcePoint" />
          </mxGeometry>
        </mxCell>
        <mxCell id="Su0HvrgJdk693_J9CV8J-59" style="edgeStyle=none;rounded=0;orthogonalLoop=1;jettySize=auto;html=1;exitX=1;exitY=0.5;exitDx=0;exitDy=0;entryX=0;entryY=0.25;entryDx=0;entryDy=0;endArrow=none;endFill=0;strokeColor=#00CC00;strokeWidth=2;fontFamily=Roboto;fontSize=16;" edge="1" parent="1" source="Su0HvrgJdk693_J9CV8J-52" target="Ws0JKRpnU8jsVFA6yoCU-686">
          <mxGeometry relative="1" as="geometry">
            <mxPoint x="-26" y="1045" as="sourcePoint" />
            <mxPoint x="96" y="1190" as="targetPoint" />
          </mxGeometry>
        </mxCell>
        <mxCell id="Su0HvrgJdk693_J9CV8J-60" style="edgeStyle=none;rounded=0;orthogonalLoop=1;jettySize=auto;html=1;exitX=0;exitY=0.75;exitDx=0;exitDy=0;entryX=0;entryY=0.5;entryDx=0;entryDy=0;endArrow=none;endFill=0;strokeColor=#00CC00;strokeWidth=2;fontFamily=Roboto;fontSize=16;" edge="1" parent="1" source="Ws0JKRpnU8jsVFA6yoCU-687" target="Su0HvrgJdk693_J9CV8J-56">
          <mxGeometry relative="1" as="geometry">
            <mxPoint x="44" y="816" as="sourcePoint" />
            <mxPoint x="-75" y="941" as="targetPoint" />
          </mxGeometry>
        </mxCell>
        <mxCell id="Ws0JKRpnU8jsVFA6yoCU-629" value="81" style="ellipse;whiteSpace=wrap;html=1;aspect=fixed;fillColor=#e51400;strokeColor=#B20000;fontColor=#ffffff;fontSize=16;fontFamily=Roboto;rotation=90;verticalAlign=top;horizontal=0;container=0;" parent="1" vertex="1">
          <mxGeometry x="308.01" y="630" width="30" height="30" as="geometry" />
        </mxCell>
        <mxCell id="Ws0JKRpnU8jsVFA6yoCU-630" style="edgeStyle=none;rounded=0;orthogonalLoop=1;jettySize=auto;html=1;exitX=1;exitY=0.5;exitDx=0;exitDy=0;entryX=0;entryY=0.5;entryDx=0;entryDy=0;endArrow=none;endFill=0;strokeColor=#00CC00;strokeWidth=2;fontFamily=Roboto;fontSize=16;horizontal=0;" parent="1" source="Ws0JKRpnU8jsVFA6yoCU-631" target="Ws0JKRpnU8jsVFA6yoCU-629" edge="1">
          <mxGeometry relative="1" as="geometry" />
        </mxCell>
        <mxCell id="Ws0JKRpnU8jsVFA6yoCU-631" value="82" style="ellipse;whiteSpace=wrap;html=1;aspect=fixed;fillColor=#e51400;strokeColor=#B20000;fontColor=#ffffff;fontSize=16;fontFamily=Roboto;rotation=90;verticalAlign=top;horizontal=0;container=0;" parent="1" vertex="1">
          <mxGeometry x="308.01" y="560" width="30" height="30" as="geometry" />
        </mxCell>
        <mxCell id="Ws0JKRpnU8jsVFA6yoCU-632" style="edgeStyle=none;rounded=0;orthogonalLoop=1;jettySize=auto;html=1;exitX=0;exitY=0;exitDx=0;exitDy=0;endArrow=none;endFill=0;strokeColor=#FF8000;strokeWidth=2;fontFamily=Roboto;fontSize=16;horizontal=0;" parent="1" source="Ws0JKRpnU8jsVFA6yoCU-633" edge="1">
          <mxGeometry relative="1" as="geometry">
            <mxPoint x="313.01" y="585" as="targetPoint" />
          </mxGeometry>
        </mxCell>
        <mxCell id="Ws0JKRpnU8jsVFA6yoCU-633" value="83" style="ellipse;whiteSpace=wrap;html=1;aspect=fixed;fontSize=16;fontFamily=Roboto;rotation=90;verticalAlign=top;horizontal=0;container=0;" parent="1" vertex="1">
          <mxGeometry x="248.01" y="630" width="30" height="30" as="geometry" />
        </mxCell>
        <mxCell id="Ws0JKRpnU8jsVFA6yoCU-635" style="edgeStyle=none;rounded=0;orthogonalLoop=1;jettySize=auto;html=1;exitX=0.5;exitY=1;exitDx=0;exitDy=0;entryX=0.5;entryY=0;entryDx=0;entryDy=0;endArrow=none;endFill=0;strokeColor=#FF8000;strokeWidth=2;fontFamily=Roboto;fontSize=16;horizontal=0;" parent="1" source="Ws0JKRpnU8jsVFA6yoCU-629" target="Ws0JKRpnU8jsVFA6yoCU-633" edge="1">
          <mxGeometry relative="1" as="geometry" />
        </mxCell>
        <mxCell id="Ws0JKRpnU8jsVFA6yoCU-636" style="edgeStyle=none;rounded=0;orthogonalLoop=1;jettySize=auto;html=1;exitX=1;exitY=0.5;exitDx=0;exitDy=0;entryX=0;entryY=0.5;entryDx=0;entryDy=0;endArrow=none;endFill=0;strokeColor=#00CC00;strokeWidth=2;fontFamily=Roboto;fontSize=16;horizontal=0;" parent="1" source="Ws0JKRpnU8jsVFA6yoCU-638" target="Ws0JKRpnU8jsVFA6yoCU-633" edge="1">
          <mxGeometry relative="1" as="geometry" />
        </mxCell>
        <mxCell id="Ws0JKRpnU8jsVFA6yoCU-637" style="edgeStyle=none;rounded=0;orthogonalLoop=1;jettySize=auto;html=1;exitX=1;exitY=0;exitDx=0;exitDy=0;entryX=0;entryY=1;entryDx=0;entryDy=0;endArrow=none;endFill=0;strokeColor=#FF8000;strokeWidth=2;fontFamily=Roboto;fontSize=16;horizontal=0;" parent="1" source="Ws0JKRpnU8jsVFA6yoCU-638" target="Ws0JKRpnU8jsVFA6yoCU-629" edge="1">
          <mxGeometry relative="1" as="geometry" />
        </mxCell>
        <mxCell id="Ws0JKRpnU8jsVFA6yoCU-638" value="84" style="ellipse;whiteSpace=wrap;html=1;aspect=fixed;fontSize=16;fontFamily=Roboto;rotation=90;verticalAlign=top;horizontal=0;container=0;" parent="1" vertex="1">
          <mxGeometry x="248.01" y="560" width="30" height="30" as="geometry" />
        </mxCell>
        <mxCell id="Ws0JKRpnU8jsVFA6yoCU-639" style="edgeStyle=none;rounded=0;orthogonalLoop=1;jettySize=auto;html=1;exitX=0.5;exitY=1;exitDx=0;exitDy=0;entryX=0.5;entryY=0;entryDx=0;entryDy=0;endArrow=none;endFill=0;strokeColor=#FF8000;strokeWidth=2;fontFamily=Roboto;fontSize=16;horizontal=0;" parent="1" source="Ws0JKRpnU8jsVFA6yoCU-631" target="Ws0JKRpnU8jsVFA6yoCU-638" edge="1">
          <mxGeometry relative="1" as="geometry" />
        </mxCell>
        <mxCell id="Ws0JKRpnU8jsVFA6yoCU-641" style="edgeStyle=none;rounded=0;orthogonalLoop=1;jettySize=auto;html=1;exitX=0;exitY=0;exitDx=0;exitDy=0;entryX=1;entryY=1;entryDx=0;entryDy=0;endArrow=none;endFill=0;strokeColor=#FF8000;strokeWidth=2;fontFamily=Roboto;fontSize=16;horizontal=0;" parent="1" source="Ws0JKRpnU8jsVFA6yoCU-642" target="Ws0JKRpnU8jsVFA6yoCU-638" edge="1">
          <mxGeometry relative="1" as="geometry" />
        </mxCell>
        <mxCell id="Ws0JKRpnU8jsVFA6yoCU-642" value="85" style="ellipse;whiteSpace=wrap;html=1;aspect=fixed;fontSize=16;fontFamily=Roboto;rotation=90;verticalAlign=top;horizontal=0;container=0;" parent="1" vertex="1">
          <mxGeometry x="188.01" y="630" width="30" height="30" as="geometry" />
        </mxCell>
        <mxCell id="Ws0JKRpnU8jsVFA6yoCU-644" style="edgeStyle=none;rounded=0;orthogonalLoop=1;jettySize=auto;html=1;exitX=0.5;exitY=1;exitDx=0;exitDy=0;entryX=0.5;entryY=0;entryDx=0;entryDy=0;endArrow=none;endFill=0;strokeColor=#FF8000;strokeWidth=2;fontFamily=Roboto;fontSize=16;horizontal=0;" parent="1" source="Ws0JKRpnU8jsVFA6yoCU-633" target="Ws0JKRpnU8jsVFA6yoCU-642" edge="1">
          <mxGeometry relative="1" as="geometry" />
        </mxCell>
        <mxCell id="Ws0JKRpnU8jsVFA6yoCU-645" style="edgeStyle=none;rounded=0;orthogonalLoop=1;jettySize=auto;html=1;exitX=1;exitY=0.5;exitDx=0;exitDy=0;entryX=0;entryY=0.5;entryDx=0;entryDy=0;endArrow=none;endFill=0;strokeColor=#00CC00;strokeWidth=2;fontFamily=Roboto;fontSize=16;horizontal=0;" parent="1" source="Ws0JKRpnU8jsVFA6yoCU-646" target="Ws0JKRpnU8jsVFA6yoCU-642" edge="1">
          <mxGeometry relative="1" as="geometry" />
        </mxCell>
        <mxCell id="Ws0JKRpnU8jsVFA6yoCU-646" value="86" style="ellipse;whiteSpace=wrap;html=1;aspect=fixed;fontSize=16;fontFamily=Roboto;rotation=90;verticalAlign=top;horizontal=0;container=0;" parent="1" vertex="1">
          <mxGeometry x="188.01" y="560" width="30" height="30" as="geometry" />
        </mxCell>
        <mxCell id="Ws0JKRpnU8jsVFA6yoCU-647" style="edgeStyle=none;rounded=0;orthogonalLoop=1;jettySize=auto;html=1;exitX=0;exitY=1;exitDx=0;exitDy=0;endArrow=none;endFill=0;strokeColor=#FF8000;strokeWidth=2;fontFamily=Roboto;fontSize=16;horizontal=0;" parent="1" source="Ws0JKRpnU8jsVFA6yoCU-633" target="Ws0JKRpnU8jsVFA6yoCU-646" edge="1">
          <mxGeometry relative="1" as="geometry" />
        </mxCell>
        <mxCell id="Ws0JKRpnU8jsVFA6yoCU-648" style="edgeStyle=none;rounded=0;orthogonalLoop=1;jettySize=auto;html=1;exitX=0.5;exitY=1;exitDx=0;exitDy=0;entryX=0.5;entryY=0;entryDx=0;entryDy=0;endArrow=none;endFill=0;strokeColor=#FF8000;strokeWidth=2;fontFamily=Roboto;fontSize=16;horizontal=0;" parent="1" source="Ws0JKRpnU8jsVFA6yoCU-638" target="Ws0JKRpnU8jsVFA6yoCU-646" edge="1">
          <mxGeometry relative="1" as="geometry" />
        </mxCell>
        <mxCell id="Ws0JKRpnU8jsVFA6yoCU-650" value="87" style="ellipse;whiteSpace=wrap;html=1;aspect=fixed;fontSize=16;fontFamily=Roboto;rotation=90;verticalAlign=top;horizontal=0;container=0;" parent="1" vertex="1">
          <mxGeometry x="128.01" y="630" width="30" height="30" as="geometry" />
        </mxCell>
        <mxCell id="Ws0JKRpnU8jsVFA6yoCU-651" style="edgeStyle=none;rounded=0;orthogonalLoop=1;jettySize=auto;html=1;exitX=0.5;exitY=1;exitDx=0;exitDy=0;entryX=0.5;entryY=0;entryDx=0;entryDy=0;endArrow=none;endFill=0;strokeColor=#FF8000;strokeWidth=2;fontFamily=Roboto;fontSize=16;horizontal=0;" parent="1" source="Ws0JKRpnU8jsVFA6yoCU-642" target="Ws0JKRpnU8jsVFA6yoCU-650" edge="1">
          <mxGeometry relative="1" as="geometry" />
        </mxCell>
        <mxCell id="Ws0JKRpnU8jsVFA6yoCU-653" style="edgeStyle=none;rounded=0;orthogonalLoop=1;jettySize=auto;html=1;exitX=1;exitY=1;exitDx=0;exitDy=0;entryX=0;entryY=0;entryDx=0;entryDy=0;endArrow=none;endFill=0;strokeColor=#FF8000;strokeWidth=2;fontFamily=Roboto;fontSize=16;horizontal=0;" parent="1" source="Ws0JKRpnU8jsVFA6yoCU-646" target="Ws0JKRpnU8jsVFA6yoCU-650" edge="1">
          <mxGeometry relative="1" as="geometry" />
        </mxCell>
        <mxCell id="Ws0JKRpnU8jsVFA6yoCU-654" style="edgeStyle=none;rounded=0;orthogonalLoop=1;jettySize=auto;html=1;exitX=1;exitY=0.5;exitDx=0;exitDy=0;endArrow=none;endFill=0;strokeColor=#00CC00;strokeWidth=2;fontFamily=Roboto;fontSize=16;horizontal=0;" parent="1" source="Ws0JKRpnU8jsVFA6yoCU-655" target="Ws0JKRpnU8jsVFA6yoCU-650" edge="1">
          <mxGeometry relative="1" as="geometry" />
        </mxCell>
        <mxCell id="Ws0JKRpnU8jsVFA6yoCU-655" value="88" style="ellipse;whiteSpace=wrap;html=1;aspect=fixed;fontSize=16;fontFamily=Roboto;rotation=90;verticalAlign=top;horizontal=0;container=0;" parent="1" vertex="1">
          <mxGeometry x="128.01" y="560" width="30" height="30" as="geometry" />
        </mxCell>
        <mxCell id="Ws0JKRpnU8jsVFA6yoCU-656" style="edgeStyle=none;rounded=0;orthogonalLoop=1;jettySize=auto;html=1;exitX=0;exitY=1;exitDx=0;exitDy=0;entryX=1;entryY=0;entryDx=0;entryDy=0;endArrow=none;endFill=0;strokeColor=#FF8000;strokeWidth=2;fontFamily=Roboto;fontSize=16;horizontal=0;" parent="1" source="Ws0JKRpnU8jsVFA6yoCU-642" target="Ws0JKRpnU8jsVFA6yoCU-655" edge="1">
          <mxGeometry relative="1" as="geometry" />
        </mxCell>
        <mxCell id="Ws0JKRpnU8jsVFA6yoCU-657" style="edgeStyle=none;rounded=0;orthogonalLoop=1;jettySize=auto;html=1;exitX=0.5;exitY=1;exitDx=0;exitDy=0;entryX=0.5;entryY=0;entryDx=0;entryDy=0;endArrow=none;endFill=0;strokeColor=#FF8000;strokeWidth=2;fontFamily=Roboto;fontSize=16;horizontal=0;" parent="1" source="Ws0JKRpnU8jsVFA6yoCU-646" target="Ws0JKRpnU8jsVFA6yoCU-655" edge="1">
          <mxGeometry relative="1" as="geometry" />
        </mxCell>
        <mxCell id="Ws0JKRpnU8jsVFA6yoCU-659" value="89" style="ellipse;whiteSpace=wrap;html=1;aspect=fixed;fontSize=16;fontFamily=Roboto;rotation=90;verticalAlign=top;horizontal=0;container=0;" parent="1" vertex="1">
          <mxGeometry x="68.00999999999999" y="630" width="30" height="30" as="geometry" />
        </mxCell>
        <mxCell id="Ws0JKRpnU8jsVFA6yoCU-661" style="edgeStyle=none;rounded=0;orthogonalLoop=1;jettySize=auto;html=1;exitX=0.5;exitY=1;exitDx=0;exitDy=0;entryX=0.5;entryY=0;entryDx=0;entryDy=0;endArrow=none;endFill=0;strokeColor=#FF8000;strokeWidth=2;fontFamily=Roboto;fontSize=16;horizontal=0;" parent="1" source="Ws0JKRpnU8jsVFA6yoCU-650" target="Ws0JKRpnU8jsVFA6yoCU-659" edge="1">
          <mxGeometry relative="1" as="geometry" />
        </mxCell>
        <mxCell id="Ws0JKRpnU8jsVFA6yoCU-662" style="edgeStyle=none;rounded=0;orthogonalLoop=1;jettySize=auto;html=1;exitX=1;exitY=1;exitDx=0;exitDy=0;entryX=0;entryY=0;entryDx=0;entryDy=0;endArrow=none;endFill=0;strokeColor=#FF8000;strokeWidth=2;fontFamily=Roboto;fontSize=16;horizontal=0;" parent="1" source="Ws0JKRpnU8jsVFA6yoCU-655" target="Ws0JKRpnU8jsVFA6yoCU-659" edge="1">
          <mxGeometry relative="1" as="geometry" />
        </mxCell>
        <mxCell id="Ws0JKRpnU8jsVFA6yoCU-663" style="edgeStyle=none;rounded=0;orthogonalLoop=1;jettySize=auto;html=1;exitX=1;exitY=0.5;exitDx=0;exitDy=0;entryX=0;entryY=0.5;entryDx=0;entryDy=0;endArrow=none;endFill=0;strokeColor=#00CC00;strokeWidth=2;fontFamily=Roboto;fontSize=16;horizontal=0;" parent="1" source="Ws0JKRpnU8jsVFA6yoCU-664" target="Ws0JKRpnU8jsVFA6yoCU-659" edge="1">
          <mxGeometry relative="1" as="geometry" />
        </mxCell>
        <mxCell id="Ws0JKRpnU8jsVFA6yoCU-664" value="90" style="ellipse;whiteSpace=wrap;html=1;aspect=fixed;fontSize=16;fontFamily=Roboto;rotation=90;verticalAlign=top;horizontal=0;container=0;" parent="1" vertex="1">
          <mxGeometry x="68.00999999999999" y="560" width="30" height="30" as="geometry" />
        </mxCell>
        <mxCell id="Ws0JKRpnU8jsVFA6yoCU-665" style="edgeStyle=none;rounded=0;orthogonalLoop=1;jettySize=auto;html=1;exitX=0;exitY=1;exitDx=0;exitDy=0;entryX=1;entryY=0;entryDx=0;entryDy=0;endArrow=none;endFill=0;strokeColor=#FF8000;strokeWidth=2;fontFamily=Roboto;fontSize=16;horizontal=0;" parent="1" source="Ws0JKRpnU8jsVFA6yoCU-650" target="Ws0JKRpnU8jsVFA6yoCU-664" edge="1">
          <mxGeometry relative="1" as="geometry" />
        </mxCell>
        <mxCell id="Ws0JKRpnU8jsVFA6yoCU-666" style="edgeStyle=none;rounded=0;orthogonalLoop=1;jettySize=auto;html=1;exitX=0.5;exitY=1;exitDx=0;exitDy=0;entryX=0.5;entryY=0;entryDx=0;entryDy=0;endArrow=none;endFill=0;strokeColor=#FF8000;strokeWidth=2;fontFamily=Roboto;fontSize=16;horizontal=0;" parent="1" source="Ws0JKRpnU8jsVFA6yoCU-655" target="Ws0JKRpnU8jsVFA6yoCU-664" edge="1">
          <mxGeometry relative="1" as="geometry" />
        </mxCell>
        <mxCell id="Ws0JKRpnU8jsVFA6yoCU-668" value="91" style="ellipse;whiteSpace=wrap;html=1;aspect=fixed;fontSize=16;fontFamily=Roboto;rotation=90;verticalAlign=top;horizontal=0;container=0;" parent="1" vertex="1">
          <mxGeometry x="8.009999999999991" y="630" width="30" height="30" as="geometry" />
        </mxCell>
        <mxCell id="Ws0JKRpnU8jsVFA6yoCU-670" style="edgeStyle=none;rounded=0;orthogonalLoop=1;jettySize=auto;html=1;exitX=0.5;exitY=1;exitDx=0;exitDy=0;entryX=0.5;entryY=0;entryDx=0;entryDy=0;endArrow=none;endFill=0;strokeColor=#FF8000;strokeWidth=2;fontFamily=Roboto;fontSize=16;horizontal=0;" parent="1" source="Ws0JKRpnU8jsVFA6yoCU-659" target="Ws0JKRpnU8jsVFA6yoCU-668" edge="1">
          <mxGeometry relative="1" as="geometry" />
        </mxCell>
        <mxCell id="Ws0JKRpnU8jsVFA6yoCU-671" style="edgeStyle=none;rounded=0;orthogonalLoop=1;jettySize=auto;html=1;exitX=1;exitY=1;exitDx=0;exitDy=0;entryX=0;entryY=0;entryDx=0;entryDy=0;endArrow=none;endFill=0;strokeColor=#FF8000;strokeWidth=2;fontFamily=Roboto;fontSize=16;horizontal=0;" parent="1" source="Ws0JKRpnU8jsVFA6yoCU-664" target="Ws0JKRpnU8jsVFA6yoCU-668" edge="1">
          <mxGeometry relative="1" as="geometry" />
        </mxCell>
        <mxCell id="Ws0JKRpnU8jsVFA6yoCU-672" style="edgeStyle=none;rounded=0;orthogonalLoop=1;jettySize=auto;html=1;exitX=1;exitY=0.5;exitDx=0;exitDy=0;endArrow=none;endFill=0;strokeColor=#00CC00;strokeWidth=2;fontFamily=Roboto;fontSize=16;horizontal=0;" parent="1" source="Ws0JKRpnU8jsVFA6yoCU-673" target="Ws0JKRpnU8jsVFA6yoCU-668" edge="1">
          <mxGeometry relative="1" as="geometry" />
        </mxCell>
        <mxCell id="Ws0JKRpnU8jsVFA6yoCU-673" value="92" style="ellipse;whiteSpace=wrap;html=1;aspect=fixed;fontSize=16;fontFamily=Roboto;rotation=90;verticalAlign=top;horizontal=0;container=0;" parent="1" vertex="1">
          <mxGeometry x="8.009999999999991" y="560" width="30" height="30" as="geometry" />
        </mxCell>
        <mxCell id="Ws0JKRpnU8jsVFA6yoCU-674" style="edgeStyle=none;rounded=0;orthogonalLoop=1;jettySize=auto;html=1;exitX=0;exitY=1;exitDx=0;exitDy=0;entryX=1;entryY=0;entryDx=0;entryDy=0;endArrow=none;endFill=0;strokeColor=#FF8000;strokeWidth=2;fontFamily=Roboto;fontSize=16;horizontal=0;" parent="1" source="Ws0JKRpnU8jsVFA6yoCU-659" target="Ws0JKRpnU8jsVFA6yoCU-673" edge="1">
          <mxGeometry relative="1" as="geometry" />
        </mxCell>
        <mxCell id="Ws0JKRpnU8jsVFA6yoCU-675" style="edgeStyle=none;rounded=0;orthogonalLoop=1;jettySize=auto;html=1;exitX=0.5;exitY=1;exitDx=0;exitDy=0;entryX=0.5;entryY=0;entryDx=0;entryDy=0;endArrow=none;endFill=0;strokeColor=#FF8000;strokeWidth=2;fontFamily=Roboto;fontSize=16;horizontal=0;" parent="1" source="Ws0JKRpnU8jsVFA6yoCU-664" target="Ws0JKRpnU8jsVFA6yoCU-673" edge="1">
          <mxGeometry relative="1" as="geometry" />
        </mxCell>
        <mxCell id="Ws0JKRpnU8jsVFA6yoCU-677" value="93" style="ellipse;whiteSpace=wrap;html=1;aspect=fixed;fontSize=16;fontFamily=Roboto;rotation=90;verticalAlign=top;horizontal=0;container=0;" parent="1" vertex="1">
          <mxGeometry x="-51.99000000000001" y="630" width="30" height="30" as="geometry" />
        </mxCell>
        <mxCell id="Ws0JKRpnU8jsVFA6yoCU-679" style="edgeStyle=none;rounded=0;orthogonalLoop=1;jettySize=auto;html=1;exitX=0.5;exitY=1;exitDx=0;exitDy=0;entryX=0.5;entryY=0;entryDx=0;entryDy=0;endArrow=none;endFill=0;strokeColor=#FF8000;strokeWidth=2;fontFamily=Roboto;fontSize=16;horizontal=0;" parent="1" source="Ws0JKRpnU8jsVFA6yoCU-668" target="Ws0JKRpnU8jsVFA6yoCU-677" edge="1">
          <mxGeometry relative="1" as="geometry" />
        </mxCell>
        <mxCell id="Ws0JKRpnU8jsVFA6yoCU-680" style="edgeStyle=none;rounded=0;orthogonalLoop=1;jettySize=auto;html=1;exitX=1;exitY=1;exitDx=0;exitDy=0;entryX=0;entryY=0;entryDx=0;entryDy=0;endArrow=none;endFill=0;strokeColor=#FF8000;strokeWidth=2;fontFamily=Roboto;fontSize=16;horizontal=0;" parent="1" source="Ws0JKRpnU8jsVFA6yoCU-673" target="Ws0JKRpnU8jsVFA6yoCU-677" edge="1">
          <mxGeometry relative="1" as="geometry" />
        </mxCell>
        <mxCell id="Ws0JKRpnU8jsVFA6yoCU-681" style="edgeStyle=none;rounded=0;orthogonalLoop=1;jettySize=auto;html=1;exitX=1;exitY=0.5;exitDx=0;exitDy=0;entryX=0;entryY=0.5;entryDx=0;entryDy=0;endArrow=none;endFill=0;strokeColor=#00CC00;strokeWidth=2;fontFamily=Roboto;fontSize=16;horizontal=0;" parent="1" source="Ws0JKRpnU8jsVFA6yoCU-682" target="Ws0JKRpnU8jsVFA6yoCU-677" edge="1">
          <mxGeometry relative="1" as="geometry" />
        </mxCell>
        <mxCell id="Ws0JKRpnU8jsVFA6yoCU-682" value="94" style="ellipse;whiteSpace=wrap;html=1;aspect=fixed;fontSize=16;fontFamily=Roboto;rotation=90;verticalAlign=top;horizontal=0;container=0;" parent="1" vertex="1">
          <mxGeometry x="-51.99000000000001" y="560" width="30" height="30" as="geometry" />
        </mxCell>
        <mxCell id="Ws0JKRpnU8jsVFA6yoCU-683" style="edgeStyle=none;rounded=0;orthogonalLoop=1;jettySize=auto;html=1;exitX=0;exitY=1;exitDx=0;exitDy=0;entryX=1;entryY=0;entryDx=0;entryDy=0;endArrow=none;endFill=0;strokeColor=#FF8000;strokeWidth=2;fontFamily=Roboto;fontSize=16;horizontal=0;" parent="1" source="Ws0JKRpnU8jsVFA6yoCU-668" target="Ws0JKRpnU8jsVFA6yoCU-682" edge="1">
          <mxGeometry relative="1" as="geometry" />
        </mxCell>
        <mxCell id="Ws0JKRpnU8jsVFA6yoCU-684" style="edgeStyle=none;rounded=0;orthogonalLoop=1;jettySize=auto;html=1;exitX=0.5;exitY=1;exitDx=0;exitDy=0;entryX=0.5;entryY=0;entryDx=0;entryDy=0;endArrow=none;endFill=0;strokeColor=#FF8000;strokeWidth=2;fontFamily=Roboto;fontSize=16;horizontal=0;" parent="1" source="Ws0JKRpnU8jsVFA6yoCU-673" target="Ws0JKRpnU8jsVFA6yoCU-682" edge="1">
          <mxGeometry relative="1" as="geometry" />
        </mxCell>
        <mxCell id="Su0HvrgJdk693_J9CV8J-61" value="95" style="ellipse;whiteSpace=wrap;html=1;aspect=fixed;fontSize=16;fontFamily=Roboto;rotation=90;verticalAlign=top;horizontal=0;fillColor=#647687;strokeColor=#314354;fontColor=#ffffff;container=0;" vertex="1" parent="1">
          <mxGeometry x="-112.74000000000001" y="630" width="30" height="30" as="geometry" />
        </mxCell>
        <mxCell id="Su0HvrgJdk693_J9CV8J-62" style="edgeStyle=none;rounded=0;orthogonalLoop=1;jettySize=auto;html=1;exitX=0.5;exitY=1;exitDx=0;exitDy=0;entryX=0.5;entryY=0;entryDx=0;entryDy=0;endArrow=none;endFill=0;strokeColor=#FF8000;strokeWidth=2;fontFamily=Roboto;fontSize=16;horizontal=0;" edge="1" parent="1" target="Su0HvrgJdk693_J9CV8J-61">
          <mxGeometry relative="1" as="geometry">
            <mxPoint x="-52.75" y="645" as="sourcePoint" />
          </mxGeometry>
        </mxCell>
        <mxCell id="Su0HvrgJdk693_J9CV8J-63" style="edgeStyle=none;rounded=0;orthogonalLoop=1;jettySize=auto;html=1;exitX=1;exitY=1;exitDx=0;exitDy=0;entryX=0;entryY=0;entryDx=0;entryDy=0;endArrow=none;endFill=0;strokeColor=#FF8000;strokeWidth=2;fontFamily=Roboto;fontSize=16;horizontal=0;" edge="1" parent="1" target="Su0HvrgJdk693_J9CV8J-61">
          <mxGeometry relative="1" as="geometry">
            <mxPoint x="-48.75" y="586" as="sourcePoint" />
          </mxGeometry>
        </mxCell>
        <mxCell id="Su0HvrgJdk693_J9CV8J-64" style="edgeStyle=none;rounded=0;orthogonalLoop=1;jettySize=auto;html=1;exitX=1;exitY=0.5;exitDx=0;exitDy=0;entryX=0;entryY=0.5;entryDx=0;entryDy=0;endArrow=none;endFill=0;strokeColor=#00CC00;strokeWidth=2;fontFamily=Roboto;fontSize=16;horizontal=0;" edge="1" parent="1" source="Su0HvrgJdk693_J9CV8J-65" target="Su0HvrgJdk693_J9CV8J-61">
          <mxGeometry relative="1" as="geometry" />
        </mxCell>
        <mxCell id="Su0HvrgJdk693_J9CV8J-65" value="96" style="ellipse;whiteSpace=wrap;html=1;aspect=fixed;fontSize=16;fontFamily=Roboto;rotation=90;verticalAlign=top;horizontal=0;fillColor=#647687;strokeColor=#314354;fontColor=#ffffff;container=0;" vertex="1" parent="1">
          <mxGeometry x="-112.74000000000001" y="560" width="30" height="30" as="geometry" />
        </mxCell>
        <mxCell id="Su0HvrgJdk693_J9CV8J-66" style="edgeStyle=none;rounded=0;orthogonalLoop=1;jettySize=auto;html=1;exitX=0;exitY=1;exitDx=0;exitDy=0;entryX=1;entryY=0;entryDx=0;entryDy=0;endArrow=none;endFill=0;strokeColor=#FF8000;strokeWidth=2;fontFamily=Roboto;fontSize=16;horizontal=0;" edge="1" parent="1" target="Su0HvrgJdk693_J9CV8J-65">
          <mxGeometry relative="1" as="geometry">
            <mxPoint x="-48.75" y="634" as="sourcePoint" />
          </mxGeometry>
        </mxCell>
        <mxCell id="Su0HvrgJdk693_J9CV8J-67" style="edgeStyle=none;rounded=0;orthogonalLoop=1;jettySize=auto;html=1;exitX=0.5;exitY=1;exitDx=0;exitDy=0;entryX=0.5;entryY=0;entryDx=0;entryDy=0;endArrow=none;endFill=0;strokeColor=#FF8000;strokeWidth=2;fontFamily=Roboto;fontSize=16;horizontal=0;" edge="1" parent="1" target="Su0HvrgJdk693_J9CV8J-65">
          <mxGeometry relative="1" as="geometry">
            <mxPoint x="-52.75" y="575" as="sourcePoint" />
          </mxGeometry>
        </mxCell>
        <mxCell id="Su0HvrgJdk693_J9CV8J-68" style="edgeStyle=none;rounded=0;orthogonalLoop=1;jettySize=auto;html=1;entryX=1;entryY=0.5;entryDx=0;entryDy=0;endArrow=none;endFill=0;strokeColor=#00CC00;strokeWidth=2;fontFamily=Roboto;fontSize=16;" edge="1" parent="1" target="Su0HvrgJdk693_J9CV8J-61">
          <mxGeometry relative="1" as="geometry">
            <mxPoint x="80" y="760" as="sourcePoint" />
            <mxPoint x="-95.75" y="665" as="targetPoint" />
          </mxGeometry>
        </mxCell>
      </root>
    </mxGraphModel>
  </diagram>
</mxfile>
